<svg width="189" height="62" viewBox="0 0 189 62" fill="none" xmlns="http://www.w3.org/2000/svg">
<rect x="1.5" y="1.5" width="186" height="59" rx="15.5" stroke="white" stroke-width="3"/>
<path d="M59.1385 42.0001C59.0158 42.0001 58.9008 41.9541 58.7935 41.8621C58.7015 41.7701 58.6555 41.6551 58.6555 41.5171C58.6555 41.4557 58.6708 41.3867 58.7015 41.3101L64.2445 26.4751C64.2905 26.3217 64.3748 26.1914 64.4975 26.0841C64.6355 25.9614 64.8195 25.9001 65.0495 25.9001H67.5565C67.7865 25.9001 67.9628 25.9614 68.0855 26.0841C68.2082 26.1914 68.3002 26.3217 68.3615 26.4751L73.9045 41.3101C73.9198 41.3867 73.9275 41.4557 73.9275 41.5171C73.9275 41.6551 73.8815 41.7701 73.7895 41.8621C73.6975 41.9541 73.5902 42.0001 73.4675 42.0001H71.4665C71.2518 42.0001 71.0908 41.9541 70.9835 41.8621C70.8915 41.7547 70.8302 41.6551 70.7995 41.5631L69.7185 38.7571H62.8875L61.8065 41.5631C61.7758 41.6551 61.7068 41.7547 61.5995 41.8621C61.5075 41.9541 61.3542 42.0001 61.1395 42.0001H59.1385ZM63.6925 36.1121H68.9135L66.2915 29.0051L63.6925 36.1121ZM76.8338 46.3701C76.6804 46.3701 76.5501 46.3164 76.4428 46.2091C76.3354 46.1017 76.2818 45.9714 76.2818 45.8181V30.5921C76.2818 30.4387 76.3354 30.3084 76.4428 30.2011C76.5501 30.0937 76.6804 30.0401 76.8338 30.0401H78.6508C78.8194 30.0401 78.9498 30.0937 79.0418 30.2011C79.1491 30.3084 79.2028 30.4387 79.2028 30.5921V31.5121C79.5708 31.0214 80.0538 30.6151 80.6518 30.2931C81.2498 29.9711 81.9934 29.8101 82.8828 29.8101C83.6954 29.8101 84.4008 29.9404 84.9988 30.2011C85.5968 30.4617 86.0951 30.8374 86.4938 31.3281C86.8924 31.8034 87.1991 32.3707 87.4138 33.0301C87.6284 33.6894 87.7511 34.4177 87.7818 35.2151C87.7971 35.4757 87.8048 35.7441 87.8048 36.0201C87.8048 36.2961 87.7971 36.5721 87.7818 36.8481C87.7664 37.6147 87.6514 38.3277 87.4368 38.9871C87.2221 39.6311 86.9078 40.1984 86.4938 40.6891C86.0951 41.1644 85.5968 41.5401 84.9988 41.8161C84.4008 42.0921 83.6954 42.2301 82.8828 42.2301C82.0548 42.2301 81.3494 42.0844 80.7668 41.7931C80.1841 41.4864 79.7088 41.0877 79.3408 40.5971V45.8181C79.3408 45.9714 79.2871 46.1017 79.1798 46.2091C79.0878 46.3164 78.9574 46.3701 78.7888 46.3701H76.8338ZM82.0318 39.7691C82.6911 39.7691 83.2048 39.6311 83.5728 39.3551C83.9408 39.0637 84.2014 38.6881 84.3548 38.2281C84.5234 37.7681 84.6231 37.2621 84.6538 36.7101C84.6844 36.2501 84.6844 35.7901 84.6538 35.3301C84.6231 34.7781 84.5234 34.2721 84.3548 33.8121C84.2014 33.3521 83.9408 32.9841 83.5728 32.7081C83.2048 32.4167 82.6911 32.2711 82.0318 32.2711C81.4031 32.2711 80.8894 32.4167 80.4908 32.7081C80.1074 32.9994 79.8238 33.3751 79.6398 33.8351C79.4711 34.2797 79.3714 34.7397 79.3408 35.2151C79.3254 35.4911 79.3178 35.7824 79.3178 36.0891C79.3178 36.3957 79.3254 36.6947 79.3408 36.9861C79.3561 37.4461 79.4634 37.8907 79.6628 38.3201C79.8621 38.7341 80.1534 39.0791 80.5368 39.3551C80.9201 39.6311 81.4184 39.7691 82.0318 39.7691ZM91.4217 46.3701C91.2684 46.3701 91.138 46.3164 91.0307 46.2091C90.9234 46.1017 90.8697 45.9714 90.8697 45.8181V30.5921C90.8697 30.4387 90.9234 30.3084 91.0307 30.2011C91.138 30.0937 91.2684 30.0401 91.4217 30.0401H93.2387C93.4074 30.0401 93.5377 30.0937 93.6297 30.2011C93.737 30.3084 93.7907 30.4387 93.7907 30.5921V31.5121C94.1587 31.0214 94.6417 30.6151 95.2397 30.2931C95.8377 29.9711 96.5814 29.8101 97.4707 29.8101C98.2834 29.8101 98.9887 29.9404 99.5867 30.2011C100.185 30.4617 100.683 30.8374 101.082 31.3281C101.48 31.8034 101.787 32.3707 102.002 33.0301C102.216 33.6894 102.339 34.4177 102.37 35.2151C102.385 35.4757 102.393 35.7441 102.393 36.0201C102.393 36.2961 102.385 36.5721 102.37 36.8481C102.354 37.6147 102.239 38.3277 102.025 38.9871C101.81 39.6311 101.496 40.1984 101.082 40.6891C100.683 41.1644 100.185 41.5401 99.5867 41.8161C98.9887 42.0921 98.2834 42.2301 97.4707 42.2301C96.6427 42.2301 95.9374 42.0844 95.3547 41.7931C94.772 41.4864 94.2967 41.0877 93.9287 40.5971V45.8181C93.9287 45.9714 93.875 46.1017 93.7677 46.2091C93.6757 46.3164 93.5454 46.3701 93.3767 46.3701H91.4217ZM96.6197 39.7691C97.279 39.7691 97.7927 39.6311 98.1607 39.3551C98.5287 39.0637 98.7894 38.6881 98.9427 38.2281C99.1114 37.7681 99.211 37.2621 99.2417 36.7101C99.2724 36.2501 99.2724 35.7901 99.2417 35.3301C99.211 34.7781 99.1114 34.2721 98.9427 33.8121C98.7894 33.3521 98.5287 32.9841 98.1607 32.7081C97.7927 32.4167 97.279 32.2711 96.6197 32.2711C95.991 32.2711 95.4774 32.4167 95.0787 32.7081C94.6954 32.9994 94.4117 33.3751 94.2277 33.8351C94.059 34.2797 93.9594 34.7397 93.9287 35.2151C93.9134 35.4911 93.9057 35.7824 93.9057 36.0891C93.9057 36.3957 93.9134 36.6947 93.9287 36.9861C93.944 37.4461 94.0514 37.8907 94.2507 38.3201C94.45 38.7341 94.7414 39.0791 95.1247 39.3551C95.508 39.6311 96.0064 39.7691 96.6197 39.7691ZM117.015 42.2301C115.589 42.2301 114.393 42.0231 113.427 41.6091C112.477 41.1797 111.748 40.6277 111.242 39.9531C110.752 39.2631 110.491 38.5424 110.46 37.7911C110.46 37.6531 110.506 37.5381 110.598 37.4461C110.69 37.3541 110.805 37.3081 110.943 37.3081H112.99C113.19 37.3081 113.335 37.3541 113.427 37.4461C113.535 37.5227 113.627 37.6224 113.703 37.7451C113.795 38.0364 113.972 38.3277 114.232 38.6191C114.493 38.8951 114.846 39.1251 115.29 39.3091C115.75 39.4931 116.325 39.5851 117.015 39.5851C118.119 39.5851 118.94 39.4011 119.476 39.0331C120.028 38.6651 120.304 38.1667 120.304 37.5381C120.304 37.0934 120.159 36.7407 119.867 36.4801C119.576 36.2041 119.124 35.9587 118.51 35.7441C117.912 35.5141 117.115 35.2764 116.118 35.0311C114.968 34.7551 114.002 34.4254 113.22 34.0421C112.454 33.6434 111.871 33.1451 111.472 32.5471C111.089 31.9491 110.897 31.1901 110.897 30.2701C110.897 29.3807 111.135 28.5911 111.61 27.9011C112.101 27.2111 112.791 26.6667 113.68 26.2681C114.585 25.8694 115.658 25.6701 116.9 25.6701C117.897 25.6701 118.779 25.8081 119.545 26.0841C120.312 26.3447 120.948 26.6974 121.454 27.1421C121.96 27.5714 122.344 28.0391 122.604 28.5451C122.88 29.0357 123.026 29.5187 123.041 29.9941C123.041 30.1167 122.995 30.2317 122.903 30.3391C122.827 30.4311 122.712 30.4771 122.558 30.4771H120.419C120.297 30.4771 120.174 30.4464 120.051 30.3851C119.929 30.3237 119.829 30.2087 119.752 30.0401C119.66 29.5647 119.361 29.1584 118.855 28.8211C118.349 28.4837 117.698 28.3151 116.9 28.3151C116.072 28.3151 115.405 28.4684 114.899 28.7751C114.393 29.0817 114.14 29.5571 114.14 30.2011C114.14 30.6304 114.263 30.9907 114.508 31.2821C114.769 31.5581 115.175 31.8034 115.727 32.0181C116.295 32.2327 117.038 32.4627 117.958 32.7081C119.262 32.9994 120.327 33.3367 121.155 33.7201C121.983 34.1034 122.589 34.5941 122.972 35.1921C123.356 35.7747 123.547 36.5184 123.547 37.4231C123.547 38.4351 123.271 39.3014 122.719 40.0221C122.183 40.7274 121.424 41.2717 120.442 41.6551C119.461 42.0384 118.319 42.2301 117.015 42.2301ZM131.772 42.0001C130.852 42.0001 130.078 41.8391 129.449 41.5171C128.821 41.1951 128.353 40.7197 128.046 40.0911C127.74 39.4471 127.586 38.6497 127.586 37.6991V32.4781H125.769C125.616 32.4781 125.486 32.4244 125.378 32.3171C125.271 32.2097 125.217 32.0794 125.217 31.9261V30.5921C125.217 30.4387 125.271 30.3084 125.378 30.2011C125.486 30.0937 125.616 30.0401 125.769 30.0401H127.586V26.2221C127.586 26.0687 127.632 25.9384 127.724 25.8311C127.832 25.7237 127.97 25.6701 128.138 25.6701H130.001C130.155 25.6701 130.285 25.7237 130.392 25.8311C130.5 25.9384 130.553 26.0687 130.553 26.2221V30.0401H133.428C133.582 30.0401 133.712 30.0937 133.819 30.2011C133.927 30.3084 133.98 30.4387 133.98 30.5921V31.9261C133.98 32.0794 133.927 32.2097 133.819 32.3171C133.712 32.4244 133.582 32.4781 133.428 32.4781H130.553V37.4691C130.553 38.0977 130.661 38.5884 130.875 38.9411C131.105 39.2937 131.496 39.4701 132.048 39.4701H133.635C133.789 39.4701 133.919 39.5237 134.026 39.6311C134.134 39.7384 134.187 39.8687 134.187 40.0221V41.4481C134.187 41.6014 134.134 41.7317 134.026 41.8391C133.919 41.9464 133.789 42.0001 133.635 42.0001H131.772ZM141.978 42.2301C140.751 42.2301 139.716 42.0154 138.873 41.5861C138.045 41.1567 137.408 40.5511 136.964 39.7691C136.534 38.9871 136.289 38.0747 136.228 37.0321C136.212 36.7561 136.205 36.4187 136.205 36.0201C136.205 35.6214 136.212 35.2841 136.228 35.0081C136.289 33.9501 136.542 33.0377 136.987 32.2711C137.447 31.4891 138.091 30.8834 138.919 30.4541C139.762 30.0247 140.782 29.8101 141.978 29.8101C143.174 29.8101 144.186 30.0247 145.014 30.4541C145.857 30.8834 146.501 31.4891 146.946 32.2711C147.406 33.0377 147.666 33.9501 147.728 35.0081C147.743 35.2841 147.751 35.6214 147.751 36.0201C147.751 36.4187 147.743 36.7561 147.728 37.0321C147.666 38.0747 147.413 38.9871 146.969 39.7691C146.539 40.5511 145.903 41.1567 145.06 41.5861C144.232 42.0154 143.204 42.2301 141.978 42.2301ZM141.978 39.9531C142.79 39.9531 143.419 39.7001 143.864 39.1941C144.308 38.6727 144.554 37.9137 144.6 36.9171C144.615 36.6871 144.623 36.3881 144.623 36.0201C144.623 35.6521 144.615 35.3531 144.6 35.1231C144.554 34.1417 144.308 33.3904 143.864 32.8691C143.419 32.3477 142.79 32.0871 141.978 32.0871C141.165 32.0871 140.536 32.3477 140.092 32.8691C139.647 33.3904 139.402 34.1417 139.356 35.1231C139.34 35.3531 139.333 35.6521 139.333 36.0201C139.333 36.3881 139.34 36.6871 139.356 36.9171C139.402 37.9137 139.647 38.6727 140.092 39.1941C140.536 39.7001 141.165 39.9531 141.978 39.9531ZM151.311 42.0001C151.158 42.0001 151.027 41.9464 150.92 41.8391C150.813 41.7317 150.759 41.6014 150.759 41.4481V30.6151C150.759 30.4464 150.813 30.3084 150.92 30.2011C151.027 30.0937 151.158 30.0401 151.311 30.0401H153.174C153.327 30.0401 153.458 30.0937 153.565 30.2011C153.688 30.3084 153.749 30.4464 153.749 30.6151V31.5581C154.102 31.0674 154.554 30.6917 155.106 30.4311C155.673 30.1704 156.325 30.0401 157.061 30.0401H158.004C158.173 30.0401 158.303 30.0937 158.395 30.2011C158.502 30.3084 158.556 30.4387 158.556 30.5921V32.2481C158.556 32.4014 158.502 32.5317 158.395 32.6391C158.303 32.7464 158.173 32.8001 158.004 32.8001H156.21C155.474 32.8001 154.899 33.0071 154.485 33.4211C154.086 33.8351 153.887 34.4024 153.887 35.1231V41.4481C153.887 41.6014 153.833 41.7317 153.726 41.8391C153.619 41.9464 153.481 42.0001 153.312 42.0001H151.311ZM165.805 42.2301C164.103 42.2301 162.753 41.7394 161.757 40.7581C160.76 39.7767 160.223 38.3814 160.147 36.5721C160.131 36.4187 160.124 36.2271 160.124 35.9971C160.124 35.7517 160.131 35.5601 160.147 35.4221C160.208 34.2721 160.469 33.2754 160.929 32.4321C161.404 31.5887 162.056 30.9447 162.884 30.5001C163.712 30.0401 164.685 29.8101 165.805 29.8101C167.047 29.8101 168.089 30.0707 168.933 30.5921C169.776 31.0981 170.412 31.8111 170.842 32.7311C171.271 33.6357 171.486 34.6861 171.486 35.8821V36.3651C171.486 36.5184 171.432 36.6487 171.325 36.7561C171.217 36.8634 171.079 36.9171 170.911 36.9171H163.275C163.275 36.9171 163.275 36.9401 163.275 36.9861C163.275 37.0321 163.275 37.0704 163.275 37.1011C163.29 37.6377 163.39 38.1361 163.574 38.5961C163.773 39.0407 164.057 39.4011 164.425 39.6771C164.808 39.9531 165.26 40.0911 165.782 40.0911C166.211 40.0911 166.571 40.0297 166.863 39.9071C167.154 39.7691 167.392 39.6157 167.576 39.4471C167.76 39.2784 167.89 39.1404 167.967 39.0331C168.105 38.8491 168.212 38.7417 168.289 38.7111C168.381 38.6651 168.511 38.6421 168.68 38.6421H170.658C170.811 38.6421 170.934 38.6881 171.026 38.7801C171.133 38.8721 171.179 38.9871 171.164 39.1251C171.148 39.3704 171.018 39.6694 170.773 40.0221C170.543 40.3747 170.205 40.7197 169.761 41.0571C169.316 41.3944 168.756 41.6781 168.082 41.9081C167.422 42.1227 166.663 42.2301 165.805 42.2301ZM163.275 34.9851H168.358V34.9161C168.358 34.3181 168.258 33.7967 168.059 33.3521C167.859 32.9074 167.568 32.5547 167.185 32.2941C166.801 32.0334 166.341 31.9031 165.805 31.9031C165.268 31.9031 164.808 32.0334 164.425 32.2941C164.041 32.5547 163.75 32.9074 163.551 33.3521C163.367 33.7967 163.275 34.3181 163.275 34.9161V34.9851Z" fill="#333333"/>
<path d="M41.7465 32.9321C41.731 30.0872 43.0173 27.9399 45.6209 26.3585C44.1641 24.2733 41.9634 23.126 39.0576 22.9012C36.3068 22.6841 33.3002 24.5058 32.1999 24.5058C31.0376 24.5058 28.372 22.9787 26.2798 22.9787C21.9559 23.0485 17.3608 26.4283 17.3608 33.3042C17.3608 35.3352 17.7328 37.4334 18.4767 39.5988C19.4685 42.4437 23.0485 49.4204 26.7834 49.3042C28.7361 49.2576 30.1154 47.9166 32.6571 47.9166C35.1212 47.9166 36.3998 49.3042 38.5772 49.3042C42.3431 49.2499 45.5821 42.9088 46.5275 40.0561C41.4753 37.6763 41.7465 33.0794 41.7465 32.9321ZM37.3606 20.2035C39.4761 17.6919 39.2823 15.4051 39.2203 14.5834C37.3529 14.6919 35.1909 15.8547 33.9589 17.2888C32.6028 18.8237 31.8047 20.7229 31.9752 22.8624C33.9976 23.0174 35.8418 21.9787 37.3606 20.2035Z" fill="#333333"/>
</svg>
