<svg width="25" height="25" viewBox="0 0 25 25" fill="none" xmlns="http://www.w3.org/2000/svg">
<path d="M17.3125 3.11447C17.1916 2.99321 17.0479 2.89701 16.8897 2.83136C16.7315 2.76572 16.5619 2.73193 16.3907 2.73193C16.2194 2.73193 16.0498 2.76572 15.8916 2.83136C15.7334 2.89701 15.5897 2.99321 15.4688 3.11447L6.81253 11.7707C6.71597 11.8671 6.63936 11.9816 6.58708 12.1076C6.53481 12.2336 6.5079 12.3687 6.5079 12.5051C6.5079 12.6415 6.53481 12.7766 6.58708 12.9026C6.63936 13.0286 6.71597 13.1431 6.81253 13.2395L15.4688 21.8957C15.9792 22.4061 16.8021 22.4061 17.3125 21.8957C17.823 21.3853 17.823 20.5624 17.3125 20.052L9.77087 12.4999L17.323 4.9478C17.823 4.4478 17.823 3.61447 17.3125 3.11447Z" fill="#333333" stroke="#333333" stroke-width="1.5"/>
</svg>
