<svg width="25" height="25" viewBox="0 0 25 25" fill="none" xmlns="http://www.w3.org/2000/svg">
<path d="M16.1726 4.32403L7.37224 12.1398C7.25454 12.2443 7.1609 12.3698 7.09694 12.5086C7.03297 12.6474 7 12.7967 7 12.9476C7 13.0985 7.03297 13.2479 7.09694 13.3867C7.1609 13.5255 7.25454 13.651 7.37224 13.7555L16.1773 21.5713C16.4462 21.7975 16.8 21.9178 17.1634 21.9064C17.5268 21.8951 17.871 21.753 18.1228 21.5105C18.3747 21.268 18.5142 20.9442 18.5117 20.608C18.5093 20.2717 18.365 19.9497 18.1096 19.7104L10.731 13.165C10.6989 13.1371 10.6733 13.1035 10.6558 13.0661C10.6383 13.0287 10.6293 12.9884 10.6293 12.9476C10.6293 12.9069 10.6383 12.8666 10.6558 12.8292C10.6733 12.7918 10.6989 12.7581 10.731 12.7302L18.1049 6.18319C18.3541 5.9427 18.493 5.62245 18.4927 5.2894C18.4924 4.95636 18.3529 4.63632 18.1034 4.3962C17.8538 4.15609 17.5135 4.01451 17.1537 4.00105C16.7938 3.9876 16.4423 4.10333 16.1726 4.32403Z" fill="white"/>
</svg>
