<svg width="32" height="32" viewBox="0 0 32 32" fill="none" xmlns="http://www.w3.org/2000/svg">
<path d="M2 27.3333V22H3.33333V26H7.33333V27.3333H2ZM24.6667 27.3333V26H28.6667V22H30V27.3333H24.6667ZM5.33333 24V7.99999H8V24H5.33333ZM9.33333 24V7.99999H10.6667V24H9.33333ZM13.3333 24V7.99999H16V24H13.3333ZM17.3333 24V7.99999H21.3333V24H17.3333ZM22.6667 24V7.99999H24V24H22.6667ZM25.3333 24V7.99999H26.6667V24H25.3333ZM2 9.99999V4.66666H7.33333V5.99999H3.33333V9.99999H2ZM28.6667 9.99999V5.99999H24.6667V4.66666H30V9.99999H28.6667Z" fill="white"/>
</svg>
