<svg width="24" height="24" viewBox="0 0 24 24" fill="none" xmlns="http://www.w3.org/2000/svg">
<mask id="mask0_573_3810" style="mask-type:alpha" maskUnits="userSpaceOnUse" x="0" y="0" width="24" height="24">
<rect width="24" height="24" fill="#D9D9D9"/>
</mask>
<g mask="url(#mask0_573_3810)">
<path d="M5.40001 21.6C4.90501 21.6 4.48126 21.4208 4.12876 21.0625C3.77626 20.7042 3.60001 20.2833 3.60001 19.8V6.59999C3.60001 6.11666 3.77626 5.69583 4.12876 5.33749C4.48126 4.97916 4.90501 4.79999 5.40001 4.79999H7.20001V2.39999H9.00001V4.79999H15V2.39999H16.8V4.79999H18.6C19.095 4.79999 19.5188 4.97916 19.8713 5.33749C20.2238 5.69583 20.4 6.11666 20.4 6.59999V19.8C20.4 20.2833 20.2238 20.7042 19.8713 21.0625C19.5188 21.4208 19.095 21.6 18.6 21.6H5.40001ZM5.40001 19.8H18.6V10.8H5.40001V19.8ZM5.40001 8.99999H18.6V6.59999H5.40001V8.99999ZM12.0053 14.4C11.7518 14.4 11.5375 14.3143 11.3625 14.1428C11.1875 13.9713 11.1 13.7588 11.1 13.5053C11.1 13.2518 11.1857 13.0375 11.3572 12.8625C11.5287 12.6875 11.7412 12.6 11.9947 12.6C12.2482 12.6 12.4625 12.6857 12.6375 12.8572C12.8125 13.0287 12.9 13.2412 12.9 13.4947C12.9 13.7482 12.8143 13.9625 12.6428 14.1375C12.4713 14.3125 12.2588 14.4 12.0053 14.4ZM8.10528 14.4C7.85176 14.4 7.63751 14.3143 7.46251 14.1428C7.28751 13.9713 7.20001 13.7588 7.20001 13.5053C7.20001 13.2518 7.28575 13.0375 7.45723 12.8625C7.62873 12.6875 7.84123 12.6 8.09473 12.6C8.34825 12.6 8.56251 12.6857 8.73751 12.8572C8.91251 13.0287 9.00001 13.2412 9.00001 13.4947C9.00001 13.7482 8.91426 13.9625 8.74278 14.1375C8.57128 14.3125 8.35878 14.4 8.10528 14.4ZM15.9053 14.4C15.6518 14.4 15.4375 14.3143 15.2625 14.1428C15.0875 13.9713 15 13.7588 15 13.5053C15 13.2518 15.0857 13.0375 15.2572 12.8625C15.4287 12.6875 15.6412 12.6 15.8947 12.6C16.1482 12.6 16.3625 12.6857 16.5375 12.8572C16.7125 13.0287 16.8 13.2412 16.8 13.4947C16.8 13.7482 16.7143 13.9625 16.5428 14.1375C16.3713 14.3125 16.1588 14.4 15.9053 14.4ZM12.0053 18C11.7518 18 11.5375 17.9143 11.3625 17.7428C11.1875 17.5713 11.1 17.3588 11.1 17.1053C11.1 16.8518 11.1857 16.6375 11.3572 16.4625C11.5287 16.2875 11.7412 16.2 11.9947 16.2C12.2482 16.2 12.4625 16.2857 12.6375 16.4572C12.8125 16.6287 12.9 16.8412 12.9 17.0947C12.9 17.3482 12.8143 17.5625 12.6428 17.7375C12.4713 17.9125 12.2588 18 12.0053 18ZM8.10528 18C7.85176 18 7.63751 17.9143 7.46251 17.7428C7.28751 17.5713 7.20001 17.3588 7.20001 17.1053C7.20001 16.8518 7.28575 16.6375 7.45723 16.4625C7.62873 16.2875 7.84123 16.2 8.09473 16.2C8.34825 16.2 8.56251 16.2857 8.73751 16.4572C8.91251 16.6287 9.00001 16.8412 9.00001 17.0947C9.00001 17.3482 8.91426 17.5625 8.74278 17.7375C8.57128 17.9125 8.35878 18 8.10528 18ZM15.9053 18C15.6518 18 15.4375 17.9143 15.2625 17.7428C15.0875 17.5713 15 17.3588 15 17.1053C15 16.8518 15.0857 16.6375 15.2572 16.4625C15.4287 16.2875 15.6412 16.2 15.8947 16.2C16.1482 16.2 16.3625 16.2857 16.5375 16.4572C16.7125 16.6287 16.8 16.8412 16.8 17.0947C16.8 17.3482 16.7143 17.5625 16.5428 17.7375C16.3713 17.9125 16.1588 18 15.9053 18Z" fill="white"/>
</g>
</svg>
