<svg width="24" height="24" viewBox="0 0 24 24" fill="none" xmlns="http://www.w3.org/2000/svg">
<rect width="24" height="24"/>
<path d="M12 5.80511C13.7161 5.80511 15.2714 6.50166 16.3973 7.62758C16.8479 8.07754 17.2295 8.59597 17.5252 9.16624H17.7771H18.709C18.5986 7.49265 17.8688 5.98124 16.7482 4.86065C15.5293 3.64235 13.8484 2.88531 11.9993 2.88531C10.1503 2.88531 8.46939 3.64168 7.25042 4.86065C6.12983 5.98124 5.40004 7.49265 5.28971 9.16624H6.47345C6.76922 8.59597 7.15073 8.07754 7.60003 7.62758C8.72594 6.50166 10.2819 5.80511 11.9987 5.80511H12ZM12.4433 14.4502V15.2797H11.5567V14.4502H12.4433ZM9.73289 10.7587C9.73289 10.1346 9.98678 9.56702 10.3969 9.15693C10.807 8.74551 11.3739 8.49095 12 8.49095C12.6254 8.49095 13.1924 8.74485 13.6025 9.15494C14.0126 9.56702 14.2665 10.1333 14.2665 10.7581C14.2665 11.2446 14.1116 11.6972 13.8477 12.0688C13.5792 12.4476 13.1944 12.7414 12.7471 12.8976C12.6527 12.9301 12.5756 12.9886 12.5231 13.0624C12.4719 13.1349 12.4427 13.2266 12.4427 13.3276V14.0069H11.556V13.3276C11.556 13.0411 11.6451 12.772 11.8026 12.55C11.9588 12.33 12.1834 12.1578 12.4553 12.0628C12.7278 11.9677 12.9624 11.7883 13.1272 11.5556C13.2861 11.3317 13.3798 11.0565 13.3798 10.7574C13.3798 10.3752 13.2256 10.0296 12.9764 9.77971C12.7265 9.53113 12.3808 9.37627 11.9993 9.37627C11.6178 9.37627 11.2722 9.53113 11.023 9.78037C10.7731 10.0289 10.6189 10.3752 10.6189 10.7574H9.73222L9.73289 10.7587ZM11.8431 20.1781C11.6005 20.1781 11.3799 20.2765 11.2204 20.436C11.0615 20.5949 10.9632 20.8155 10.9632 21.0581C10.9632 21.302 11.0615 21.522 11.2197 21.6816C11.3786 21.8398 11.5992 21.9381 11.8431 21.9381C12.0857 21.9381 12.3071 21.8398 12.4659 21.6809C12.6248 21.5227 12.7231 21.302 12.7231 21.0581C12.7231 20.8142 12.6248 20.5942 12.4666 20.4347C12.3071 20.2765 12.0864 20.1781 11.8431 20.1781ZM10.5943 19.8092C10.914 19.4896 11.356 19.2915 11.8431 19.2915C12.3303 19.2915 12.7723 19.4896 13.092 19.8092C13.3114 20.0292 13.4729 20.3064 13.5533 20.6148H16.953C17.4408 20.6148 17.8835 20.4161 18.2045 20.095C18.5255 19.774 18.7242 19.3314 18.7242 18.8435V16.7598H17.3345V15.2285C17.0719 15.6645 16.7576 16.0659 16.3993 16.4242C15.2734 17.5514 13.7175 18.248 12.0007 18.248C10.2839 18.248 8.72794 17.5514 7.60202 16.4255C7.24378 16.0673 6.9294 15.6658 6.66686 15.2292V16.7605H3V9.1669H3.44332H4.40307C4.51473 7.24939 5.34421 5.51599 6.62499 4.23521C8.00414 2.85607 9.90702 2 12 2C14.093 2 15.9959 2.85607 17.375 4.23521C18.6558 5.51665 19.4859 7.24939 19.5969 9.1669H21V16.7605H19.6102V18.8442C19.6102 19.576 19.3118 20.2413 18.8306 20.7225C18.3494 21.2037 17.6847 21.5021 16.9523 21.5021H13.5526C13.4722 21.8105 13.3107 22.087 13.0914 22.3063C12.7717 22.6274 12.3297 22.8254 11.8425 22.8254C11.3566 22.8254 10.9153 22.6274 10.5949 22.3077C10.2739 21.986 10.0758 21.5446 10.0758 21.0588C10.0758 20.5716 10.2739 20.1296 10.5936 19.8099L10.5943 19.8092ZM18.2204 15.8732H20.114V10.0529H18.2204C18.2204 11.993 18.2204 13.9331 18.2204 15.8732ZM17.3338 12.0455C17.3338 10.6125 16.7868 9.26859 15.7725 8.25367C14.8081 7.28927 13.4735 6.69175 12 6.69175C10.5265 6.69175 9.19253 7.28861 8.22746 8.25367C7.22317 9.25796 6.66553 10.6072 6.66553 12.0269C6.66553 13.4459 7.2245 14.7951 8.22746 15.7988C9.19253 16.7638 10.5265 17.3607 12 17.3607C13.4735 17.3607 14.8075 16.7638 15.7725 15.7988C16.7669 14.8051 17.3338 13.4526 17.3338 12.0455ZM5.77956 10.0529H3.88598V15.8732H5.77956C5.77956 13.9331 5.77956 11.993 5.77956 10.0529Z" fill="#2C2C2C"/>
</svg>
