<svg width="25" height="26" viewBox="0 0 25 26" fill="none" xmlns="http://www.w3.org/2000/svg">
<path d="M5.20833 23.4166C4.63542 23.4166 4.14514 23.2128 3.7375 22.8051C3.32986 22.3975 3.12569 21.9069 3.125 21.3333V6.74992C3.125 6.177 3.32917 5.68672 3.7375 5.27909C4.14583 4.87145 4.63611 4.66728 5.20833 4.66659H6.25V2.58325H8.33333V4.66659H16.6667V2.58325H18.75V4.66659H19.7917C20.3646 4.66659 20.8552 4.87075 21.2635 5.27909C21.6719 5.68742 21.8757 6.1777 21.875 6.74992V21.3333C21.875 21.9062 21.6712 22.3968 21.2635 22.8051C20.8559 23.2135 20.3653 23.4173 19.7917 23.4166H5.20833ZM5.20833 21.3333H19.7917V10.9166H5.20833V21.3333Z" fill="#333333"/>
</svg>
