<svg width="20" height="20" viewBox="0 0 20 20" fill="none" xmlns="http://www.w3.org/2000/svg">
<path d="M6.66667 18.3334V9.16669L5 6.66669V1.66669H15V6.66669L13.3333 9.16669V18.3334H6.66667ZM10 12.9167C9.65278 12.9167 9.35764 12.7952 9.11458 12.5521C8.87153 12.309 8.75 12.0139 8.75 11.6667C8.75 11.3195 8.87153 11.0243 9.11458 10.7813C9.35764 10.5382 9.65278 10.4167 10 10.4167C10.3472 10.4167 10.6424 10.5382 10.8854 10.7813C11.1285 11.0243 11.25 11.3195 11.25 11.6667C11.25 12.0139 11.1285 12.309 10.8854 12.5521C10.6424 12.7952 10.3472 12.9167 10 12.9167ZM6.66667 4.16669H13.3333V3.33335H6.66667V4.16669ZM13.3333 5.83335H6.66667V6.16669L8.33333 8.66669V16.6667H11.6667V8.66669L13.3333 6.16669V5.83335Z" fill="white"/>
</svg>
