<svg width="21" height="19" viewBox="0 0 21 19" fill="none" xmlns="http://www.w3.org/2000/svg">
<path d="M16.4822 0H3.71245C1.66534 0 0 1.66534 0 3.71245V15.2875C0 17.3347 1.66534 19 3.71245 19H16.4822C18.5294 19 20.1947 17.3347 20.1947 15.2875V3.71245C20.1947 1.66534 18.5294 0 16.4822 0ZM3.71245 1.31647H16.4822C17.802 1.31647 18.8782 2.3894 18.8782 3.71245V12.9442L15.6463 8.68543C15.2053 8.10618 14.5503 7.78365 13.8065 7.78365C13.0792 7.79023 12.4143 8.13251 11.9865 8.72163L8.62948 13.3359L6.76667 11.6179C5.89451 10.8148 4.57474 10.8082 3.696 11.6014L1.31976 13.7407V3.71245C1.31647 2.3894 2.3894 1.31647 3.71245 1.31647ZM16.4822 17.6802H3.71245C2.45851 17.6802 1.42837 16.7093 1.32635 15.4817C1.36913 15.4587 1.41192 15.4324 1.44812 15.3962L4.57145 12.5822C4.94336 12.2465 5.50286 12.2498 5.86818 12.5888L8.27403 14.807C8.28391 14.8169 8.29378 14.8235 8.30695 14.8301C8.31682 14.8367 8.3234 14.8465 8.33327 14.8531C8.33986 14.8597 8.34973 14.863 8.35631 14.8663C8.37606 14.8794 8.39581 14.8893 8.41555 14.9025C8.4353 14.9123 8.45176 14.9222 8.47151 14.9288C8.49125 14.9354 8.511 14.942 8.53404 14.9486C8.55378 14.9551 8.57682 14.9617 8.59657 14.965C8.61632 14.9683 8.63606 14.9716 8.6591 14.9716C8.67885 14.9749 8.70189 14.9749 8.72163 14.9749C8.74138 14.9749 8.76442 14.9716 8.78417 14.9716C8.80391 14.9683 8.82695 14.9683 8.8467 14.9617C8.86645 14.9584 8.88948 14.9518 8.90923 14.9453C8.92898 14.9387 8.94873 14.9321 8.96847 14.9255C8.98822 14.9189 9.00797 14.9091 9.02771 14.8992C9.04746 14.8893 9.06721 14.8794 9.08366 14.8663C9.10012 14.8564 9.11658 14.8432 9.13303 14.8301C9.15278 14.8169 9.16924 14.8004 9.18569 14.784C9.19227 14.7774 9.19886 14.7741 9.20544 14.7642C9.21531 14.7544 9.2186 14.7445 9.22848 14.7346C9.23835 14.7248 9.24822 14.7149 9.25481 14.705L13.0495 9.49835C13.2306 9.24822 13.5103 9.10341 13.8197 9.10012C14.1356 9.09025 14.4121 9.23506 14.5964 9.4819L18.8519 15.0835C18.8585 15.0934 18.8684 15.0999 18.8782 15.1098V15.2843C18.8782 16.6073 17.8053 17.6802 16.4822 17.6802Z" fill="white"/>
<path d="M7.28329 8.76109C8.51748 8.76109 9.52458 7.75728 9.52458 6.5198C9.52458 5.28231 8.52077 4.2785 7.28329 4.2785C6.0458 4.2785 5.04199 5.28231 5.04199 6.5198C5.04199 7.75728 6.0458 8.76109 7.28329 8.76109ZM7.28329 5.59498C7.79342 5.59498 8.20811 6.00967 8.20811 6.5198C8.20811 7.02993 7.79342 7.44462 7.28329 7.44462C6.77315 7.44462 6.35847 7.02993 6.35847 6.5198C6.35847 6.00967 6.77315 5.59498 7.28329 5.59498Z" fill="white"/>
</svg>
