<svg width="17" height="17" viewBox="0 0 17 17" fill="none" xmlns="http://www.w3.org/2000/svg">
<path d="M9.81769 0.946864C9.27668 0.776189 8.69703 0.6828 8.09806 0.6828C6.34944 0.6828 4.78439 1.47177 3.73779 2.7148L6.42673 4.97544L9.81769 0.946864Z" fill="#1A73E8"/>
<path d="M3.73786 2.71484C2.87577 3.73877 2.40354 5.03457 2.40467 6.37309C2.40467 7.44222 2.6172 8.3117 2.96821 9.08778L6.4268 4.97548L3.73786 2.71484Z" fill="#EA4335"/>
<path d="M8.09804 4.1994C8.51315 4.19978 8.91951 4.31877 9.26926 4.54236C9.61901 4.76595 9.89759 5.08482 10.0722 5.46143C10.2468 5.83804 10.3101 6.2567 10.2548 6.6681C10.1994 7.0795 10.0276 7.46652 9.7597 7.78358L13.1474 3.755C12.4521 2.41528 11.2533 1.40642 9.81445 0.950134L6.42993 4.97871C6.63386 4.73449 6.88899 4.53809 7.17726 4.40341C7.46552 4.26874 7.77987 4.19909 8.09804 4.1994Z" fill="#4285F4"/>
<path d="M8.09805 8.55321C6.89689 8.55321 5.92114 7.57747 5.92114 6.3763C5.91973 5.86485 6.10005 5.36954 6.42994 4.9787L2.96814 9.091C3.56067 10.4017 4.54286 11.4547 5.55403 12.7814L9.75972 7.78357C9.55539 8.02499 9.30085 8.21893 9.01386 8.35185C8.72687 8.48478 8.41433 8.5535 8.09805 8.55321Z" fill="#FBBC04"/>
<path d="M9.67599 14.1436C11.576 11.1745 13.7883 9.82521 13.7883 6.37307C13.7883 5.4263 13.5564 4.53428 13.1475 3.74854L5.55725 12.7814C5.87928 13.2033 6.20453 13.6509 6.52012 14.1468C7.67298 15.9309 7.35417 17 8.09805 17C8.84194 17 8.52313 15.9276 9.67599 14.1436Z" fill="#34A853"/>
</svg>
