<svg width="24" height="24" viewBox="0 0 24 24" fill="none" xmlns="http://www.w3.org/2000/svg">
<g clip-path="url(#clip0_508_937)">
<path d="M17.3999 9.6C17.3999 9.6 17.0399 11.4 14.9999 12C14.9999 12 18.1199 7.08 11.0399 0C11.0399 0 10.0799 5.52 6.95994 9.48C6.95994 9.48 0.359939 17.88 7.43994 22.68C8.63994 23.52 10.1999 23.88 11.6399 23.88C10.7999 23.88 10.0799 23.64 9.35994 23.28C5.39994 20.64 9.11994 15.96 9.11994 15.96C11.0399 13.8 11.3999 10.8 11.3999 10.8C14.7599 14.16 13.6799 17.4 13.6799 17.4C14.8799 17.04 14.9999 15.6 14.9999 15.6C17.0399 18.48 16.0799 21.36 14.8799 22.68C14.1599 23.4 13.1999 23.88 12.1199 24C14.0399 23.88 15.8399 23.04 17.2799 21.72C19.4399 19.2 21.5999 15 17.3999 9.6Z" fill="black"/>
</g>
<defs>
<clipPath id="clip0_508_937">
<rect width="24" height="24" fill="white"/>
</clipPath>
</defs>
</svg>
