<svg width="247" height="140" viewBox="0 0 247 140" fill="none" xmlns="http://www.w3.org/2000/svg">
<g clip-path="url(#clip0_426_2942)">
<mask id="mask0_426_2942" style="mask-type:luminance" maskUnits="userSpaceOnUse" x="0" y="0" width="247" height="140">
<path d="M0 0H247V140H0V0Z" fill="white"/>
</mask>
<g mask="url(#mask0_426_2942)">
<path d="M103.475 10.6677C111.594 10.5868 119.022 12.8645 125.655 17.4427C134.101 23.2721 139.417 31.2115 141.546 41.2711C142.976 48.028 141.905 54.4281 139.384 60.7245C135.639 70.0781 130.571 78.7265 125.151 87.1886C118.715 97.2387 111.723 106.9 104.354 116.294C104.106 116.611 103.978 117.105 103.448 117.145C103.1 116.559 103.06 115.914 103.06 115.253C103.062 104.568 103.06 93.8819 103.064 83.1958C103.064 82.7072 103.051 82.2156 103.184 81.74C103.388 81.0906 103.966 81.0988 104.489 81.0405C107.553 80.6998 110.605 80.3297 113.568 79.4088C119.61 77.5302 124.681 74.2075 128.795 69.4438C133.091 64.4691 135.689 58.7192 136.335 52.2071C136.937 46.1338 136.133 40.2218 133.282 34.7244C127.785 24.1247 118.966 18.211 107.119 16.6363C106.261 16.5226 105.394 16.6126 104.532 16.5749C103.941 16.5494 103.356 16.5036 103.173 15.7807C102.999 14.4508 103.097 13.117 103.098 11.7853C103.098 11.378 103.156 10.9755 103.475 10.6677Z" fill="#2D95D2"/>
<path d="M103.475 10.6677C103.465 12.4537 103.454 14.2402 103.442 16.0263C102.724 16.4988 101.888 16.5075 101.082 16.5663C91.8166 17.2421 84.1417 21.033 78.0622 28.0237C73.7686 32.9604 71.2259 38.6865 70.5689 45.129C69.6614 54.0338 71.9609 62.0808 77.7768 69.0383C82.4425 74.6191 88.3578 78.2293 95.4149 80.0171C97.2457 80.481 99.1165 80.7443 101.01 80.823C101.865 80.8584 102.736 80.858 103.476 81.3946C103.467 93.3116 103.458 105.228 103.448 117.145C101.452 115.088 99.8471 112.721 98.1345 110.446C90.4926 100.296 83.2063 89.9025 76.7665 78.9505C72.7953 72.1971 69.095 65.3044 66.5942 57.8502C65.4514 54.4441 64.5888 50.9654 64.7465 47.3483C65.1177 38.8408 67.9113 31.2175 73.4222 24.6336C79.2168 17.7112 86.5972 13.3733 95.4337 11.4818C98.073 10.9167 100.761 10.6063 103.475 10.6677Z" fill="#56B5E6"/>
<path d="M103.476 81.3946C97.7678 81.1361 92.2621 80.0388 87.2348 77.2298C81.777 74.1804 77.3784 70.0375 74.258 64.5838C72.04 60.7082 70.6144 56.5679 70.2031 52.1665C69.6964 46.74 70.292 41.4026 72.5075 36.3337C76.0569 28.211 81.8916 22.3608 90.0976 18.8358C93.6672 17.3023 97.3691 16.4107 101.255 16.2529C101.987 16.2231 102.691 15.8988 103.443 16.0264C103.771 16.3896 104.209 16.2503 104.604 16.2547C112.42 16.3338 119.226 19.0481 125.199 23.9757C131.382 29.0775 135.2 35.6073 136.429 43.4278C137.856 52.4995 135.868 60.8647 130.172 68.2657C126.278 73.326 121.319 76.9172 115.349 79.1537C112.353 80.2761 109.244 80.9606 106.034 81.1517C105.18 81.2022 104.345 81.4746 103.476 81.3946Z" fill="#72C8F0"/>
<path d="M103.039 80.1908C95.2692 80.0096 88.358 77.553 82.3674 72.5701C76.5254 67.7109 73.0416 61.5165 71.637 54.1327C70.3661 47.4524 71.2998 41.0138 74.3504 34.9837C78.9264 25.9401 86.2985 20.2028 96.2582 18.0207C105.846 15.9198 114.824 17.7245 122.745 23.4627C129.952 28.6838 134.399 35.8354 135.474 44.6896C136.844 55.962 132.917 65.3852 124.285 72.7366C119.321 76.9633 113.424 79.3274 106.854 79.9582C105.583 80.0805 104.321 80.1419 103.039 80.1908Z" fill="#1886C7"/>
<path d="M99.9862 55.1831C100.388 55.9829 100.452 56.9164 100.984 57.6644C102.076 58.7314 103.389 58.9528 104.848 58.702C106.007 58.5027 106.336 58.0418 105.922 56.9376C104.495 53.1281 103.244 49.2564 101.79 45.4555C100.845 42.9868 100.025 40.4718 99.1444 37.9788C98.8983 37.2814 98.5497 36.6463 98.0592 36.089C97.8644 35.5135 97.4906 35.312 96.8584 35.341C95.3418 35.4106 93.5477 34.9117 92.3818 35.5589C91.2582 36.1824 91.2307 38.128 90.745 39.4972C87.5732 48.4401 84.438 57.3959 81.2894 66.3474C81.2262 66.5272 81.1478 66.7023 81.0628 66.9133C75.3994 61.1738 71.9588 50.0852 75.6281 39.5729C79.7004 27.9045 90.7484 20.2349 103.341 20.1078C115.946 19.9807 125.879 28.0389 129.259 35.3566C128.773 35.3566 128.335 35.3566 127.896 35.3566C121.071 35.3566 114.245 35.3773 107.419 35.3345C106.428 35.328 105.984 35.5282 106.11 36.5888C106.195 37.3134 106.128 38.0558 106.121 38.7903C106.118 39.1747 106.117 39.5457 106.65 39.5642C107.522 40.2534 108.523 40.4328 109.619 40.4164C110.448 40.4043 111.335 40.1756 112.097 40.7441C112.111 46.0197 112.123 51.2953 112.145 56.5709C112.147 57.0556 111.934 57.7063 112.82 57.6743C113.919 58.4742 115.154 58.2632 116.371 58.1235C116.863 58.0669 116.996 57.6557 117.072 57.2368C117.159 56.753 117.144 56.264 117.145 55.7763C117.147 51.5055 117.135 47.2347 117.151 42.9639C117.159 40.7061 117.737 40.061 119.988 40.1423C123.265 40.2603 126.537 40.0433 129.811 40.1259C130.457 40.1423 131.152 40.0537 131.569 40.7346C132.732 44.0179 133.074 47.4206 132.731 50.8479C131.467 63.4471 123.277 73.1228 110.973 76.3075C102.205 78.577 93.9803 77.0698 86.4587 71.9995C86.0888 71.7505 85.7673 71.4306 85.4227 71.1439C85.2079 70.4833 85.6383 69.961 85.8396 69.4071C87.4124 65.0832 88.7792 60.6883 90.3833 56.3742C90.8787 55.0426 91.7283 54.3845 93.1216 54.3681C94.8029 54.3486 96.4846 54.3326 98.1655 54.378C98.8691 54.3966 99.5697 54.4917 99.9862 55.1831Z" fill="white"/>
<path d="M131.569 40.7348C131.161 40.4892 130.708 40.513 130.255 40.5134C126.621 40.5164 122.987 40.5121 119.352 40.5195C117.943 40.5225 117.524 40.9367 117.523 42.3354C117.517 47.0982 117.523 51.861 117.52 56.6239C117.519 58.4449 117.326 58.6304 115.467 58.6291C114.933 58.6291 114.398 58.6525 113.868 58.6153C113.292 58.5755 112.821 58.3684 112.82 57.674C113.188 57.6615 113.556 57.6377 113.924 57.6377C116.587 57.6377 116.587 57.639 116.587 54.9364C116.587 50.2168 116.618 45.4963 116.563 40.7772C116.551 39.7395 116.876 39.4874 117.88 39.5004C121.939 39.5532 125.999 39.5519 130.057 39.4974C131.028 39.4844 131.524 39.7676 131.569 40.7348Z" fill="#BAB9BA"/>
<path d="M99.9862 55.1831C98.6478 54.439 97.1852 54.736 95.7727 54.73C90.5811 54.7092 91.5375 54.298 89.8549 58.9316C88.5422 62.547 87.3419 66.2021 86.0732 69.8335C85.9137 70.29 85.6423 70.7077 85.4227 71.1439C84.7835 70.952 84.5988 70.5576 84.8206 69.9268C86.6391 64.7507 88.4528 59.5732 90.2548 54.3914C90.4269 53.896 90.6949 53.7066 91.2368 53.7122C93.7416 53.739 96.2472 53.7507 98.7515 53.7109C99.8581 53.6932 99.7845 54.522 99.9862 55.1831Z" fill="#BBB9B9"/>
<path d="M98.0593 36.0889C99.2923 36.4962 99.3903 37.6873 99.7302 38.635C101.785 44.3646 103.658 50.1616 105.837 55.8441C107.052 59.0137 106.298 59.0643 103.415 59.088C102.353 59.0967 101.353 58.8796 100.985 57.6643C102.174 57.6621 103.369 57.5994 104.554 57.6751C105.567 57.74 105.707 57.465 105.368 56.5389C103.257 50.7687 101.193 44.9816 99.1198 39.1975C98.7503 38.1668 98.4118 37.1252 98.0593 36.0889Z" fill="#D3D1D1"/>
<path d="M95.7953 42.9601C96.4715 44.9096 97.1263 46.8668 97.8373 48.8038C98.0613 49.4147 97.938 49.5851 97.3001 49.566C95.9129 49.5237 94.524 49.5276 93.1359 49.5129C92.7939 49.1765 93.04 48.8306 93.1289 48.4947C93.5132 47.0402 94.0752 45.6424 94.5414 44.2139C94.7322 43.6276 94.9196 42.9238 95.7953 42.9601Z" fill="#FBFBFB"/>
<path d="M95.7953 42.9601C95.2193 43.2312 95.0119 43.7591 94.8329 44.3103C94.2691 46.045 93.7018 47.7787 93.1359 49.5129C92.4087 49.6223 91.9182 49.6292 92.2868 48.6062C93.2056 46.0566 94.0356 43.475 94.9444 40.7776C95.4481 41.5126 95.6655 42.2182 95.7953 42.9601Z" fill="#BAB8B9"/>
<path d="M112.097 40.744C110.873 40.7418 109.65 40.7526 108.427 40.7323C107.598 40.7184 106.9 40.466 106.65 39.5641C108.081 39.552 109.516 39.5935 110.943 39.5092C111.932 39.4512 112.317 39.7742 112.097 40.744Z" fill="#C2C0C0"/>
<path d="M222.305 135.11C222.075 135.15 222.035 135.164 221.994 135.164C220.393 135.161 218.62 135.581 217.239 135.033C215.854 134.482 215.19 132.701 214.209 131.461C212.439 129.223 210.699 126.961 208.942 124.702C208.512 124.949 208.69 125.313 208.688 125.596C208.67 128.49 208.658 131.384 208.686 134.278C208.692 134.941 208.536 135.237 207.804 135.193C206.822 135.134 205.831 135.132 204.849 135.187C204.158 135.226 204.052 134.94 204.053 134.338C204.071 127.123 204.074 119.909 204.05 112.694C204.047 112.019 204.281 111.85 204.898 111.902C205.429 111.947 205.966 111.911 206.5 111.911C208.66 111.911 208.665 111.911 208.671 114.125C208.677 116.649 208.672 119.173 208.672 122.062C209.474 121.083 210.085 120.359 210.672 119.617C212.546 117.248 214.411 114.87 216.283 112.498C216.502 112.219 216.659 111.895 217.127 111.903C218.672 111.929 220.217 111.913 222.011 111.913C220.945 113.315 220.026 114.538 219.092 115.749C217.371 117.982 215.669 120.229 213.899 122.422C213.414 123.023 213.442 123.406 213.89 123.988C216.451 127.323 218.978 130.685 221.515 134.039C221.754 134.355 221.986 134.677 222.305 135.11Z" fill="#434647"/>
<path d="M177.308 123.494C177.396 118.295 180.148 114.124 184.752 112.291C189.386 110.446 194.905 111.59 198.245 115.087C199.83 116.747 199.83 116.747 197.887 117.871C197.852 117.891 197.821 117.919 197.785 117.939C197.144 118.299 196.526 118.885 195.853 118.957C195.072 119.041 194.895 118.001 194.334 117.554C191.966 115.663 189.338 115.364 186.574 116.349C183.687 117.377 182.249 119.637 181.943 122.561C181.632 125.532 182.419 128.211 185.021 129.961C187.551 131.663 190.304 131.734 193.069 130.421C193.978 129.99 194.719 129.333 195.26 128.502C195.569 128.028 195.826 128.048 196.243 128.304C197.078 128.816 197.91 129.342 198.787 129.775C199.509 130.132 199.508 130.483 199.058 131.072C196.887 133.915 193.951 135.384 190.435 135.638C183.99 136.103 178.905 132.283 177.557 126.039C177.378 125.211 177.387 124.344 177.308 123.494Z" fill="#434647"/>
<path d="M122.172 125.756C122.172 128.57 122.14 131.384 122.192 134.196C122.208 135.015 121.954 135.246 121.162 135.191C120.018 135.113 118.488 135.568 117.818 134.995C117.04 134.33 117.583 132.771 117.574 131.604C117.541 127.037 117.519 122.469 117.579 117.903C117.595 116.695 117.345 116.159 115.994 116.298C114.694 116.431 113.367 116.299 112.053 116.332C111.478 116.347 111.249 116.189 111.281 115.585C111.341 114.411 110.907 112.917 111.482 112.147C112.034 111.407 113.628 111.931 114.761 111.923C118.993 111.894 123.225 111.933 127.458 111.893C128.285 111.885 128.657 112.048 128.566 112.944C128.454 114.028 129.009 115.423 128.353 116.125C127.741 116.781 126.332 116.251 125.277 116.33C124.268 116.406 122.928 115.876 122.343 116.56C121.85 117.137 122.181 118.423 122.176 119.395C122.165 121.515 122.172 123.636 122.172 125.756Z" fill="#434647"/>
<path d="M42.4046 123.486C42.4046 120.021 42.4452 116.555 42.3794 113.092C42.3606 112.087 42.6992 111.789 43.6363 111.902C44.0811 111.956 44.5386 111.911 44.9904 111.911C47.0259 111.911 47.0438 111.911 47.0472 114.004C47.0573 119.996 47.0516 125.988 47.052 131.98C47.052 135.2 47.0507 135.141 43.7705 135.207C42.5828 135.231 42.3624 134.822 42.3815 133.757C42.4434 130.334 42.4046 126.909 42.4046 123.486Z" fill="#57B5E6"/>
<path d="M74.8164 119.194C75.7192 121.987 78.0927 122.871 80.567 123.361C85.5677 124.351 90.24 123.145 94.6673 120.824C95.7517 120.255 96.5634 119.406 96.9451 118.189C98.4434 120.425 97.8853 122.435 95.3941 123.913C93.5489 125.008 91.4951 125.498 89.4039 125.556C85.8278 125.654 82.2761 125.296 78.8526 124.16C77.5207 123.719 76.2629 123.107 75.2787 122.072C74.4827 121.234 74.1263 120.302 74.8164 119.194Z" fill="#57B5E6"/>
<path d="M85.3803 116.093C83.8663 116.158 82.1684 115.966 80.5311 115.351C79.8645 115.101 79.1147 114.814 79.0001 114.081C78.8773 113.293 79.7173 113.058 80.261 112.767C84.1599 110.683 88.0828 110.704 91.9926 112.749C92.413 112.969 92.9781 113.168 92.945 113.752C92.9123 114.334 92.4143 114.648 91.9325 114.888C89.9396 115.881 87.7983 116.13 85.3803 116.093Z" fill="#57B5E6"/>
<path d="M77.3438 115.138C77.6214 117.005 79.0112 118.21 81.3669 118.48C85.1817 118.917 88.8767 118.413 92.3687 116.758C93.3006 116.316 94.1947 115.798 94.5384 114.711C96.8789 116.696 96.6153 118.435 93.8831 119.581C91.0577 120.766 88.0964 120.623 85.1573 120.396C83.3314 120.255 81.4824 120.086 79.7174 119.515C79.019 119.289 78.3132 119.056 77.6588 118.732C75.548 117.687 75.4621 116.88 77.3438 115.138Z" fill="#57B5E6"/>
<path d="M98.1207 121.888C98.2676 126.017 96.5667 128.167 92.3087 129.357C86.9464 130.855 81.8263 129.905 76.9671 127.453C75.478 126.701 74.2385 125.517 74.0655 123.616C75.2179 125.718 77.0185 126.881 79.2636 127.623C82.8244 128.799 86.2937 128.254 89.7849 127.44C91.4627 127.049 93.0873 126.516 94.6183 125.702C96.1384 124.893 97.36 123.826 98.1207 121.888Z" fill="#57B5E6"/>
<path d="M97.6169 126.793C97.3241 127.906 96.9211 128.947 96.078 129.762C93.257 132.489 89.8387 133.471 85.9633 133.292C83.5849 133.181 81.3568 132.568 79.178 131.703C77.6675 131.104 76.4297 130.146 75.5283 128.748C78.7484 131.822 82.7222 132.228 86.8102 131.678C90.8455 131.136 94.8124 130.199 97.6169 126.793Z" fill="#58B6E6"/>
<path d="M79.7262 133.255C84.7235 134.802 89.4999 134.632 94.1987 131.941C91.0335 135.613 83.6121 136.343 79.7262 133.255Z" fill="#5EB7E6"/>
<path d="M142.18 123.167C140.865 123.194 139.547 123.132 138.234 123.186C137.503 123.217 137.321 122.946 137.36 122.274C137.412 121.38 137.373 120.48 137.373 119.582H137.382C137.382 118.644 137.404 117.705 137.373 116.767C137.355 116.232 137.561 116.064 138.088 116.075C139.485 116.103 140.886 116.037 142.282 116.097C144.035 116.173 145.399 117.848 145.338 119.747C145.279 121.605 143.887 123.133 142.18 123.167ZM145.907 127.302C145.535 126.691 145.543 126.419 146.219 125.999C149.312 124.079 150.597 120.755 149.62 117.465C148.641 114.167 145.619 111.934 142.072 111.915C139.318 111.9 136.562 111.951 133.809 111.889C132.921 111.869 132.738 112.137 132.743 112.975C132.78 119.176 132.751 125.377 132.774 131.579C132.779 132.746 132.241 134.388 132.989 134.958C133.774 135.556 135.341 135.118 136.564 135.188C137.237 135.226 137.395 134.955 137.384 134.338C137.351 132.544 137.371 130.748 137.373 128.953C137.376 127.1 137.385 127.198 139.251 127.066C140.512 126.976 141.153 127.444 141.719 128.499C142.796 130.507 144.015 132.441 145.179 134.404C145.4 134.777 145.534 135.202 146.139 135.185C147.563 135.145 148.99 135.172 150.59 135.172C148.98 132.456 147.467 129.865 145.907 127.302Z" fill="#434647"/>
<path d="M62.0549 123.174C60.9069 123.177 59.7572 123.134 58.6113 123.185C57.8367 123.22 57.6097 122.911 57.6485 122.188C57.696 121.296 57.6598 120.398 57.6598 119.314C57.7513 118.418 57.1914 117.004 57.8864 116.326C58.6327 115.598 60.0709 116.112 61.2041 116.094C63.7959 116.055 64.8167 116.686 65.414 118.573C66.1569 120.921 64.5178 123.168 62.0549 123.174ZM70.0697 133.876C68.8067 131.73 67.5519 129.579 66.2532 127.455C65.8397 126.779 65.8197 126.412 66.5895 125.92C69.597 123.998 70.8444 120.66 69.8702 117.454C68.8834 114.206 65.8889 111.96 62.4113 111.919C59.6574 111.886 56.9021 111.953 54.1495 111.889C53.2023 111.868 52.9884 112.17 52.9941 113.066C53.0316 119.266 53.0002 125.466 53.0263 131.667C53.0307 132.793 52.5144 134.257 53.2568 134.958C53.9879 135.647 55.4548 135.078 56.5902 135.189C57.4955 135.277 57.696 134.883 57.6764 134.062C57.6289 132.064 57.6594 130.065 57.6703 128.066C57.672 127.754 57.574 127.392 57.9086 127.169C58.6832 126.654 61.2376 127.266 61.7291 128.097C62.9551 130.169 64.1636 132.251 65.3875 134.324C65.6297 134.734 65.8057 135.198 66.4527 135.182C67.8351 135.148 69.2197 135.172 70.6217 135.172C70.6235 134.583 70.2906 134.251 70.0697 133.876Z" fill="#56B5E6"/>
<path d="M165.357 126.6C164.043 126.599 162.729 126.593 161.416 126.585C161.336 126.585 161.256 126.551 161.142 126.524C161.15 126.37 161.123 126.201 161.171 126.056C162.142 123.175 163.12 120.297 164.202 117.11C165.125 119.797 165.959 122.202 166.779 124.612C167.454 126.598 167.447 126.603 165.357 126.6ZM167.325 112.612C167.125 112.041 166.824 111.883 166.249 111.9C164.936 111.938 163.619 111.96 162.308 111.893C161.554 111.855 161.249 112.125 161.012 112.82C159.767 116.456 158.461 120.071 157.181 123.695C155.928 127.243 154.676 130.792 153.433 134.344C153.335 134.625 152.88 135.117 153.588 135.144C155.061 135.2 156.631 135.427 157.978 135.007C158.714 134.777 158.664 133.223 159.026 132.286C159.084 132.135 159.148 131.981 159.176 131.823C159.317 131.041 159.674 130.684 160.575 130.745C162.047 130.845 163.531 130.766 165.009 130.774C166.24 130.78 167.728 130.384 168.632 130.931C169.601 131.518 169.571 133.164 170.021 134.332C170.05 134.407 170.06 134.489 170.083 134.567C170.211 135.004 170.456 135.202 170.962 135.187C172.354 135.148 173.749 135.174 175.145 135.174C175.186 134.957 175.21 134.911 175.198 134.878C172.571 127.457 169.936 120.039 167.325 112.612Z" fill="#434647"/>
<path d="M29.859 126.606C28.2561 126.585 26.6532 126.586 25.0504 126.598C24.4822 126.602 24.3154 126.39 24.4988 125.853C25.4577 123.048 26.4067 120.24 27.359 117.433C27.4436 117.447 27.5281 117.461 27.6126 117.475C28.548 120.25 29.4717 123.029 30.428 125.797C30.6358 126.399 30.5003 126.615 29.859 126.606ZM38.2524 134.175C35.6984 127.09 33.178 119.993 30.6724 112.89C30.4188 112.171 30.0672 111.847 29.2617 111.894C28.0736 111.963 26.8737 111.979 25.6882 111.89C24.7981 111.823 24.4422 112.207 24.223 112.975C23.9782 113.833 23.6514 114.668 23.3525 115.511C21.1502 121.717 18.9548 127.926 16.7297 134.124C16.4518 134.9 16.5015 135.25 17.4464 135.185C18.3052 135.126 19.1787 135.11 20.0331 135.196C21.0081 135.294 21.5475 135.016 21.7375 133.998C21.8856 133.204 22.2655 132.456 22.4642 131.669C22.6472 130.941 23.0489 130.739 23.7804 130.757C25.7932 130.805 27.8087 130.746 29.8224 130.779C32.5567 130.825 31.8762 130.286 32.8051 132.939C33.5862 135.169 33.564 135.177 35.9851 135.178C36.4783 135.178 36.9736 135.149 37.4642 135.185C38.2667 135.242 38.58 135.084 38.2524 134.175Z" fill="#56B5E6"/>
<path d="M224.997 97.0655C221.536 97.0655 218.72 99.8598 218.72 103.295C218.72 106.73 221.536 109.524 224.997 109.524C228.458 109.524 231.273 106.73 231.273 103.295C231.273 99.8598 228.458 97.0655 224.997 97.0655ZM224.997 110.534C220.974 110.534 217.702 107.287 217.702 103.295C217.702 99.3025 220.974 96.0555 224.997 96.0555C229.019 96.0555 232.291 99.3025 232.291 103.295C232.291 107.287 229.019 110.534 224.997 110.534Z" fill="#434647"/>
</g>
<path d="M221.268 102.244V101.611H224.255V102.244H223.142V105.247H222.382V102.244H221.268ZM224.747 101.611H225.695L226.696 104.054H226.739L227.74 101.611H228.689V105.247H227.943V102.88H227.913L226.972 105.229H226.464L225.523 102.871H225.493V105.247H224.747V101.611Z" fill="#434647"/>
</g>
<defs>
<clipPath id="clip0_426_2942">
<rect width="247" height="140" fill="white"/>
</clipPath>
</defs>
</svg>
