<svg width="191" height="192" viewBox="0 0 191 192" fill="none" xmlns="http://www.w3.org/2000/svg">
<path d="M175.852 24.2663L174.798 22.5303C165.892 7.86114 149.795 -0.988118 132.821 0.088202C130.633 0.21876 128.457 0.508864 126.311 0.956202C110.878 4.25894 97.4545 15.9292 91.8862 30.8762C88.6139 39.6647 87.6981 49.7855 81.4702 56.7643C73.3848 65.8436 59.6617 66.13 47.5922 65.7524C35.5227 65.3748 21.7952 65.696 13.7402 74.8143C8.70147 80.5214 7.10001 88.6416 7.50797 96.2843C8.57995 116.53 22.698 134.628 40.6265 143.625C58.555 152.622 79.6865 153.425 99.3163 149.471C126.819 143.924 152.972 128.7 168.696 105.203C184.419 81.7063 188.434 49.6467 175.852 24.2663Z" fill="#EBEBEB"/>
<path d="M190.795 191.686C190.795 191.747 148.081 191.799 95.4019 191.799C42.723 191.799 0 191.747 0 191.686C0 191.625 42.7056 191.573 95.4019 191.573C148.098 191.573 190.795 191.621 190.795 191.686Z" fill="#263238"/>
<path d="M124.701 145.127L80.8673 145.096C75.5986 145.096 71.3193 140.604 71.3193 135.067V19.6225C71.3193 14.0847 75.5986 9.5928 80.8673 9.59714L124.68 9.62318C129.953 9.62318 134.228 14.1151 134.228 19.6529L134.206 135.097C134.249 140.639 129.974 145.127 124.701 145.127Z" fill="#263238"/>
<path d="M124.688 13.7115H116.191C115.617 13.7396 115.078 13.9938 114.692 14.4184C114.306 14.843 114.103 15.4034 114.129 15.9769V17.5958C114.155 18.17 113.952 18.731 113.565 19.1558C113.178 19.5805 112.638 19.8342 112.063 19.8612H95.5062C94.932 19.8331 94.3925 19.5783 94.006 19.1528C93.6194 18.7272 93.4176 18.1657 93.4447 17.5914V15.9769C93.4707 15.4034 93.2683 14.843 92.8819 14.4184C92.4955 13.9938 91.9566 13.7396 91.3832 13.7115H80.9672C77.2739 13.7115 74.2793 16.858 74.2793 20.7379V133.413C74.2793 137.289 77.2696 140.435 80.9586 140.439L124.688 140.465C128.382 140.465 131.376 137.323 131.376 133.443L131.368 20.7509C131.368 16.8449 128.382 13.7115 124.688 13.7115Z" fill="white"/>
<path d="M86.1971 129.802V132.558C86.1967 132.612 86.182 132.665 86.1544 132.711C86.1268 132.758 86.0873 132.796 86.04 132.822C85.9926 132.848 85.9392 132.861 85.8852 132.86C85.8312 132.858 85.7785 132.843 85.7327 132.814L83.5627 131.434C83.5197 131.407 83.4843 131.369 83.4597 131.324C83.4352 131.279 83.4224 131.229 83.4224 131.178C83.4224 131.127 83.4352 131.077 83.4597 131.032C83.4843 130.987 83.5197 130.949 83.5627 130.922L85.7327 129.542C85.7789 129.513 85.8319 129.497 85.8863 129.496C85.9407 129.495 85.9944 129.508 86.0419 129.535C86.0893 129.561 86.1287 129.6 86.156 129.647C86.1833 129.694 86.1975 129.748 86.1971 129.802Z" fill="#E0E0E0"/>
<path d="M104.017 131.152C104.016 131.528 103.904 131.895 103.694 132.207C103.485 132.519 103.188 132.762 102.84 132.905C102.493 133.048 102.111 133.085 101.742 133.011C101.374 132.938 101.036 132.756 100.77 132.49C100.505 132.224 100.324 131.885 100.251 131.517C100.178 131.148 100.216 130.766 100.36 130.419C100.504 130.072 100.748 129.775 101.06 129.567C101.373 129.358 101.74 129.247 102.116 129.247C102.62 129.248 103.104 129.449 103.46 129.806C103.817 130.163 104.017 130.647 104.017 131.152Z" fill="#E0E0E0"/>
<path d="M120.366 129.494H118.482C118.034 129.494 117.67 129.857 117.67 130.306V132.198C117.67 132.646 118.034 133.009 118.482 133.009H120.366C120.814 133.009 121.177 132.646 121.177 132.198V130.306C121.177 129.857 120.814 129.494 120.366 129.494Z" fill="#E0E0E0"/>
<path d="M123.954 68.5607C126.754 56.9718 119.629 45.3077 108.04 42.5084C96.4506 39.709 84.7866 46.8343 81.9872 58.4233C79.1878 70.0122 86.3132 81.6763 97.9021 84.4756C109.491 87.275 121.155 80.1497 123.954 68.5607Z" fill="#F4F4F4"/>
<path d="M103.935 72.9959C103.934 73.3488 103.828 73.6936 103.631 73.9866C103.434 74.2795 103.155 74.5075 102.828 74.6415C102.502 74.7756 102.143 74.8098 101.797 74.7398C101.451 74.6698 101.134 74.4987 100.885 74.2482C100.636 73.9977 100.468 73.679 100.4 73.3326C100.333 72.9861 100.369 72.6274 100.506 72.3019C100.642 71.9764 100.872 71.6986 101.167 71.5039C101.461 71.3091 101.807 71.2061 102.16 71.2078C102.632 71.2112 103.083 71.4011 103.416 71.7361C103.748 72.071 103.935 72.5239 103.935 72.9959Z" fill="#6A6A6A"/>
<path d="M98.5874 70.7043C99.0425 70.2144 99.5923 69.8219 100.203 69.5506C100.815 69.2793 101.474 69.1348 102.143 69.1259C102.812 69.117 103.475 69.2438 104.093 69.4987C104.712 69.7536 105.272 70.1313 105.74 70.6089C106.651 71.5289 108.075 70.1184 107.163 69.1984C106.508 68.5381 105.727 68.0156 104.867 67.6615C104.007 67.3074 103.085 67.129 102.155 67.1367C101.225 67.1443 100.306 67.338 99.4514 67.7062C98.5973 68.0745 97.8254 68.6098 97.1812 69.2808C96.2915 70.2139 97.702 71.6418 98.5961 70.7043H98.5874Z" fill="#6A6A6A"/>
<path d="M92.5287 62.4149C95.2412 60.0713 98.4789 58.5957 102.103 58.5871C105.72 58.5354 109.221 59.8674 111.889 62.3108C112.827 63.1788 114.255 61.7856 113.313 60.9003C110.271 58.0831 106.27 56.5311 102.124 56.5603C97.9537 56.5603 94.2474 58.2963 91.1269 60.9741C90.1504 61.8204 91.5609 63.2396 92.5418 62.3976L92.5287 62.4149Z" fill="#6A6A6A"/>
<path d="M94.9203 67.0023C95.8246 65.993 96.9283 65.1821 98.1617 64.6207C99.3951 64.0592 100.731 63.7595 102.086 63.7403C103.442 63.7212 104.786 63.983 106.035 64.5093C107.283 65.0356 108.41 65.815 109.342 66.7983C110.245 67.7228 111.668 66.3123 110.766 65.3835C109.647 64.2142 108.3 63.2871 106.808 62.6598C105.316 62.0325 103.711 61.7182 102.093 61.7365C100.475 61.7548 98.8777 62.1053 97.4005 62.7663C95.9233 63.4272 94.5975 64.3845 93.5054 65.5788C92.6374 66.5249 94.0393 67.9528 94.9203 67.0023Z" fill="#6A6A6A"/>
<path d="M119.004 58.6338C119.53 55.6574 117.544 52.8179 114.568 52.2915C111.592 51.7651 108.752 53.7511 108.226 56.7274C107.699 59.7038 109.685 62.5433 112.662 63.0697C115.638 63.5961 118.477 61.6101 119.004 58.6338Z" fill="#56B5E6"/>
<path d="M115.871 56.1503L115.094 55.3739L111.617 58.8509L112.394 59.6273L115.871 56.1503Z" fill="white"/>
<path d="M112.396 55.3699L111.619 56.1463L115.096 59.6233L115.873 58.8469L112.396 55.3699Z" fill="white"/>
<path d="M101.521 25.7637C101.793 25.6004 102.085 25.4735 102.389 25.3861L102.567 24.5181L104.013 24.492L104.221 25.36C104.524 25.437 104.816 25.5537 105.089 25.7072L105.814 25.2212L106.855 26.228L106.4 26.9745C106.563 27.2461 106.69 27.5379 106.777 27.8425L107.645 28.0205L107.671 29.47L106.803 29.674C106.728 29.9772 106.613 30.2691 106.46 30.542L106.938 31.2711L105.935 32.3127L105.189 31.8787C104.917 32.0403 104.625 32.1658 104.321 32.252L104.143 33.12L102.698 33.146L102.489 32.278C102.186 32.2003 101.894 32.0836 101.621 31.9308L100.888 32.4082L99.8462 31.4057L100.302 30.6592C100.138 30.3878 100.011 30.0959 99.9243 29.7912L99.0563 29.6132L99.0303 28.168L99.8983 27.9597C99.9745 27.6567 100.09 27.365 100.241 27.0917L99.7637 26.3582L100.771 25.321L101.517 25.755L101.521 25.7637ZM102.29 27.695C102.076 27.916 101.933 28.1955 101.878 28.4979C101.824 28.8004 101.86 29.1122 101.982 29.3941C102.105 29.6759 102.308 29.9151 102.567 30.0813C102.825 30.2475 103.128 30.3333 103.435 30.3278C103.742 30.3224 104.041 30.2259 104.293 30.0506C104.546 29.8753 104.741 29.629 104.853 29.343C104.966 29.057 104.991 28.744 104.925 28.4437C104.86 28.1434 104.707 27.8692 104.486 27.6559C104.189 27.37 103.791 27.2135 103.38 27.2209C102.968 27.2282 102.576 27.3987 102.29 27.695Z" fill="#E0E0E0"/>
<path d="M83.1675 28.9969C82.7335 28.9969 82.1302 28.9969 81.553 28.9969C80.863 28.9969 80.1729 28.9969 79.6912 28.9969C79.6336 28.9969 79.5784 28.9741 79.5377 28.9334C79.497 28.8927 79.4742 28.8375 79.4742 28.7799C79.4736 28.7517 79.4787 28.7235 79.4891 28.6972C79.4995 28.6709 79.5151 28.647 79.5349 28.6268C79.5547 28.6065 79.5783 28.5905 79.6044 28.5795C79.6305 28.5686 79.6585 28.5629 79.6868 28.5629C80.1686 28.5629 80.8673 28.5629 81.5617 28.5629C82.2561 28.5629 82.9418 28.589 83.4236 28.5629C83.4519 28.5624 83.48 28.5674 83.5063 28.5779C83.5326 28.5883 83.5565 28.6039 83.5768 28.6237C83.597 28.6435 83.613 28.6671 83.624 28.6932C83.6349 28.7193 83.6406 28.7473 83.6406 28.7756C83.6411 28.8041 83.6361 28.8324 83.6257 28.859C83.6153 28.8855 83.5998 28.9098 83.5801 28.9303C83.5603 28.9509 83.5367 28.9673 83.5106 28.9788C83.4845 28.9902 83.4564 28.9964 83.4279 28.9969H83.1675Z" fill="#263238"/>
<path d="M81.0107 30.4552C80.9803 30.4546 80.9503 30.4477 80.9227 30.435C80.8951 30.4223 80.8704 30.4041 80.8501 30.3814L79.5481 28.8928C79.5127 28.8518 79.4932 28.7994 79.4932 28.7452C79.4932 28.691 79.5127 28.6387 79.5481 28.5977L80.8501 27.2436C80.8691 27.2206 80.8926 27.2017 80.9193 27.1882C80.9459 27.1747 80.975 27.1668 81.0048 27.1651C81.0346 27.1633 81.0644 27.1678 81.0925 27.1781C81.1205 27.1884 81.1461 27.2044 81.1676 27.225C81.1892 27.2457 81.2062 27.2706 81.2177 27.2981C81.2292 27.3257 81.2349 27.3553 81.2344 27.3851C81.234 27.415 81.2273 27.4444 81.215 27.4716C81.2026 27.4988 81.1848 27.5231 81.1626 27.5431L80.0125 28.7539L81.2016 30.095C81.2293 30.1264 81.2472 30.1652 81.2533 30.2067C81.2594 30.2481 81.2534 30.2905 81.2359 30.3285C81.2185 30.3666 81.1904 30.3988 81.155 30.4213C81.1197 30.4438 81.0786 30.4556 81.0367 30.4552H81.0107Z" fill="#263238"/>
<path d="M125.747 27.734C126.119 27.734 126.42 27.4328 126.42 27.0613C126.42 26.6898 126.119 26.3886 125.747 26.3886C125.376 26.3886 125.075 26.6898 125.075 27.0613C125.075 27.4328 125.376 27.734 125.747 27.734Z" fill="#263238"/>
<path d="M126.42 29.1879C126.421 29.3222 126.382 29.4537 126.308 29.5657C126.234 29.6777 126.128 29.7651 126.004 29.8169C125.88 29.8687 125.744 29.8825 125.612 29.8565C125.48 29.8305 125.359 29.7659 125.264 29.671C125.169 29.576 125.105 29.455 125.079 29.3233C125.053 29.1915 125.067 29.055 125.118 28.9311C125.17 28.8073 125.258 28.7016 125.37 28.6275C125.482 28.5534 125.613 28.5144 125.747 28.5152C125.926 28.5152 126.097 28.5861 126.223 28.7122C126.349 28.8384 126.42 29.0095 126.42 29.1879Z" fill="#263238"/>
<path d="M125.747 31.9872C126.119 31.9872 126.42 31.686 126.42 31.3145C126.42 30.943 126.119 30.6418 125.747 30.6418C125.376 30.6418 125.075 30.943 125.075 31.3145C125.075 31.686 125.376 31.9872 125.747 31.9872Z" fill="#263238"/>
<path d="M88.3494 93.1812C87.3263 93.2928 86.2965 93.3305 85.268 93.294C84.2409 93.3305 83.2126 93.2928 82.1909 93.1812C83.2126 93.0697 84.2409 93.0319 85.268 93.0684C86.2965 93.0319 87.3263 93.0696 88.3494 93.1812Z" fill="#263238"/>
<path d="M99.4034 100.386C99.4034 100.446 95.6189 100.498 90.9534 100.498C86.2879 100.498 82.5034 100.446 82.5034 100.386C82.5034 100.325 86.2836 100.273 90.9534 100.273C95.6232 100.273 99.4034 100.325 99.4034 100.386Z" fill="#263238"/>
<path d="M99.4034 107.551C99.4034 107.612 95.6189 107.664 90.9534 107.664C86.2879 107.664 82.5034 107.612 82.5034 107.551C82.5034 107.49 86.2836 107.438 90.9534 107.438C95.6232 107.438 99.4034 107.482 99.4034 107.551Z" fill="#263238"/>
<path d="M121.741 97.6818H115.561C114.068 97.6818 112.857 98.8913 112.857 100.383C112.857 101.875 114.068 103.085 115.561 103.085H121.741C123.235 103.085 124.445 101.875 124.445 100.383C124.445 98.8913 123.235 97.6818 121.741 97.6818Z" fill="#EBEBEB"/>
<path d="M117.792 100.386C117.792 100.834 117.659 101.272 117.41 101.644C117.161 102.017 116.808 102.307 116.394 102.479C115.98 102.65 115.524 102.695 115.085 102.608C114.645 102.52 114.242 102.304 113.925 101.988C113.608 101.671 113.392 101.267 113.305 100.828C113.217 100.388 113.262 99.9326 113.434 99.5186C113.605 99.1047 113.896 98.7509 114.268 98.5019C114.641 98.253 115.079 98.1201 115.527 98.1201C115.824 98.1201 116.119 98.1787 116.394 98.2926C116.669 98.4064 116.918 98.5733 117.129 98.7837C117.339 98.994 117.506 99.2438 117.62 99.5186C117.734 99.7935 117.792 100.088 117.792 100.386Z" fill="#E0E0E0"/>
<path d="M121.746 110.246H115.561C114.844 110.246 114.156 109.961 113.649 109.454C113.142 108.947 112.857 108.259 112.857 107.542C112.857 106.825 113.142 106.137 113.649 105.63C114.156 105.123 114.844 104.838 115.561 104.838H121.746C122.463 104.838 123.151 105.123 123.658 105.63C124.165 106.137 124.45 106.825 124.45 107.542C124.45 108.259 124.165 108.947 123.658 109.454C123.151 109.961 122.463 110.246 121.746 110.246Z" fill="#EBEBEB"/>
<path d="M115.527 109.808C116.778 109.808 117.792 108.793 117.792 107.542C117.792 106.291 116.778 105.277 115.527 105.277C114.276 105.277 113.261 106.291 113.261 107.542C113.261 108.793 114.276 109.808 115.527 109.808Z" fill="#E0E0E0"/>
<path d="M99.4034 114.747C99.4034 114.812 95.6189 114.859 90.9534 114.859C86.2879 114.859 82.5034 114.812 82.5034 114.747C82.5034 114.682 86.2836 114.634 90.9534 114.634C95.6232 114.634 99.4034 114.686 99.4034 114.747Z" fill="#263238"/>
<path d="M121.746 118.249H115.561C115.206 118.25 114.855 118.18 114.527 118.045C114.199 117.909 113.901 117.711 113.65 117.46C113.398 117.209 113.199 116.911 113.063 116.584C112.927 116.256 112.857 115.904 112.857 115.55C112.857 114.832 113.142 114.145 113.649 113.638C114.156 113.131 114.844 112.846 115.561 112.846H121.746C122.463 112.846 123.151 113.131 123.658 113.638C124.165 114.145 124.45 114.832 124.45 115.55C124.45 115.904 124.38 116.256 124.244 116.584C124.108 116.911 123.909 117.209 123.657 117.46C123.406 117.711 123.108 117.909 122.78 118.045C122.452 118.18 122.101 118.25 121.746 118.249Z" fill="#EBEBEB"/>
<path d="M115.527 117.815C116.778 117.815 117.792 116.801 117.792 115.55C117.792 114.298 116.778 113.284 115.527 113.284C114.276 113.284 113.261 114.298 113.261 115.55C113.261 116.801 114.276 117.815 115.527 117.815Z" fill="#E0E0E0"/>
<path d="M173.374 21.2968C173.997 17.4397 171.375 13.8082 167.518 13.1856C163.661 12.5629 160.029 15.185 159.407 19.042C158.784 22.899 161.406 26.5305 165.263 27.1532C169.12 27.7758 172.752 25.1538 173.374 21.2968Z" fill="#56B5E6"/>
<path d="M165.384 35.9887C165.345 35.9887 165.311 34.6867 165.311 33.0679C165.311 31.4491 165.345 30.1514 165.384 30.1514C165.46 31.1216 165.484 32.0951 165.458 33.0679C165.484 34.0421 165.46 35.017 165.384 35.9887Z" fill="#56B5E6"/>
<path d="M161.309 28.5065C161.344 28.5065 160.68 29.7478 159.825 31.2277C158.97 32.7076 158.245 33.8968 158.21 33.8751C158.176 33.8534 158.84 32.6382 159.695 31.1539C160.55 29.6696 161.274 28.4848 161.309 28.5065Z" fill="#56B5E6"/>
<path d="M157.125 25.9025C156.609 26.409 156.057 26.8788 155.476 27.3087C154.925 27.779 154.345 28.2139 153.74 28.6107C154.256 28.1042 154.807 27.6344 155.389 27.2045C155.938 26.7319 156.518 26.2969 157.125 25.9025Z" fill="#56B5E6"/>
<path d="M172.441 33.1113C172.356 32.879 172.294 32.6392 172.254 32.3952C172.154 31.9612 172.007 31.3362 171.82 30.6592C171.634 29.9821 171.456 29.3832 171.321 28.9492C171.231 28.7178 171.164 28.4779 171.122 28.2331C171.245 28.449 171.346 28.6774 171.421 28.9145C171.582 29.3485 171.781 29.9431 171.964 30.6201C172.146 31.2971 172.272 31.9221 172.35 32.3561C172.407 32.6039 172.437 32.857 172.441 33.1113Z" fill="#56B5E6"/>
<path d="M179.615 28.0204C178.887 27.48 178.189 26.9005 177.523 26.2844C176.826 25.7078 176.161 25.0935 175.531 24.4443C176.259 24.9847 176.958 25.5642 177.623 26.1803C178.32 26.7569 178.985 27.3712 179.615 28.0204Z" fill="#56B5E6"/>
<path d="M182.362 21.0244C182.07 21.0064 181.78 20.9658 181.494 20.9028C180.969 20.816 180.245 20.7032 179.442 20.6121C178.639 20.5209 177.905 20.4645 177.376 20.4298C177.085 20.4292 176.795 20.4045 176.508 20.356C176.795 20.3169 177.086 20.3067 177.376 20.3256C177.91 20.3256 178.647 20.3734 179.455 20.4645C180.262 20.5556 180.991 20.6858 181.512 20.7987C181.802 20.8476 182.086 20.9231 182.362 21.0244Z" fill="#56B5E6"/>
<path d="M182.371 14.1455C182.371 14.1889 180.852 14.5795 178.951 15.0569C177.05 15.5343 175.505 15.8598 175.479 15.8207C175.453 15.7816 177.002 15.3867 178.899 14.9136C180.795 14.4406 182.362 14.1064 182.371 14.1455Z" fill="#56B5E6"/>
<path d="M174.385 6.13383C174.416 6.13383 173.686 7.323 172.749 8.73784C171.812 10.1527 171.013 11.2898 170.987 11.2637C170.961 11.2377 171.686 10.0746 172.623 8.65972C173.167 7.78843 173.755 6.94538 174.385 6.13383Z" fill="#56B5E6"/>
<path d="M166.447 4.45859C166.47 4.78224 166.47 5.10709 166.447 5.43075C166.447 6.02967 166.447 6.85427 166.447 7.76567C166.447 8.67707 166.447 9.50167 166.473 10.1093C166.496 10.4315 166.496 10.7549 166.473 11.0771C166.412 10.7595 166.378 10.4371 166.374 10.1136C166.339 9.51469 166.309 8.68575 166.309 7.77001C166.309 6.85427 166.335 6.03401 166.369 5.42641C166.366 5.1021 166.392 4.77817 166.447 4.45859Z" fill="#56B5E6"/>
<path d="M160.441 11.9364C160.406 11.9581 159.66 10.8037 158.779 9.35844C157.898 7.91322 157.203 6.71972 157.238 6.69802C157.273 6.67632 158.019 7.8351 158.905 9.30202C159.79 10.7689 160.497 11.919 160.441 11.9364Z" fill="#56B5E6"/>
<path d="M156.852 14.9874C156.598 14.9771 156.346 14.9378 156.101 14.8703C155.641 14.7704 155.012 14.6185 154.321 14.4363C153.631 14.254 153.019 14.0023 152.585 13.8504C152.343 13.7732 152.109 13.6714 151.887 13.5466C152.137 13.5921 152.383 13.6619 152.62 13.7549C153.054 13.8938 153.683 14.0934 154.356 14.293C155.029 14.4927 155.658 14.6663 156.118 14.7878C156.368 14.831 156.614 14.8979 156.852 14.9874Z" fill="#56B5E6"/>
<path d="M155.289 20.4211C154.545 20.57 153.791 20.6672 153.033 20.7119C152.28 20.8087 151.522 20.858 150.763 20.8595C151.507 20.7099 152.261 20.6113 153.019 20.5643C153.772 20.47 154.53 20.4222 155.289 20.4211Z" fill="#56B5E6"/>
<path d="M150.463 146.498L156.791 191.578L158.44 191.63C157.39 176.318 156.27 160.703 150.463 146.498Z" fill="#455A64"/>
<path d="M168.044 144.385C163.622 149.215 161.843 155.894 160.723 162.356C159.134 171.518 158.987 182.342 159.469 191.63L161.778 191.682C160.863 175.662 162.989 159.613 168.044 144.385Z" fill="#455A64"/>
<path d="M151.626 173.167C151.118 170.932 150.537 168.662 149.261 166.757C147.525 164.188 144.734 162.565 141.909 161.298C139.084 160.03 136.119 159.023 133.567 157.27C136.414 161.935 142.872 163.177 146.153 167.543C147.79 169.713 148.471 172.438 149.109 175.081C150.511 180.845 151.37 185.832 152.768 191.573H154.642C154.026 185.381 153.018 179.233 151.626 173.167Z" fill="#455A64"/>
<path d="M163.466 191.63C163.466 191.63 165.05 173.727 166.226 170.438C167.402 167.148 178.513 158.069 178.408 158.498C178.304 158.928 170.071 168.862 168.895 170.915C167.719 172.968 165.705 191.63 165.705 191.63H163.466Z" fill="#455A64"/>
<path d="M110.943 172.907C111.382 173.082 111.781 173.345 112.116 173.678C112.45 174.011 112.714 174.409 112.892 174.847C113.246 175.726 113.394 176.675 113.326 177.62C113.235 179.443 112.328 181.34 111.312 182.859C109.702 181.626 109.203 179.33 109.02 178.145C108.734 176.279 109.35 172.729 110.952 172.907" fill="#56B5E6"/>
<path d="M113.27 185.727C113.132 185.216 113.133 184.678 113.271 184.168C113.409 183.657 113.679 183.192 114.055 182.82C114.436 182.454 114.886 182.168 115.378 181.979C115.871 181.79 116.396 181.701 116.924 181.717C117.163 181.701 117.403 181.737 117.628 181.822C117.852 181.906 118.056 182.038 118.226 182.208C118.359 182.395 118.439 182.615 118.457 182.844C118.475 183.073 118.432 183.303 118.33 183.51C118.126 183.919 117.815 184.267 117.432 184.516C116.164 185.432 114.771 186.083 113.248 185.732" fill="#56B5E6"/>
<path d="M111.677 191.404C111.677 191.279 111.687 191.154 111.707 191.031C111.738 190.766 111.777 190.423 111.824 190.015C111.924 188.884 112.203 187.777 112.653 186.734C113.126 185.691 113.867 184.792 114.802 184.13C115.086 183.938 115.392 183.779 115.713 183.657C115.799 183.622 115.888 183.593 115.978 183.57L116.073 183.549C115.646 183.728 115.238 183.949 114.854 184.208C113.955 184.88 113.24 185.766 112.775 186.786C112.326 187.816 112.033 188.908 111.907 190.024C111.842 190.458 111.79 190.796 111.746 191.035C111.736 191.16 111.713 191.284 111.677 191.404Z" fill="#263238"/>
<path d="M110.708 175.65C110.725 175.702 110.736 175.756 110.739 175.81L110.795 176.275C110.847 176.683 110.908 177.264 110.978 177.989C111.121 179.439 111.286 181.439 111.412 183.653C111.537 185.866 111.624 187.876 111.659 189.33C111.659 190.059 111.685 190.632 111.685 191.066V191.534C111.685 191.643 111.685 191.699 111.685 191.699C111.68 191.644 111.68 191.589 111.685 191.534L111.663 191.066C111.663 190.632 111.624 190.063 111.594 189.33C111.533 187.876 111.446 185.858 111.312 183.657C111.177 181.457 111.025 179.443 110.908 177.993C110.847 177.282 110.804 176.691 110.769 176.279C110.769 176.088 110.743 175.932 110.735 175.81C110.722 175.758 110.713 175.704 110.708 175.65Z" fill="#263238"/>
<path d="M110.704 187.003C110.45 185.918 109.94 184.91 109.218 184.062C108.496 183.213 107.581 182.549 106.551 182.125C106.026 181.912 105.349 181.795 104.954 182.203C104.559 182.611 104.698 183.284 104.954 183.796C105.473 184.86 106.295 185.747 107.316 186.345C108.338 186.942 109.514 187.224 110.696 187.155" fill="#56B5E6"/>
<path d="M106.907 183.822C107.022 183.851 107.134 183.892 107.241 183.944C107.345 183.987 107.475 184.039 107.619 184.113C107.762 184.187 107.931 184.265 108.105 184.378C108.297 184.488 108.483 184.61 108.66 184.742C108.868 184.89 109.068 185.05 109.259 185.22C109.696 185.608 110.088 186.045 110.427 186.522C110.759 187.007 111.033 187.53 111.243 188.08C111.331 188.318 111.406 188.562 111.468 188.809C111.524 189.025 111.569 189.243 111.603 189.464C111.634 189.645 111.654 189.828 111.663 190.011C111.675 190.155 111.675 190.3 111.663 190.445C111.675 190.562 111.675 190.68 111.663 190.796C111.633 190.796 111.663 190.293 111.512 189.494C111.474 189.278 111.425 189.063 111.364 188.852C111.298 188.609 111.218 188.37 111.125 188.136C110.914 187.598 110.643 187.086 110.318 186.608C109.986 186.136 109.605 185.699 109.181 185.306C108.995 185.135 108.799 184.974 108.595 184.825C108.413 184.677 108.222 184.564 108.053 184.451C107.367 184.03 106.898 183.848 106.907 183.822Z" fill="#263238"/>
</svg>
