<svg width="30" height="30" viewBox="0 0 30 30" fill="none" xmlns="http://www.w3.org/2000/svg">
<path d="M15.0251 3.63745C10.8876 3.63745 7.52511 6.99995 7.52511 11.1375V14.75C7.52511 15.5125 7.20011 16.675 6.81261 17.325L5.37511 19.7125C4.48761 21.1875 5.10011 22.825 6.72511 23.375C12.1126 25.175 17.9251 25.175 23.3126 23.375C24.8251 22.875 25.4876 21.0875 24.6626 19.7125L23.2251 17.325C22.8501 16.675 22.5251 15.5125 22.5251 14.75V11.1375C22.5251 7.01245 19.1501 3.63745 15.0251 3.63745Z" stroke="#292D32" stroke-width="1.875" stroke-miterlimit="10" stroke-linecap="round"/>
<path d="M17.3374 3.9998C16.9499 3.8873 16.5499 3.7998 16.1374 3.7498C14.9374 3.5998 13.7874 3.6873 12.7124 3.9998C13.0749 3.0748 13.9749 2.4248 15.0249 2.4248C16.0749 2.4248 16.9749 3.0748 17.3374 3.9998Z" stroke="#292D32" stroke-width="1.875" stroke-miterlimit="10" stroke-linecap="round" stroke-linejoin="round"/>
<path d="M18.775 23.8252C18.775 25.8877 17.0875 27.5752 15.025 27.5752C14 27.5752 13.05 27.1502 12.375 26.4752C11.7 25.8002 11.275 24.8502 11.275 23.8252" stroke="#292D32" stroke-width="1.875" stroke-miterlimit="10"/>
</svg>
