<svg width="24" height="24" viewBox="0 0 24 24" fill="none" xmlns="http://www.w3.org/2000/svg">
<path d="M12 5C7.36087 5 3.31957 7.58602 1 11.5C3.29565 15.414 7.36087 18 12 18C16.6391 18 20.6804 15.3907 23 11.5C20.6804 7.58602 16.6391 5 12 5ZM12 16.3692C9.22609 16.3692 7.00217 14.1792 7.00217 11.5C7.00217 8.79749 9.25 6.63082 12 6.63082C14.7739 6.63082 16.9978 8.82079 16.9978 11.5C16.9978 14.2025 14.7739 16.3692 12 16.3692Z" fill="black"/>
<path d="M12 14C13.6569 14 15 12.8807 15 11.5C15 10.1193 13.6569 9 12 9C10.3431 9 9 10.1193 9 11.5C9 12.8807 10.3431 14 12 14Z" fill="black"/>
</svg>
