<svg width="24" height="24" viewBox="0 0 24 24" fill="none" xmlns="http://www.w3.org/2000/svg">
<path d="M17.511 5.50001C17.2336 5.33738 16.9036 5.28171 16.5861 5.344C16.2685 5.40628 15.9865 5.58199 15.7957 5.83646C15.6049 6.09094 15.5191 6.4057 15.5552 6.71866C15.5913 7.03162 15.7468 7.32006 15.9909 7.52707C17.156 8.34702 18.0239 9.50475 18.4702 10.8341C18.9164 12.1634 18.9181 13.5961 18.4748 14.9263C18.0315 16.2566 17.1662 17.4162 16.0029 18.2386C14.8397 19.0611 13.4383 19.5041 12 19.5041C10.5617 19.5041 9.16035 19.0611 7.9971 18.2386C6.83385 17.4162 5.96849 16.2566 5.52523 14.9263C5.08196 13.5961 5.08357 12.1634 5.52983 10.8341C5.97608 9.50475 6.84404 8.34702 8.00914 7.52707C8.16293 7.4369 8.29575 7.31662 8.39917 7.17387C8.50258 7.03112 8.57433 6.86902 8.60984 6.69787C8.64536 6.52671 8.64388 6.35025 8.60548 6.17968C8.56709 6.00912 8.49263 5.84818 8.38682 5.70709C8.28102 5.56601 8.14619 5.44786 7.9909 5.36015C7.83562 5.27244 7.66326 5.21709 7.48479 5.19761C7.30632 5.17814 7.12563 5.19497 6.95421 5.24703C6.78278 5.29909 6.62437 5.38524 6.48903 5.50001C4.87799 6.63253 3.6775 8.23222 3.05993 10.0694C2.44235 11.9066 2.43944 13.8868 3.05163 15.7257C3.66381 17.5646 4.8596 19.1677 6.46731 20.3046C8.07502 21.4416 10.0119 22.0541 12 22.0541C13.9881 22.0541 15.925 21.4416 17.5327 20.3046C19.1404 19.1677 20.3362 17.5646 20.9484 15.7257C21.5606 13.8868 21.5577 11.9066 20.9401 10.0694C20.3225 8.23222 19.122 6.63253 17.511 5.50001Z" fill="black"/>
<path d="M11.9999 11.099C12.3438 11.0978 12.6732 10.9641 12.916 10.7273C13.1587 10.4905 13.295 10.1698 13.295 9.83541V3.20505C13.295 2.87112 13.1586 2.55086 12.9157 2.31473C12.6728 2.07861 12.3434 1.94595 11.9999 1.94595C11.6564 1.94595 11.327 2.07861 11.0842 2.31473C10.8413 2.55086 10.7048 2.87112 10.7048 3.20505V9.83094C10.7042 9.99688 10.7373 10.1613 10.802 10.3148C10.8668 10.4684 10.962 10.608 11.0823 10.7257C11.2025 10.8435 11.3455 10.937 11.5029 11.0011C11.6604 11.0651 11.8292 11.0984 11.9999 11.099Z" fill="black"/>
</svg>
