<svg width="24" height="24" viewBox="0 0 24 24" fill="none" xmlns="http://www.w3.org/2000/svg">
<rect width="24" height="24"/>
<path d="M9 11.5773L11 13.3961L15.5 9.30385M20 12.032C20 16.4957 14.646 19.7421 12.698 20.7756C12.4766 20.8931 12.3659 20.9518 12.2097 20.9823C12.0884 21.0059 11.9116 21.0059 11.7903 20.9823C11.6341 20.9518 11.5234 20.8931 11.302 20.7756C9.35396 19.7421 4 16.4957 4 12.032V7.68297C4 6.9559 4 6.59237 4.13076 6.27988C4.24627 6.00382 4.43398 5.7575 4.67766 5.56222C4.9535 5.34115 5.3278 5.21351 6.0764 4.95822L11.4382 3.12975C11.6461 3.05885 11.75 3.0234 11.857 3.00935C11.9518 2.99688 12.0482 2.99688 12.143 3.00935C12.25 3.0234 12.3539 3.05885 12.5618 3.12974L17.9236 4.95822C18.6722 5.21351 19.0465 5.34115 19.3223 5.56222C19.566 5.7575 19.7537 6.00382 19.8692 6.27988C20 6.59237 20 6.9559 20 7.68297V12.032Z" stroke="#333333" stroke-width="1.5" stroke-linecap="round" stroke-linejoin="round"/>
</svg>
