<svg width="53" height="52" viewBox="0 0 53 52" fill="none" xmlns="http://www.w3.org/2000/svg">
<g filter="url(#filter0_d_508_969)">
<path d="M4.1875 43.5625V35.0625H6.3125V41.4375H12.6875V43.5625H4.1875ZM40.3125 43.5625V41.4375H46.6875V35.0625H48.8125V43.5625H40.3125ZM9.5 38.25V12.75H13.75V38.25H9.5ZM15.875 38.25V12.75H18V38.25H15.875ZM22.25 38.25V12.75H26.5V38.25H22.25ZM28.625 38.25V12.75H35V38.25H28.625ZM37.125 38.25V12.75H39.25V38.25H37.125ZM41.375 38.25V12.75H43.5V38.25H41.375ZM4.1875 15.9375V7.4375H12.6875V9.5625H6.3125V15.9375H4.1875ZM46.6875 15.9375V9.5625H40.3125V7.4375H48.8125V15.9375H46.6875Z" fill="black"/>
</g>
<defs>
<filter id="filter0_d_508_969" x="-3" y="0" width="59" height="59" filterUnits="userSpaceOnUse" color-interpolation-filters="sRGB">
<feFlood flood-opacity="0" result="BackgroundImageFix"/>
<feColorMatrix in="SourceAlpha" type="matrix" values="0 0 0 0 0 0 0 0 0 0 0 0 0 0 0 0 0 0 127 0" result="hardAlpha"/>
<feOffset dy="4"/>
<feGaussianBlur stdDeviation="2"/>
<feComposite in2="hardAlpha" operator="out"/>
<feColorMatrix type="matrix" values="0 0 0 0 0 0 0 0 0 0 0 0 0 0 0 0 0 0 0.25 0"/>
<feBlend mode="normal" in2="BackgroundImageFix" result="effect1_dropShadow_508_969"/>
<feBlend mode="normal" in="SourceGraphic" in2="effect1_dropShadow_508_969" result="shape"/>
</filter>
</defs>
</svg>
