<svg width="20" height="20" viewBox="0 0 20 20" fill="none" xmlns="http://www.w3.org/2000/svg">
<path d="M12.7125 13.6125C13.0646 13.9646 13.6354 13.9646 13.9875 13.6125V13.6125C14.3396 13.2604 14.3396 12.6896 13.9875 12.3375L10.9 9.24999V4.89999C10.9 4.40294 10.4971 3.99999 10 3.99999V3.99999C9.50297 3.99999 9.10003 4.40294 9.10003 4.89999V9.99999L12.7125 13.6125ZM10 19.6C8.67709 19.6 7.43386 19.35 6.27033 18.85C5.10679 18.35 4.08752 17.6625 3.21252 16.7875C2.33752 15.9125 1.65002 14.892 1.15002 13.726C0.650024 12.5601 0.400024 11.3142 0.400024 9.98854C0.400024 8.66284 0.650024 7.41666 1.15002 6.24999C1.65002 5.08333 2.33752 4.06666 3.21252 3.19999C4.08752 2.33333 5.10801 1.64999 6.27397 1.14999C7.43996 0.649994 8.68579 0.399994 10.0115 0.399994C11.3372 0.399994 12.5834 0.651994 13.7502 1.15599C14.917 1.65999 15.9319 2.34399 16.795 3.20799C17.6581 4.07199 18.3414 5.08799 18.8448 6.25599C19.3483 7.42399 19.6 8.67199 19.6 9.99999C19.6 11.3229 19.35 12.5662 18.85 13.7297C18.35 14.8932 17.6667 15.9125 16.8 16.7875C15.9334 17.6625 14.9156 18.35 13.7468 18.85C12.5779 19.35 11.329 19.6 10 19.6ZM10.0119 17.8C12.1699 17.8 14.0074 17.0375 15.5244 15.5125C17.0415 13.9875 17.8 12.146 17.8 9.98807C17.8 7.83012 17.0415 5.99262 15.5244 4.47557C14.0074 2.95852 12.1699 2.19999 10.0119 2.19999C7.854 2.19999 6.01252 2.95852 4.48752 4.47557C2.96252 5.99262 2.20002 7.83012 2.20002 9.98807C2.20002 12.146 2.96252 13.9875 4.48752 15.5125C6.01252 17.0375 7.854 17.8 10.0119 17.8Z" fill="#333333"/>
</svg>
