<svg width="24" height="24" viewBox="0 0 24 24" fill="none" xmlns="http://www.w3.org/2000/svg">
<mask id="mask0_573_3813" style="mask-type:alpha" maskUnits="userSpaceOnUse" x="0" y="0" width="24" height="24">
<rect width="24" height="24" fill="#D9D9D9"/>
</mask>
<g mask="url(#mask0_573_3813)">
<path d="M14.7125 15.6125C15.0646 15.9646 15.6354 15.9646 15.9875 15.6125C16.3396 15.2604 16.3396 14.6896 15.9875 14.3375L12.9 11.25V6.89999C12.9 6.40294 12.4971 5.99999 12 5.99999C11.5029 5.99999 11.1 6.40294 11.1 6.89999V12L14.7125 15.6125ZM12 21.6C10.6771 21.6 9.43383 21.35 8.27029 20.85C7.10676 20.35 6.08749 19.6625 5.21249 18.7875C4.33749 17.9125 3.64999 16.892 3.14999 15.726C2.64999 14.5601 2.39999 13.3142 2.39999 11.9885C2.39999 10.6628 2.64999 9.41666 3.14999 8.24999C3.64999 7.08333 4.33749 6.06666 5.21249 5.19999C6.08749 4.33333 7.10798 3.64999 8.27394 3.14999C9.43993 2.64999 10.6858 2.39999 12.0114 2.39999C13.3371 2.39999 14.5834 2.65199 15.7501 3.15599C16.9169 3.65999 17.9319 4.34399 18.7949 5.20799C19.658 6.07199 20.3413 7.08799 20.8448 8.25599C21.3483 9.42399 21.6 10.672 21.6 12C21.6 13.3229 21.35 14.5662 20.85 15.7297C20.35 16.8932 19.6667 17.9125 18.8 18.7875C17.9333 19.6625 16.9156 20.35 15.7467 20.85C14.5779 21.35 13.329 21.6 12 21.6ZM12.0119 19.8C14.1699 19.8 16.0074 19.0375 17.5244 17.5125C19.0415 15.9875 19.8 14.146 19.8 11.9881C19.8 9.83012 19.0415 7.99262 17.5244 6.47557C16.0074 4.95852 14.1699 4.19999 12.0119 4.19999C9.85397 4.19999 8.01249 4.95852 6.48749 6.47557C4.96249 7.99262 4.19999 9.83012 4.19999 11.9881C4.19999 14.146 4.96249 15.9875 6.48749 17.5125C8.01249 19.0375 9.85397 19.8 12.0119 19.8Z" fill="white"/>
</g>
</svg>
