<svg width="262" height="262" viewBox="0 0 262 262" fill="none" xmlns="http://www.w3.org/2000/svg">
<path d="M159.296 54.0401C158.125 55.83 157.302 57.8246 156.87 59.9194L153.584 60.2286V66.5899L156.87 66.8991C157.302 68.9955 158.125 70.9918 159.296 72.7836L157.2 75.3145L161.696 79.8104L164.232 77.7144C166.02 78.8884 168.016 79.7118 170.111 80.1406L170.421 83.426H176.782L177.091 80.1406C179.187 79.7108 181.182 78.8875 182.97 77.7144L185.507 79.8104L190.002 75.3145L187.906 72.7836C189.077 70.9918 189.901 68.9955 190.333 66.8991L193.618 66.5899V60.2286L190.333 59.9194C189.901 57.8246 189.077 55.83 187.906 54.0401L190.002 51.504L185.496 47.008L182.96 49.104C181.18 47.9367 179.196 47.1138 177.112 46.6779L176.803 43.3924H170.415L170.106 46.6779C168.011 47.1092 166.016 47.9323 164.227 49.104L161.691 47.008L157.2 51.504L159.296 54.0401ZM180.906 56.1361C182.35 57.5807 183.333 59.421 183.731 61.4243C184.129 63.4276 183.925 65.504 183.143 67.391C182.361 69.2779 181.037 70.8907 179.339 72.0254C177.64 73.16 175.644 73.7657 173.601 73.7657C171.559 73.7657 169.562 73.16 167.864 72.0254C166.165 70.8907 164.842 69.2779 164.06 67.391C163.278 65.504 163.073 63.4276 163.471 61.4243C163.87 59.421 164.853 57.5807 166.297 56.1361C168.231 54.1977 170.855 53.1062 173.593 53.1013C176.331 53.0963 178.96 54.1785 180.901 56.1099L180.906 56.1361Z" fill="#F0F0F0"/>
<path d="M141.417 17.9365H96.5104C95.0808 17.9365 93.9219 19.0955 93.9219 20.5251V54.889C93.9219 56.3186 95.0808 57.4776 96.5104 57.4776H141.417C142.847 57.4776 144.006 56.3186 144.006 54.889V20.5251C144.006 19.0955 142.847 17.9365 141.417 17.9365Z" fill="#E6E6E6"/>
<path d="M96.3428 17.9365H141.622C142.254 17.9365 142.86 18.1877 143.307 18.6348C143.755 19.082 144.006 19.6884 144.006 20.3207V24.8324H93.9219V20.3626C93.9219 19.7201 94.1768 19.1038 94.6306 18.649C95.0845 18.1941 95.7002 17.9379 96.3428 17.9365Z" fill="#E0E0E0"/>
<path opacity="0.5" d="M141.349 21.8875C141.35 22.1864 141.262 22.4789 141.097 22.7279C140.931 22.9768 140.696 23.1711 140.42 23.286C140.144 23.4008 139.84 23.4311 139.547 23.3731C139.253 23.315 138.984 23.1712 138.773 22.9598C138.561 22.7485 138.417 22.4791 138.359 22.1858C138.301 21.8926 138.332 21.5887 138.446 21.3128C138.561 21.0368 138.756 20.8012 139.005 20.6357C139.254 20.4703 139.546 20.3826 139.845 20.3836C140.244 20.3836 140.626 20.542 140.908 20.8241C141.19 21.1061 141.349 21.4886 141.349 21.8875Z" fill="#FAFAFA"/>
<path opacity="0.5" d="M137.073 21.8875C137.074 22.1862 136.986 22.4785 136.821 22.7273C136.656 22.9762 136.421 23.1704 136.145 23.2855C135.869 23.4005 135.566 23.4311 135.273 23.3735C134.98 23.3158 134.71 23.1725 134.499 22.9617C134.287 22.7508 134.143 22.4819 134.084 22.1891C134.025 21.8962 134.055 21.5925 134.169 21.3164C134.283 21.0404 134.477 20.8044 134.725 20.6383C134.973 20.4722 135.265 20.3836 135.564 20.3836C135.762 20.3829 135.958 20.4213 136.141 20.4966C136.324 20.5718 136.49 20.6825 136.631 20.8222C136.771 20.9619 136.882 21.128 136.958 21.3108C137.034 21.4936 137.073 21.6895 137.073 21.8875Z" fill="#FAFAFA"/>
<path opacity="0.5" d="M131.288 23.3914C132.119 23.3914 132.792 22.7181 132.792 21.8875C132.792 21.0569 132.119 20.3836 131.288 20.3836C130.457 20.3836 129.784 21.0569 129.784 21.8875C129.784 22.7181 130.457 23.3914 131.288 23.3914Z" fill="#FAFAFA"/>
<path opacity="0.6" d="M132.216 30.5964H105.418V32.0007H132.216V30.5964Z" fill="white"/>
<path d="M125.006 33.6303H105.833V35.0346H125.006V33.6303Z" fill="#E0E0E0"/>
<path d="M139.483 30.5964H134.584V32.0007H139.483V30.5964Z" fill="#F0F0F0"/>
<path d="M103.558 30.5964H98.2866V32.0007H103.558V30.5964Z" fill="#F0F0F0"/>
<path d="M132.216 37.0049H105.418V38.4092H132.216V37.0049Z" fill="#F0F0F0"/>
<path opacity="0.6" d="M139.483 37.0049H134.584V38.4092H139.483V37.0049Z" fill="white"/>
<path d="M103.558 37.0049H98.2866V38.4092H103.558V37.0049Z" fill="#F0F0F0"/>
<path opacity="0.6" d="M132.216 50.3669H105.418V51.7712H132.216V50.3669Z" fill="white"/>
<path opacity="0.6" d="M139.483 50.3669H134.584V51.7712H139.483V50.3669Z" fill="white"/>
<path d="M132.216 40.3847H105.418V41.789H132.216V40.3847Z" fill="#F0F0F0"/>
<path d="M139.483 40.3847H134.584V41.789H139.483V40.3847Z" fill="#E0E0E0"/>
<path d="M103.558 40.3847H98.2866V41.789H103.558V40.3847Z" fill="#E0E0E0"/>
<path d="M139.845 33.688H127.106V35.0923H139.845V33.688Z" fill="#F0F0F0"/>
<path opacity="0.6" d="M124.592 43.3296H105.418V44.7339H124.592V43.3296Z" fill="white"/>
<path d="M139.426 43.3872H126.688V44.7915H139.426V43.3872Z" fill="#F0F0F0"/>
<path d="M115.008 46.3845H105.418V47.7888H115.008V46.3845Z" fill="#E0E0E0"/>
<path d="M209.757 45.7242L204.082 48.3757L209.757 51.0271V53.165L202.175 49.497V47.2648L209.757 43.5968V45.7242Z" fill="#E0E0E0"/>
<path d="M227.033 47.2648V49.4866L219.446 53.1546V51.0271L225.121 48.3757L219.446 45.7242V43.5916L227.033 47.2648Z" fill="#E0E0E0"/>
<path d="M215.93 42.0982L212.23 54.8838H214.08L217.78 42.0982H215.93Z" fill="#E0E0E0"/>
<path d="M19.5766 114.148C18.8901 115.194 18.4083 116.36 18.1566 117.586L16.2388 117.764V121.479L18.1566 121.662C18.4083 122.886 18.8902 124.051 19.5766 125.095L18.34 126.577L20.96 129.197L22.4377 127.971C23.4845 128.656 24.6505 129.137 25.8751 129.391L26.0533 131.309H29.7684L29.9518 129.391C31.1751 129.138 32.3396 128.657 33.3841 127.971L34.867 129.197L37.487 126.577L36.2608 125.095C36.9639 124.054 37.4619 122.889 37.728 121.662L39.6459 121.479V117.764L37.728 117.586C37.4764 116.36 36.9945 115.194 36.308 114.148L37.5079 112.66L34.8879 110.04L33.405 111.261C32.3603 110.577 31.1958 110.097 29.9728 109.846L29.7842 107.944H26.069L25.8908 109.862C24.6664 110.113 23.5002 110.593 22.4534 111.277L20.96 110.04L18.34 112.66L19.5766 114.148ZM32.1946 115.359C33.0379 116.202 33.6121 117.277 33.8447 118.447C34.0773 119.617 33.9577 120.829 33.5012 121.931C33.0446 123.033 32.2716 123.975 31.2798 124.638C30.288 125.3 29.122 125.654 27.9292 125.654C26.7364 125.654 25.5704 125.3 24.5786 124.638C23.5868 123.975 22.8138 123.033 22.3572 121.931C21.9007 120.829 21.7812 119.617 22.0137 118.447C22.2463 117.277 22.8205 116.202 23.6638 115.359C24.7957 114.228 26.3297 113.594 27.9292 113.594C29.5287 113.594 31.0628 114.228 32.1946 115.359Z" fill="#E0E0E0"/>
<path d="M230.094 70.9077C229.524 71.7749 229.124 72.7421 228.915 73.7582L227.343 73.9102V76.9913L228.915 77.1433C229.124 78.1594 229.524 79.1267 230.094 79.9938L229.077 81.22L231.257 83.3998L232.488 82.3833C233.356 82.9513 234.323 83.3496 235.339 83.557L235.486 85.129H238.572L238.724 83.557C239.739 83.3477 240.706 82.9495 241.575 82.3833L242.801 83.3998L244.986 81.22L243.969 79.9886C244.535 79.12 244.933 78.1532 245.143 77.138L246.715 76.9861V73.905L245.143 73.753C244.934 72.7369 244.534 71.7696 243.964 70.9024L244.986 69.671L242.801 67.4912L241.564 68.513C240.696 67.9467 239.729 67.5486 238.714 67.3392L238.562 65.7672H235.486L235.339 67.3392C234.323 67.5466 233.356 67.945 232.488 68.513L231.257 67.4964L229.077 69.692L230.094 70.9077ZM240.574 71.9085C241.274 72.6091 241.751 73.5017 241.945 74.4734C242.138 75.4452 242.039 76.4524 241.66 77.3678C241.281 78.2831 240.638 79.0655 239.815 79.6159C238.991 80.1663 238.022 80.4601 237.032 80.4601C236.041 80.4601 235.072 80.1663 234.248 79.6159C233.425 79.0655 232.783 78.2831 232.403 77.3678C232.024 76.4524 231.925 75.4452 232.118 74.4734C232.312 73.5017 232.789 72.6091 233.489 71.9085C234.429 70.9703 235.703 70.4434 237.032 70.4434C238.36 70.4434 239.634 70.9703 240.574 71.9085Z" fill="#E0E0E0"/>
<path d="M246.6 223.47H228.338V223.607H246.6V223.47Z" fill="#EBEBEB"/>
<path d="M181.173 224.969H176.378V225.105H181.173V224.969Z" fill="#EBEBEB"/>
<path d="M227.783 218.351H217.203V218.487H227.783V218.351Z" fill="#EBEBEB"/>
<path d="M51.2998 219.278H27.4893V219.415H51.2998V219.278Z" fill="#EBEBEB"/>
<path d="M59.6993 219.278H56.2095V219.415H59.6993V219.278Z" fill="#EBEBEB"/>
<path d="M122.695 221.605H71.0493V221.741H122.695V221.605Z" fill="#EBEBEB"/>
<path d="M232.614 182.949H137.901C137.087 182.948 136.307 182.624 135.731 182.048C135.156 181.473 134.832 180.693 134.831 179.879V41.92C134.832 41.106 135.156 40.3258 135.731 39.7503C136.307 39.1747 137.087 38.8508 137.901 38.8494H232.614C233.428 38.8508 234.208 39.1747 234.784 39.7503C235.36 40.3258 235.683 41.106 235.685 41.92V179.879C235.683 180.693 235.36 181.473 234.784 182.048C234.208 182.624 233.428 182.948 232.614 182.949ZM137.901 38.9856C137.122 38.9856 136.376 39.2946 135.824 39.8448C135.273 40.3949 134.963 41.1413 134.962 41.92V179.879C134.962 180.658 135.271 181.406 135.823 181.957C136.374 182.509 137.122 182.818 137.901 182.818H232.614C233.394 182.818 234.142 182.509 234.693 181.957C235.244 181.406 235.554 180.658 235.554 179.879V41.92C235.554 41.1404 235.244 40.3927 234.693 39.8414C234.142 39.2901 233.394 38.9804 232.614 38.9804L137.901 38.9856Z" fill="#E0E0E0"/>
<path d="M123.397 182.949H28.6892C27.8743 182.949 27.0927 182.626 26.516 182.05C25.9393 181.475 25.6147 180.694 25.6133 179.879V41.92C25.6147 41.1051 25.9393 40.3241 26.516 39.7484C27.0927 39.1727 27.8743 38.8494 28.6892 38.8494H123.397C124.211 38.8494 124.992 39.1729 125.568 39.7487C126.144 40.3246 126.468 41.1056 126.468 41.92V179.879C126.468 180.693 126.144 181.474 125.568 182.05C124.992 182.626 124.211 182.949 123.397 182.949ZM28.6892 38.9856C27.9099 38.9856 27.1625 39.2944 26.6105 39.8444C26.0585 40.3944 25.7471 41.1408 25.7443 41.92V179.879C25.7457 180.659 26.0565 181.407 26.6087 181.958C27.1608 182.509 27.909 182.818 28.6892 182.818H123.397C123.783 182.818 124.165 182.742 124.522 182.595C124.879 182.447 125.203 182.23 125.476 181.957C125.749 181.684 125.965 181.36 126.113 181.004C126.261 180.647 126.337 180.265 126.337 179.879V41.92C126.337 41.534 126.261 41.1517 126.113 40.7951C125.965 40.4384 125.749 40.1143 125.476 39.8414C125.203 39.5684 124.879 39.3519 124.522 39.2041C124.165 39.0564 123.783 38.9804 123.397 38.9804L28.6892 38.9856Z" fill="#E0E0E0"/>
<path d="M262 214.95H0V215.081H262V214.95Z" fill="#E0E0E0"/>
<path d="M238.451 234.485C238.451 236.256 189.447 237.697 128.998 237.697C68.5495 237.697 19.5503 236.256 19.5503 234.485C19.5503 232.714 68.5495 231.267 128.998 231.267C189.447 231.267 238.451 232.708 238.451 234.485Z" fill="#F5F5F5"/>
<path d="M104.889 210.748H100.886V214.751H104.889V210.748Z" fill="#263238"/>
<path opacity="0.5" d="M49.5232 63.404H61.9053V185.255H48.5852C47.5679 185.255 46.5923 184.851 45.873 184.132C45.1536 183.412 44.7495 182.437 44.7495 181.419V68.1829C44.7488 67.5555 44.8718 66.9342 45.1114 66.3545C45.351 65.7747 45.7025 65.2478 46.1458 64.804C46.5892 64.3602 47.1156 64.0081 47.6952 63.7679C48.2747 63.5276 48.8958 63.404 49.5232 63.404Z" fill="white"/>
<path opacity="0.5" d="M112.985 183.154L107.535 211.078H115.442L121.751 183.384L112.985 183.154Z" fill="white"/>
<path opacity="0.5" d="M104.889 210.748H100.886V214.751H104.889V210.748Z" fill="white"/>
<path d="M162.639 214.751H111.853L119.069 172.433H152.867L162.639 214.751Z" fill="#263238"/>
<path opacity="0.7" d="M162.639 214.751H111.853L119.069 172.433H152.867L162.639 214.751Z" fill="white"/>
<path opacity="0.1" d="M155.811 185.255H116.862L115.442 193.592L156.943 190.165L155.811 185.255Z" fill="black"/>
<path d="M169.598 210.748H103.768V214.751H169.598V210.748Z" fill="#263238"/>
<g opacity="0.7">
<path d="M169.598 210.748H103.768V214.751H169.598V210.748Z" fill="white"/>
</g>
<path d="M53.0442 63.404H217.706C218.828 63.4192 219.899 63.8779 220.685 64.6801C221.47 65.4822 221.906 66.5625 221.898 67.6851V180.974C221.906 182.096 221.47 183.177 220.685 183.979C219.899 184.781 218.828 185.24 217.706 185.255H53.0442C51.9217 185.24 50.8508 184.781 50.0654 183.979C49.2799 183.177 48.8438 182.096 48.8522 180.974V67.6903C48.8424 66.5668 49.2779 65.4852 50.0635 64.6819C50.8491 63.8787 51.9208 63.4192 53.0442 63.404Z" fill="#263238"/>
<g opacity="0.7">
<path d="M53.0442 63.404H217.706C218.828 63.4192 219.899 63.8779 220.685 64.6801C221.47 65.4822 221.906 66.5625 221.898 67.6851V180.974C221.906 182.096 221.47 183.177 220.685 183.979C219.899 184.781 218.828 185.24 217.706 185.255H53.0442C51.9217 185.24 50.8508 184.781 50.0654 183.979C49.2799 183.177 48.8438 182.096 48.8522 180.974V67.6903C48.8424 66.5668 49.2779 65.4852 50.0635 64.6819C50.8491 63.8787 51.9208 63.4192 53.0442 63.404Z" fill="white"/>
</g>
<path d="M217.318 67.6012H52.688V176.834H217.318V67.6012Z" fill="#56B5E6"/>
<path opacity="0.9" d="M217.318 67.6012H52.688V176.834H217.318V67.6012Z" fill="white"/>
<path d="M217.318 67.6012H52.688V76.3678H217.318V67.6012Z" fill="#56B5E6"/>
<path opacity="0.5" d="M215.128 71.9871C215.129 72.3563 215.021 72.7175 214.817 73.0249C214.612 73.3324 214.321 73.5723 213.98 73.7143C213.64 73.8563 213.264 73.894 212.902 73.8226C212.54 73.7512 212.207 73.5739 211.946 73.3133C211.684 73.0526 211.506 72.7202 211.434 72.3582C211.361 71.9962 211.398 71.6209 211.539 71.2797C211.68 70.9385 211.919 70.6469 212.226 70.4417C212.533 70.2364 212.894 70.1269 213.263 70.1269C213.757 70.1269 214.23 70.3227 214.58 70.6714C214.93 71.0201 215.127 71.4933 215.128 71.9871Z" fill="white"/>
<path opacity="0.5" d="M209.83 71.9871C209.832 72.3565 209.723 72.7179 209.518 73.0255C209.314 73.333 209.022 73.5729 208.681 73.7148C208.34 73.8566 207.965 73.894 207.602 73.8222C207.24 73.7504 206.907 73.5726 206.646 73.3114C206.385 73.0502 206.207 72.7173 206.135 72.355C206.063 71.9926 206.101 71.6171 206.243 71.2761C206.384 70.935 206.624 70.6437 206.932 70.4391C207.24 70.2345 207.601 70.1259 207.97 70.1269C208.463 70.1283 208.936 70.3247 209.284 70.6733C209.633 71.0218 209.829 71.4942 209.83 71.9871Z" fill="white"/>
<path opacity="0.5" d="M204.538 71.9871C204.539 72.3563 204.431 72.7175 204.226 73.0249C204.022 73.3324 203.731 73.5723 203.39 73.7143C203.049 73.8563 202.674 73.894 202.312 73.8226C201.95 73.7512 201.617 73.5739 201.355 73.3133C201.094 73.0526 200.916 72.7202 200.843 72.3582C200.771 71.9962 200.808 71.6209 200.949 71.2797C201.09 70.9385 201.329 70.6469 201.636 70.4417C201.943 70.2364 202.303 70.1269 202.673 70.1269C203.166 70.1269 203.64 70.3227 203.99 70.6714C204.339 71.0201 204.537 71.4933 204.538 71.9871Z" fill="white"/>
<path d="M83.2112 140.338C82.6861 141.144 82.3164 142.042 82.1212 142.984L80.6436 143.12V145.981L82.1212 146.123C82.3199 147.056 82.6894 147.944 83.2112 148.743L82.268 149.885L84.2906 151.908L85.4329 150.964C86.2311 151.487 87.1195 151.857 88.0529 152.054L88.1944 153.532H91.0554L91.1917 152.054C92.134 151.859 93.0315 151.489 93.8379 150.964L94.975 151.908L96.9976 149.885L96.0544 148.743C96.5807 147.946 96.9523 147.057 97.1496 146.123L98.622 145.981V143.12L97.1496 142.984C96.9548 142.041 96.5832 141.143 96.0544 140.338L96.9976 139.201L94.975 137.178L93.8379 138.121C93.0328 137.592 92.135 137.221 91.1917 137.026L91.0554 135.554H88.1944L88.0529 137.026C87.1186 137.223 86.2297 137.595 85.4329 138.121L84.2906 137.178L82.268 139.201L83.2112 140.338ZM92.2764 141.91C92.7997 142.429 93.157 143.092 93.303 143.814C93.449 144.537 93.3771 145.286 93.0964 145.968C92.8158 146.649 92.3389 147.232 91.7264 147.642C91.114 148.053 90.3935 148.271 89.6564 148.271C88.9192 148.271 88.1987 148.053 87.5863 147.642C86.9738 147.232 86.497 146.649 86.2163 145.968C85.9356 145.286 85.8637 144.537 86.0097 143.814C86.1557 143.092 86.513 142.429 87.0364 141.91C87.7346 141.22 88.677 140.834 89.6585 140.836C90.64 140.838 91.5809 141.228 92.2764 141.92V141.91Z" fill="#56B5E6"/>
<path opacity="0.4" d="M83.2112 140.338C82.6861 141.144 82.3164 142.042 82.1212 142.984L80.6436 143.12V145.981L82.1212 146.123C82.3199 147.056 82.6894 147.944 83.2112 148.743L82.268 149.885L84.2906 151.908L85.4329 150.964C86.2311 151.487 87.1195 151.857 88.0529 152.054L88.1944 153.532H91.0554L91.1917 152.054C92.134 151.859 93.0315 151.489 93.8379 150.964L94.975 151.908L96.9976 149.885L96.0544 148.743C96.5807 147.946 96.9523 147.057 97.1496 146.123L98.622 145.981V143.12L97.1496 142.984C96.9548 142.041 96.5832 141.143 96.0544 140.338L96.9976 139.201L94.975 137.178L93.8379 138.121C93.0328 137.592 92.135 137.221 91.1917 137.026L91.0554 135.554H88.1944L88.0529 137.026C87.1186 137.223 86.2297 137.595 85.4329 138.121L84.2906 137.178L82.268 139.201L83.2112 140.338ZM92.2764 141.91C92.7997 142.429 93.157 143.092 93.303 143.814C93.449 144.537 93.3771 145.286 93.0964 145.968C92.8158 146.649 92.3389 147.232 91.7264 147.642C91.114 148.053 90.3935 148.271 89.6564 148.271C88.9192 148.271 88.1987 148.053 87.5863 147.642C86.9738 147.232 86.497 146.649 86.2163 145.968C85.9356 145.286 85.8637 144.537 86.0097 143.814C86.1557 143.092 86.513 142.429 87.0364 141.91C87.7346 141.22 88.677 140.834 89.6585 140.836C90.64 140.838 91.5809 141.228 92.2764 141.92V141.91Z" fill="white"/>
<path d="M167.638 105.324C167.15 106.071 166.807 106.903 166.627 107.776L165.259 107.902V110.564L166.627 110.69C166.807 111.564 167.15 112.395 167.638 113.142L166.763 114.19L168.639 116.066L169.687 115.191C170.434 115.679 171.266 116.022 172.139 116.202L172.265 117.57H174.917L175.042 116.202C175.916 116.022 176.748 115.679 177.495 115.191L178.543 116.066L180.419 114.19L179.544 113.142C180.032 112.395 180.375 111.564 180.555 110.69L181.922 110.564V107.944L180.555 107.818C180.375 106.944 180.032 106.113 179.544 105.366L180.419 104.318L178.543 102.442L177.495 103.317C176.748 102.829 175.916 102.486 175.042 102.306L174.917 100.938H172.265L172.139 102.306C171.266 102.486 170.434 102.829 169.687 103.317L168.639 102.442L166.763 104.276L167.638 105.324ZM176.022 106.791C176.505 107.273 176.834 107.888 176.967 108.557C177.1 109.225 177.032 109.919 176.771 110.549C176.511 111.179 176.069 111.718 175.502 112.097C174.935 112.476 174.268 112.679 173.586 112.679C172.904 112.679 172.237 112.476 171.67 112.097C171.103 111.718 170.661 111.179 170.4 110.549C170.139 109.919 170.071 109.225 170.204 108.557C170.338 107.888 170.666 107.273 171.149 106.791C171.47 106.47 171.851 106.216 172.271 106.043C172.691 105.87 173.14 105.782 173.594 105.783C174.048 105.785 174.497 105.876 174.916 106.052C175.334 106.227 175.714 106.484 176.033 106.807L176.022 106.791Z" fill="#56B5E6"/>
<path opacity="0.4" d="M167.638 105.324C167.15 106.071 166.807 106.903 166.627 107.776L165.259 107.902V110.564L166.627 110.69C166.807 111.564 167.15 112.395 167.638 113.142L166.763 114.19L168.639 116.066L169.687 115.191C170.434 115.679 171.266 116.022 172.139 116.202L172.265 117.57H174.917L175.042 116.202C175.916 116.022 176.748 115.679 177.495 115.191L178.543 116.066L180.419 114.19L179.544 113.142C180.032 112.395 180.375 111.564 180.555 110.69L181.922 110.564V107.944L180.555 107.818C180.375 106.944 180.032 106.113 179.544 105.366L180.419 104.318L178.543 102.442L177.495 103.317C176.748 102.829 175.916 102.486 175.042 102.306L174.917 100.938H172.265L172.139 102.306C171.266 102.486 170.434 102.829 169.687 103.317L168.639 102.442L166.763 104.276L167.638 105.324ZM176.022 106.791C176.505 107.273 176.834 107.888 176.967 108.557C177.1 109.225 177.032 109.919 176.771 110.549C176.511 111.179 176.069 111.718 175.502 112.097C174.935 112.476 174.268 112.679 173.586 112.679C172.904 112.679 172.237 112.476 171.67 112.097C171.103 111.718 170.661 111.179 170.4 110.549C170.139 109.919 170.071 109.225 170.204 108.557C170.338 107.888 170.666 107.273 171.149 106.791C171.47 106.47 171.851 106.216 172.271 106.043C172.691 105.87 173.14 105.782 173.594 105.783C174.048 105.785 174.497 105.876 174.916 106.052C175.334 106.227 175.714 106.484 176.033 106.807L176.022 106.791Z" fill="white"/>
<path d="M164.358 90.6782C164.046 91.1578 163.826 91.6907 163.708 92.2502L162.822 92.3288V94.0423L163.708 94.1261C163.824 94.6861 164.045 95.2193 164.358 95.6981L163.792 96.3793L165.002 97.5898L165.689 97.0238C166.166 97.3404 166.7 97.5628 167.261 97.6788L167.344 98.5644H169.053L169.136 97.6788C169.697 97.5628 170.231 97.3404 170.708 97.0238L171.39 97.5898L172.6 96.3793L172.039 95.6981C172.352 95.2193 172.573 94.6861 172.689 94.1261L173.575 94.0423V92.3288L172.689 92.245C172.571 91.6856 172.351 91.1527 172.039 90.673L172.6 89.9918L171.39 88.7813L170.708 89.3472C170.23 89.0328 169.697 88.8106 169.136 88.6922L169.053 87.8119H167.344L167.261 88.6922C166.7 88.8106 166.167 89.0328 165.689 89.3472L165.002 88.7813L163.792 89.9918L164.358 90.6782ZM169.776 91.6266C170.088 91.9378 170.301 92.3346 170.387 92.7668C170.474 93.199 170.43 93.6472 170.262 94.0545C170.094 94.4619 169.808 94.8102 169.442 95.0552C169.075 95.3003 168.645 95.4311 168.204 95.4311C167.763 95.4311 167.332 95.3003 166.966 95.0552C166.599 94.8102 166.314 94.4619 166.146 94.0545C165.977 93.6472 165.934 93.199 166.02 92.7668C166.107 92.3346 166.32 91.9378 166.632 91.6266C167.049 91.2107 167.614 90.9771 168.204 90.9771C168.793 90.9771 169.358 91.2107 169.776 91.6266Z" fill="#56B5E6"/>
<path opacity="0.7" d="M164.358 90.6782C164.046 91.1578 163.826 91.6907 163.708 92.2502L162.822 92.3288V94.0423L163.708 94.1261C163.824 94.6861 164.045 95.2193 164.358 95.6981L163.792 96.3793L165.002 97.5898L165.689 97.0238C166.166 97.3404 166.7 97.5628 167.261 97.6788L167.344 98.5644H169.053L169.136 97.6788C169.697 97.5628 170.231 97.3404 170.708 97.0238L171.39 97.5898L172.6 96.3793L172.039 95.6981C172.352 95.2193 172.573 94.6861 172.689 94.1261L173.575 94.0423V92.3288L172.689 92.245C172.571 91.6856 172.351 91.1527 172.039 90.673L172.6 89.9918L171.39 88.7813L170.708 89.3472C170.23 89.0328 169.697 88.8106 169.136 88.6922L169.053 87.8119H167.344L167.261 88.6922C166.7 88.8106 166.167 89.0328 165.689 89.3472L165.002 88.7813L163.792 89.9918L164.358 90.6782ZM169.776 91.6266C170.088 91.9378 170.301 92.3346 170.387 92.7668C170.474 93.199 170.43 93.6472 170.262 94.0545C170.094 94.4619 169.808 94.8102 169.442 95.0552C169.075 95.3003 168.645 95.4311 168.204 95.4311C167.763 95.4311 167.332 95.3003 166.966 95.0552C166.599 94.8102 166.314 94.4619 166.146 94.0545C165.977 93.6472 165.934 93.199 166.02 92.7668C166.107 92.3346 166.32 91.9378 166.632 91.6266C167.049 91.2107 167.614 90.9771 168.204 90.9771C168.793 90.9771 169.358 91.2107 169.776 91.6266Z" fill="white"/>
<path d="M92.7477 157.499C92.4366 157.978 92.2163 158.511 92.098 159.071L91.2124 159.155V160.868L92.098 160.952C92.2154 161.512 92.4357 162.045 92.7477 162.524L92.187 163.205L93.3975 164.415L94.0787 163.85C94.5561 164.166 95.0897 164.388 95.6507 164.505L95.7345 165.39H97.4637L97.5476 164.505C98.1085 164.388 98.6421 164.166 99.1196 163.85L99.806 164.415L101.016 163.205L100.451 162.524C100.765 162.046 100.985 161.512 101.1 160.952L101.986 160.868V159.155L101.1 159.071C100.984 158.511 100.764 157.977 100.451 157.499L101.016 156.817L99.806 155.628L99.1196 156.152C98.641 155.838 98.1078 155.615 97.5476 155.497L97.4637 154.617H95.7555L95.6716 155.497C95.1114 155.615 94.5782 155.838 94.0996 156.152L93.4184 155.586L92.208 156.797L92.7477 157.499ZM98.1764 158.447C98.4886 158.758 98.7014 159.155 98.788 159.587C98.8746 160.019 98.8309 160.468 98.6626 160.875C98.4942 161.282 98.2088 161.631 97.8424 161.876C97.476 162.121 97.0451 162.252 96.6044 162.252C96.1636 162.252 95.7327 162.121 95.3663 161.876C94.9999 161.631 94.7145 161.282 94.5461 160.875C94.3778 160.468 94.3342 160.019 94.4207 159.587C94.5073 159.155 94.7201 158.758 95.0324 158.447C95.4498 158.031 96.0151 157.798 96.6044 157.798C97.1937 157.798 97.7589 158.031 98.1764 158.447Z" fill="#56B5E6"/>
<path opacity="0.7" d="M92.7477 157.499C92.4366 157.978 92.2163 158.511 92.098 159.071L91.2124 159.155V160.868L92.098 160.952C92.2154 161.512 92.4357 162.045 92.7477 162.524L92.187 163.205L93.3975 164.415L94.0787 163.85C94.5561 164.166 95.0897 164.388 95.6507 164.505L95.7345 165.39H97.4637L97.5476 164.505C98.1085 164.388 98.6421 164.166 99.1196 163.85L99.806 164.415L101.016 163.205L100.451 162.524C100.765 162.046 100.985 161.512 101.1 160.952L101.986 160.868V159.155L101.1 159.071C100.984 158.511 100.764 157.977 100.451 157.499L101.016 156.817L99.806 155.628L99.1196 156.152C98.641 155.838 98.1078 155.615 97.5476 155.497L97.4637 154.617H95.7555L95.6716 155.497C95.1114 155.615 94.5782 155.838 94.0996 156.152L93.4184 155.586L92.208 156.797L92.7477 157.499ZM98.1764 158.447C98.4886 158.758 98.7014 159.155 98.788 159.587C98.8746 160.019 98.8309 160.468 98.6626 160.875C98.4942 161.282 98.2088 161.631 97.8424 161.876C97.476 162.121 97.0451 162.252 96.6044 162.252C96.1636 162.252 95.7327 162.121 95.3663 161.876C94.9999 161.631 94.7145 161.282 94.5461 160.875C94.3778 160.468 94.3342 160.019 94.4207 159.587C94.5073 159.155 94.7201 158.758 95.0324 158.447C95.4498 158.031 96.0151 157.798 96.6044 157.798C97.1937 157.798 97.7589 158.031 98.1764 158.447Z" fill="white"/>
<path d="M104.538 108.096C102.261 111.573 100.661 115.449 99.8218 119.519L93.4395 120.122V132.478L99.8218 133.096C100.662 137.168 102.262 141.045 104.538 144.524L100.461 149.445L109.201 158.185L114.122 154.108C117.601 156.385 121.478 157.984 125.55 158.824L126.153 165.207H138.509L139.111 158.824C143.182 157.986 147.058 156.385 150.534 154.108L155.46 158.185L164.2 149.445L160.124 144.524C162.401 141.046 164.001 137.168 164.84 133.096L171.217 132.493V120.122L164.84 119.519C164 115.449 162.4 111.573 160.124 108.096L164.2 103.17L155.46 94.4353L150.534 98.5068C147.057 96.2307 143.182 94.6308 139.111 93.7908L138.509 87.4084H126.153L125.55 93.796C121.478 94.636 117.601 96.2359 114.122 98.512L109.201 94.4353L100.461 103.176L104.538 108.096ZM146.521 112.136C149.328 114.943 151.239 118.519 152.014 122.412C152.789 126.305 152.391 130.34 150.873 134.008C149.354 137.675 146.781 140.81 143.481 143.015C140.18 145.22 136.3 146.397 132.331 146.397C128.361 146.397 124.481 145.22 121.181 143.015C117.88 140.81 115.308 137.675 113.789 134.008C112.27 130.34 111.873 126.305 112.647 122.412C113.422 118.519 115.334 114.943 118.141 112.136C121.905 108.374 127.009 106.261 132.331 106.261C137.652 106.261 142.756 108.374 146.521 112.136Z" fill="#56B5E6"/>
<path d="M114.122 128.841C114.057 128.841 113.994 128.817 113.945 128.774C113.897 128.73 113.866 128.67 113.86 128.605C113.563 125.969 113.808 123.299 114.58 120.761C115.352 118.222 116.635 115.869 118.351 113.844C118.373 113.818 118.4 113.797 118.431 113.781C118.461 113.765 118.495 113.756 118.529 113.753C118.564 113.751 118.598 113.755 118.631 113.765C118.663 113.776 118.694 113.793 118.72 113.815C118.746 113.838 118.768 113.865 118.783 113.896C118.799 113.926 118.808 113.96 118.811 113.994C118.814 114.028 118.809 114.063 118.799 114.096C118.788 114.128 118.771 114.159 118.749 114.185C117.079 116.155 115.831 118.446 115.08 120.917C114.329 123.388 114.092 125.987 114.384 128.553C114.39 128.622 114.368 128.691 114.324 128.745C114.28 128.799 114.217 128.833 114.148 128.841H114.122Z" fill="#56B5E6"/>
<path d="M115.007 132.981C114.95 132.982 114.895 132.964 114.849 132.929C114.804 132.895 114.771 132.847 114.756 132.792C114.54 132.062 114.365 131.32 114.232 130.57C114.226 130.536 114.226 130.501 114.234 130.466C114.241 130.432 114.255 130.4 114.275 130.371C114.295 130.343 114.32 130.318 114.35 130.299C114.379 130.28 114.412 130.267 114.447 130.261C114.481 130.255 114.516 130.256 114.55 130.263C114.585 130.27 114.617 130.285 114.646 130.305C114.674 130.324 114.699 130.35 114.718 130.379C114.737 130.409 114.75 130.442 114.756 130.476C114.891 131.208 115.066 131.932 115.28 132.645C115.299 132.712 115.291 132.784 115.258 132.845C115.225 132.906 115.168 132.951 115.102 132.97C115.072 132.982 115.039 132.985 115.007 132.981Z" fill="#56B5E6"/>
<path d="M89.6459 125.425H67.2449C67.1754 125.425 67.1088 125.397 67.0596 125.348C67.0105 125.299 66.9829 125.232 66.9829 125.163V98.9312C66.9829 98.8617 67.0105 98.7951 67.0596 98.7459C67.1088 98.6968 67.1754 98.6692 67.2449 98.6692C67.3144 98.6692 67.381 98.6968 67.4302 98.7459C67.4793 98.7951 67.5069 98.8617 67.5069 98.9312V124.901H89.6459C89.7154 124.901 89.782 124.928 89.8312 124.977C89.8803 125.026 89.9079 125.093 89.9079 125.163C89.9066 125.232 89.8785 125.298 89.8297 125.346C89.7808 125.395 89.715 125.423 89.6459 125.425Z" fill="#56B5E6"/>
<path d="M67.2448 100.273C67.9856 100.273 68.5862 99.672 68.5862 98.9312C68.5862 98.1903 67.9856 97.5898 67.2448 97.5898C66.5039 97.5898 65.9033 98.1903 65.9033 98.9312C65.9033 99.672 66.5039 100.273 67.2448 100.273Z" fill="#56B5E6"/>
<path d="M203.941 147.234C204.681 147.234 205.282 146.633 205.282 145.892C205.282 145.151 204.681 144.551 203.941 144.551C203.2 144.551 202.599 145.151 202.599 145.892C202.599 146.633 203.2 147.234 203.941 147.234Z" fill="#56B5E6"/>
<path d="M204.203 156.362H170.866V141.999H166.213V141.475H171.39V155.838H203.679V145.698H204.203V156.362Z" fill="#56B5E6"/>
<path d="M245.693 160.024H188.635V214.751H245.693V160.024Z" fill="#56B5E6"/>
<path opacity="0.4" d="M245.693 160.024H188.635V214.751H245.693V160.024Z" fill="white"/>
<path opacity="0.4" d="M245.688 160.024H206.796V214.751H245.688V160.024Z" fill="white"/>
<path d="M243.744 162.823H208.741V169.598H243.744V162.823Z" fill="#56B5E6"/>
<path d="M243.744 171.296H208.741V178.071H243.744V171.296Z" fill="#56B5E6"/>
<path d="M243.744 179.763H208.741V186.539H243.744V179.763Z" fill="#56B5E6"/>
<path d="M243.744 188.237H208.741V195.012H243.744V188.237Z" fill="#56B5E6"/>
<path d="M243.744 196.71H208.741V203.485H243.744V196.71Z" fill="#56B5E6"/>
<path d="M243.744 205.183H208.741V211.958H243.744V205.183Z" fill="#56B5E6"/>
<path d="M204.764 162.823H190.673V169.598H204.764V162.823Z" fill="#56B5E6"/>
<path d="M204.764 171.296H190.673V178.071H204.764V171.296Z" fill="#56B5E6"/>
<path d="M204.764 179.763H190.673V186.539H204.764V179.763Z" fill="#56B5E6"/>
<path d="M204.764 188.237H190.673V195.012H204.764V188.237Z" fill="#56B5E6"/>
<path d="M204.764 196.71H190.673V203.485H204.764V196.71Z" fill="#56B5E6"/>
<path d="M204.764 205.183H190.673V211.958H204.764V205.183Z" fill="#56B5E6"/>
<path opacity="0.3" d="M242.03 163.703H241.213V168.718H242.03V163.703Z" fill="white"/>
<path opacity="0.3" d="M240.459 163.703H239.641V168.718H240.459V163.703Z" fill="white"/>
<path opacity="0.3" d="M238.886 163.703H238.069V168.718H238.886V163.703Z" fill="white"/>
<path opacity="0.3" d="M237.315 163.703H236.497V168.718H237.315V163.703Z" fill="white"/>
<path opacity="0.3" d="M235.742 163.703H234.925V168.718H235.742V163.703Z" fill="white"/>
<path opacity="0.3" d="M242.03 172.176H241.213V177.185H242.03V172.176Z" fill="white"/>
<path opacity="0.3" d="M240.459 172.176H239.641V177.185H240.459V172.176Z" fill="white"/>
<path opacity="0.3" d="M238.886 172.176H238.069V177.185H238.886V172.176Z" fill="white"/>
<path opacity="0.3" d="M237.315 172.176H236.497V177.185H237.315V172.176Z" fill="white"/>
<path opacity="0.3" d="M235.742 172.176H234.925V177.185H235.742V172.176Z" fill="white"/>
<path opacity="0.3" d="M242.03 180.649H241.213V185.658H242.03V180.649Z" fill="white"/>
<path opacity="0.3" d="M240.459 180.649H239.641V185.658H240.459V180.649Z" fill="white"/>
<path opacity="0.3" d="M238.886 180.649H238.069V185.658H238.886V180.649Z" fill="white"/>
<path opacity="0.3" d="M237.315 180.649H236.497V185.658H237.315V180.649Z" fill="white"/>
<path opacity="0.3" d="M235.742 180.649H234.925V185.658H235.742V180.649Z" fill="white"/>
<path opacity="0.3" d="M242.03 189.122H241.213V194.137H242.03V189.122Z" fill="white"/>
<path opacity="0.3" d="M240.459 189.122H239.641V194.137H240.459V189.122Z" fill="white"/>
<path opacity="0.3" d="M238.886 189.122H238.069V194.137H238.886V189.122Z" fill="white"/>
<path opacity="0.3" d="M237.315 189.122H236.497V194.137H237.315V189.122Z" fill="white"/>
<path opacity="0.3" d="M235.742 189.122H234.925V194.137H235.742V189.122Z" fill="white"/>
<path opacity="0.3" d="M242.03 197.595H241.213V202.605H242.03V197.595Z" fill="white"/>
<path opacity="0.3" d="M240.459 197.595H239.641V202.605H240.459V197.595Z" fill="white"/>
<path opacity="0.3" d="M238.886 197.595H238.069V202.605H238.886V197.595Z" fill="white"/>
<path opacity="0.3" d="M237.315 197.595H236.497V202.605H237.315V197.595Z" fill="white"/>
<path opacity="0.3" d="M235.742 197.595H234.925V202.605H235.742V197.595Z" fill="white"/>
<path opacity="0.3" d="M242.03 206.063H241.213V211.078H242.03V206.063Z" fill="white"/>
<path opacity="0.3" d="M240.459 206.063H239.641V211.078H240.459V206.063Z" fill="white"/>
<path opacity="0.3" d="M238.886 206.063H238.069V211.078H238.886V206.063Z" fill="white"/>
<path opacity="0.3" d="M237.315 206.063H236.497V211.078H237.315V206.063Z" fill="white"/>
<path opacity="0.3" d="M235.742 206.063H234.925V211.078H235.742V206.063Z" fill="white"/>
<path opacity="0.2" d="M212.812 166.208C212.812 166.372 212.763 166.533 212.672 166.67C212.58 166.807 212.45 166.914 212.298 166.977C212.146 167.04 211.978 167.057 211.817 167.025C211.655 166.993 211.507 166.913 211.39 166.797C211.274 166.68 211.194 166.532 211.162 166.37C211.13 166.208 211.146 166.041 211.209 165.889C211.272 165.736 211.379 165.606 211.516 165.515C211.653 165.423 211.814 165.374 211.979 165.374C212.2 165.374 212.412 165.462 212.568 165.618C212.725 165.775 212.812 165.987 212.812 166.208Z" fill="white"/>
<path opacity="0.2" d="M218.052 166.208C218.052 166.372 218.003 166.533 217.912 166.67C217.82 166.807 217.69 166.914 217.538 166.977C217.385 167.04 217.218 167.057 217.056 167.025C216.895 166.993 216.746 166.913 216.63 166.797C216.513 166.68 216.434 166.532 216.402 166.37C216.37 166.208 216.386 166.041 216.449 165.889C216.512 165.736 216.619 165.606 216.756 165.515C216.893 165.423 217.054 165.374 217.219 165.374C217.44 165.374 217.652 165.462 217.808 165.618C217.964 165.775 218.052 165.987 218.052 166.208Z" fill="white"/>
<path opacity="0.4" d="M223.292 166.208C223.292 166.372 223.243 166.533 223.152 166.67C223.06 166.807 222.93 166.914 222.778 166.977C222.626 167.04 222.458 167.057 222.297 167.025C222.135 166.993 221.987 166.913 221.87 166.797C221.753 166.68 221.674 166.532 221.642 166.37C221.61 166.208 221.626 166.041 221.689 165.889C221.752 165.736 221.859 165.606 221.996 165.515C222.133 165.423 222.294 165.374 222.459 165.374C222.68 165.374 222.892 165.462 223.048 165.618C223.205 165.775 223.292 165.987 223.292 166.208Z" fill="white"/>
<path opacity="0.4" d="M212.812 174.681C212.812 174.845 212.763 175.007 212.672 175.144C212.58 175.281 212.45 175.387 212.298 175.45C212.146 175.513 211.978 175.53 211.817 175.498C211.655 175.466 211.507 175.386 211.39 175.27C211.274 175.153 211.194 175.005 211.162 174.843C211.13 174.682 211.146 174.514 211.209 174.362C211.272 174.21 211.379 174.079 211.516 173.988C211.653 173.896 211.814 173.847 211.979 173.847C212.2 173.847 212.412 173.935 212.568 174.091C212.725 174.248 212.812 174.46 212.812 174.681Z" fill="white"/>
<path opacity="0.2" d="M218.052 174.681C218.052 174.845 218.003 175.007 217.912 175.144C217.82 175.281 217.69 175.387 217.538 175.45C217.385 175.513 217.218 175.53 217.056 175.498C216.895 175.466 216.746 175.386 216.63 175.27C216.513 175.153 216.434 175.005 216.402 174.843C216.37 174.682 216.386 174.514 216.449 174.362C216.512 174.21 216.619 174.079 216.756 173.988C216.893 173.896 217.054 173.847 217.219 173.847C217.44 173.847 217.652 173.935 217.808 174.091C217.964 174.248 218.052 174.46 218.052 174.681Z" fill="white"/>
<path opacity="0.4" d="M223.292 174.681C223.292 174.845 223.243 175.007 223.152 175.144C223.06 175.281 222.93 175.387 222.778 175.45C222.626 175.513 222.458 175.53 222.297 175.498C222.135 175.466 221.987 175.386 221.87 175.27C221.753 175.153 221.674 175.005 221.642 174.843C221.61 174.682 221.626 174.514 221.689 174.362C221.752 174.21 221.859 174.079 221.996 173.988C222.133 173.896 222.294 173.847 222.459 173.847C222.68 173.847 222.892 173.935 223.048 174.091C223.205 174.248 223.292 174.46 223.292 174.681Z" fill="white"/>
<path opacity="0.2" d="M212.812 183.154C212.812 183.318 212.763 183.48 212.672 183.617C212.58 183.754 212.45 183.86 212.298 183.923C212.146 183.987 211.978 184.003 211.817 183.971C211.655 183.939 211.507 183.859 211.39 183.743C211.274 183.626 211.194 183.478 211.162 183.316C211.13 183.155 211.146 182.987 211.209 182.835C211.272 182.683 211.379 182.553 211.516 182.461C211.653 182.369 211.814 182.321 211.979 182.321C212.2 182.321 212.412 182.408 212.568 182.565C212.725 182.721 212.812 182.933 212.812 183.154Z" fill="white"/>
<path opacity="0.4" d="M218.052 183.154C218.052 183.318 218.003 183.48 217.912 183.617C217.82 183.754 217.69 183.86 217.538 183.923C217.385 183.987 217.218 184.003 217.056 183.971C216.895 183.939 216.746 183.859 216.63 183.743C216.513 183.626 216.434 183.478 216.402 183.316C216.37 183.155 216.386 182.987 216.449 182.835C216.512 182.683 216.619 182.553 216.756 182.461C216.893 182.369 217.054 182.321 217.219 182.321C217.44 182.321 217.652 182.408 217.808 182.565C217.964 182.721 218.052 182.933 218.052 183.154Z" fill="white"/>
<path opacity="0.2" d="M223.292 183.154C223.292 183.318 223.243 183.48 223.152 183.617C223.06 183.754 222.93 183.86 222.778 183.923C222.626 183.987 222.458 184.003 222.297 183.971C222.135 183.939 221.987 183.859 221.87 183.743C221.753 183.626 221.674 183.478 221.642 183.316C221.61 183.155 221.626 182.987 221.689 182.835C221.752 182.683 221.859 182.553 221.996 182.461C222.133 182.369 222.294 182.321 222.459 182.321C222.68 182.321 222.892 182.408 223.048 182.565C223.205 182.721 223.292 182.933 223.292 183.154Z" fill="white"/>
<path opacity="0.4" d="M212.812 191.627C212.812 191.792 212.763 191.953 212.672 192.09C212.58 192.227 212.45 192.333 212.298 192.397C212.146 192.46 211.978 192.476 211.817 192.444C211.655 192.412 211.507 192.332 211.39 192.216C211.274 192.099 211.194 191.951 211.162 191.789C211.13 191.628 211.146 191.46 211.209 191.308C211.272 191.156 211.379 191.026 211.516 190.934C211.653 190.842 211.814 190.794 211.979 190.794C212.2 190.794 212.412 190.881 212.568 191.038C212.725 191.194 212.812 191.406 212.812 191.627Z" fill="white"/>
<path opacity="0.2" d="M218.052 191.627C218.052 191.792 218.003 191.953 217.912 192.09C217.82 192.227 217.69 192.333 217.538 192.397C217.385 192.46 217.218 192.476 217.056 192.444C216.895 192.412 216.746 192.332 216.63 192.216C216.513 192.099 216.434 191.951 216.402 191.789C216.37 191.628 216.386 191.46 216.449 191.308C216.512 191.156 216.619 191.026 216.756 190.934C216.893 190.842 217.054 190.794 217.219 190.794C217.44 190.794 217.652 190.881 217.808 191.038C217.964 191.194 218.052 191.406 218.052 191.627Z" fill="white"/>
<path opacity="0.2" d="M223.292 191.627C223.292 191.792 223.243 191.953 223.152 192.09C223.06 192.227 222.93 192.333 222.778 192.397C222.626 192.46 222.458 192.476 222.297 192.444C222.135 192.412 221.987 192.332 221.87 192.216C221.753 192.099 221.674 191.951 221.642 191.789C221.61 191.628 221.626 191.46 221.689 191.308C221.752 191.156 221.859 191.026 221.996 190.934C222.133 190.842 222.294 190.794 222.459 190.794C222.68 190.794 222.892 190.881 223.048 191.038C223.205 191.194 223.292 191.406 223.292 191.627Z" fill="white"/>
<path opacity="0.2" d="M212.812 200.1C212.812 200.265 212.763 200.426 212.672 200.563C212.58 200.7 212.45 200.807 212.298 200.87C212.146 200.933 211.978 200.949 211.817 200.917C211.655 200.885 211.507 200.806 211.39 200.689C211.274 200.572 211.194 200.424 211.162 200.262C211.13 200.101 211.146 199.933 211.209 199.781C211.272 199.629 211.379 199.499 211.516 199.407C211.653 199.316 211.814 199.267 211.979 199.267C212.2 199.267 212.412 199.354 212.568 199.511C212.725 199.667 212.812 199.879 212.812 200.1Z" fill="white"/>
<path opacity="0.4" d="M218.052 200.1C218.052 200.265 218.003 200.426 217.912 200.563C217.82 200.7 217.69 200.807 217.538 200.87C217.385 200.933 217.218 200.949 217.056 200.917C216.895 200.885 216.746 200.806 216.63 200.689C216.513 200.572 216.434 200.424 216.402 200.262C216.37 200.101 216.386 199.933 216.449 199.781C216.512 199.629 216.619 199.499 216.756 199.407C216.893 199.316 217.054 199.267 217.219 199.267C217.44 199.267 217.652 199.354 217.808 199.511C217.964 199.667 218.052 199.879 218.052 200.1Z" fill="white"/>
<path opacity="0.4" d="M223.292 200.1C223.292 200.265 223.243 200.426 223.152 200.563C223.06 200.7 222.93 200.807 222.778 200.87C222.626 200.933 222.458 200.949 222.297 200.917C222.135 200.885 221.987 200.806 221.87 200.689C221.753 200.572 221.674 200.424 221.642 200.262C221.61 200.101 221.626 199.933 221.689 199.781C221.752 199.629 221.859 199.499 221.996 199.407C222.133 199.316 222.294 199.267 222.459 199.267C222.68 199.267 222.892 199.354 223.048 199.511C223.205 199.667 223.292 199.879 223.292 200.1Z" fill="white"/>
<path opacity="0.4" d="M212.812 208.552C212.812 208.717 212.763 208.878 212.672 209.015C212.58 209.152 212.45 209.259 212.298 209.322C212.146 209.385 211.978 209.401 211.817 209.369C211.655 209.337 211.507 209.258 211.39 209.141C211.274 209.025 211.194 208.876 211.162 208.715C211.13 208.553 211.146 208.385 211.209 208.233C211.272 208.081 211.379 207.951 211.516 207.859C211.653 207.768 211.814 207.719 211.979 207.719C212.2 207.719 212.412 207.807 212.568 207.963C212.725 208.119 212.812 208.331 212.812 208.552Z" fill="white"/>
<path opacity="0.2" d="M218.052 208.552C218.052 208.717 218.003 208.878 217.912 209.015C217.82 209.152 217.69 209.259 217.538 209.322C217.385 209.385 217.218 209.401 217.056 209.369C216.895 209.337 216.746 209.258 216.63 209.141C216.513 209.025 216.434 208.876 216.402 208.715C216.37 208.553 216.386 208.385 216.449 208.233C216.512 208.081 216.619 207.951 216.756 207.859C216.893 207.768 217.054 207.719 217.219 207.719C217.44 207.719 217.652 207.807 217.808 207.963C217.964 208.119 218.052 208.331 218.052 208.552Z" fill="white"/>
<path opacity="0.4" d="M223.292 208.552C223.292 208.717 223.243 208.878 223.152 209.015C223.06 209.152 222.93 209.259 222.778 209.322C222.626 209.385 222.458 209.401 222.297 209.369C222.135 209.337 221.987 209.258 221.87 209.141C221.753 209.025 221.674 208.876 221.642 208.715C221.61 208.553 221.626 208.385 221.689 208.233C221.752 208.081 221.859 207.951 221.996 207.859C222.133 207.768 222.294 207.719 222.459 207.719C222.68 207.719 222.892 207.807 223.048 207.963C223.205 208.119 223.292 208.331 223.292 208.552Z" fill="white"/>
<path opacity="0.3" d="M206.797 160.024H188.635V214.751H206.797V160.024Z" fill="black"/>
<path d="M241.118 91.8362H188.09C186.66 91.8362 185.501 92.9952 185.501 94.4248V138.189C185.501 139.619 186.66 140.778 188.09 140.778H241.118C242.548 140.778 243.707 139.619 243.707 138.189V94.4248C243.707 92.9952 242.548 91.8362 241.118 91.8362Z" fill="#56B5E6"/>
<path opacity="0.5" d="M241.118 91.8362H188.09C186.66 91.8362 185.501 92.9952 185.501 94.4248V138.189C185.501 139.619 186.66 140.778 188.09 140.778H241.118C242.548 140.778 243.707 139.619 243.707 138.189V94.4248C243.707 92.9952 242.548 91.8362 241.118 91.8362Z" fill="white"/>
<path d="M187.927 91.8362H241.323C241.955 91.8362 242.562 92.0874 243.009 92.5346C243.456 92.9817 243.707 93.5881 243.707 94.2204V100.372H185.496V94.2624C185.496 93.9433 185.559 93.6274 185.681 93.3327C185.804 93.038 185.983 92.7703 186.209 92.545C186.434 92.3196 186.702 92.141 186.997 92.0194C187.292 91.8978 187.608 91.8356 187.927 91.8362Z" fill="#56B5E6"/>
<path opacity="0.5" d="M240.416 96.7252C240.417 97.0946 240.309 97.4559 240.104 97.7635C239.9 98.0711 239.608 98.311 239.267 98.4528C238.926 98.5947 238.551 98.6321 238.188 98.5603C237.826 98.4884 237.493 98.3107 237.232 98.0495C236.971 97.7883 236.793 97.4554 236.721 97.093C236.649 96.7307 236.687 96.3552 236.829 96.0141C236.97 95.673 237.21 95.3817 237.518 95.1772C237.825 94.9726 238.187 94.8639 238.556 94.865C238.801 94.865 239.042 94.9131 239.268 95.0066C239.494 95.1001 239.699 95.2371 239.872 95.4098C240.044 95.5825 240.181 95.7876 240.275 96.0133C240.368 96.239 240.416 96.4809 240.416 96.7252Z" fill="white"/>
<path opacity="0.5" d="M235.124 96.7252C235.125 97.0943 235.016 97.4555 234.812 97.763C234.608 98.0704 234.317 98.3103 233.976 98.4523C233.635 98.5943 233.26 98.632 232.898 98.5606C232.536 98.4892 232.203 98.312 231.941 98.0513C231.68 97.7906 231.502 97.4583 231.429 97.0963C231.357 96.7343 231.394 96.3589 231.535 96.0177C231.676 95.6766 231.915 95.3849 232.222 95.1797C232.528 94.9745 232.889 94.865 233.258 94.865C233.752 94.865 234.226 95.0608 234.576 95.4095C234.925 95.7582 235.123 96.2313 235.124 96.7252Z" fill="white"/>
<path opacity="0.5" d="M229.827 96.7252C229.828 97.0946 229.719 97.4559 229.514 97.7635C229.31 98.0711 229.019 98.311 228.677 98.4528C228.336 98.5947 227.961 98.6321 227.598 98.5603C227.236 98.4884 226.903 98.3107 226.642 98.0495C226.381 97.7883 226.203 97.4554 226.131 97.093C226.059 96.7307 226.097 96.3552 226.239 96.0141C226.381 95.673 226.62 95.3817 226.928 95.1772C227.236 94.9726 227.597 94.8639 227.966 94.865C228.211 94.865 228.453 94.9131 228.678 95.0066C228.904 95.1001 229.109 95.2371 229.282 95.4098C229.454 95.5825 229.591 95.7876 229.685 96.0133C229.778 96.239 229.827 96.4809 229.827 96.7252Z" fill="white"/>
<path opacity="0.6" d="M228.453 107.504H198.601V109.244H228.453V107.504Z" fill="white"/>
<path opacity="0.6" d="M220.426 111.266H199.062V113.006H220.426V111.266Z" fill="#263238"/>
<path d="M236.523 107.504H230.649V109.244H236.523V107.504Z" fill="#56B5E6"/>
<path d="M196.526 107.504H190.652V109.244H196.526V107.504Z" fill="#56B5E6"/>
<path d="M228.453 115.442H198.601V117.182H228.453V115.442Z" fill="#56B5E6"/>
<path opacity="0.6" d="M236.523 115.442H230.649V117.182H236.523V115.442Z" fill="white"/>
<path d="M196.526 115.442H190.652V117.182H196.526V115.442Z" fill="#56B5E6"/>
<path d="M228.453 131.98H198.601V133.72H228.453V131.98Z" fill="#56B5E6"/>
<path opacity="0.6" d="M236.523 131.98H230.649V133.72H236.523V131.98Z" fill="white"/>
<path d="M228.453 119.624H198.601V121.364H228.453V119.624Z" fill="#56B5E6"/>
<path opacity="0.6" d="M236.523 119.624H230.649V121.364H236.523V119.624Z" fill="#263238"/>
<path opacity="0.6" d="M196.526 119.624H190.652V121.364H196.526V119.624Z" fill="#263238"/>
<path d="M236.953 111.334H222.763V113.074H236.953V111.334Z" fill="#56B5E6"/>
<path opacity="0.6" d="M219.965 123.271H198.601V125.011H219.965V123.271Z" fill="white"/>
<path d="M236.492 123.339H222.302V125.079H236.492V123.339Z" fill="#56B5E6"/>
<path opacity="0.6" d="M209.28 127.049H198.601V128.789H209.28V127.049Z" fill="#263238"/>
<path d="M83.2321 41.7366H30.2033C28.7737 41.7366 27.6147 42.8955 27.6147 44.3252V88.0896C27.6147 89.5193 28.7737 90.6782 30.2033 90.6782H83.2321C84.6617 90.6782 85.8207 89.5193 85.8207 88.0896V44.3252C85.8207 42.8955 84.6617 41.7366 83.2321 41.7366Z" fill="#56B5E6"/>
<path opacity="0.5" d="M83.2321 41.7366H30.2033C28.7737 41.7366 27.6147 42.8955 27.6147 44.3252V88.0896C27.6147 89.5193 28.7737 90.6782 30.2033 90.6782H83.2321C84.6617 90.6782 85.8207 89.5193 85.8207 88.0896V44.3252C85.8207 42.8955 84.6617 41.7366 83.2321 41.7366Z" fill="white"/>
<path d="M30.0356 41.7366H83.4365C84.0688 41.7366 84.6752 41.9878 85.1224 42.4349C85.5695 42.882 85.8207 43.4885 85.8207 44.1208V50.2726H27.6147V44.1627C27.6147 43.5202 27.8696 42.9039 28.3235 42.449C28.7773 41.9942 29.3931 41.738 30.0356 41.7366Z" fill="#56B5E6"/>
<path opacity="0.5" d="M82.5297 46.636C82.5286 47.0061 82.4175 47.3674 82.2105 47.6741C82.0034 47.9809 81.7098 48.2191 81.3671 48.3585C81.0243 48.4979 80.6478 48.5322 80.2854 48.4571C79.9231 48.3819 79.5913 48.2007 79.3322 47.9364C79.0731 47.6722 78.8985 47.3369 78.8306 46.9731C78.7626 46.6094 78.8044 46.2336 78.9505 45.8936C79.0967 45.5537 79.3407 45.2649 79.6514 45.064C79.9622 44.863 80.3257 44.7591 80.6957 44.7653C81.1863 44.7722 81.6543 44.9727 81.9979 45.3231C82.3414 45.6734 82.5325 46.1453 82.5297 46.636Z" fill="white"/>
<path opacity="0.5" d="M77.2377 46.636C77.2377 47.0049 77.1283 47.3656 76.9233 47.6724C76.7184 47.9792 76.427 48.2182 76.0861 48.3594C75.7453 48.5006 75.3702 48.5376 75.0083 48.4656C74.6465 48.3936 74.3141 48.216 74.0532 47.9551C73.7923 47.6942 73.6147 47.3618 73.5427 46.9999C73.4707 46.6381 73.5076 46.263 73.6488 45.9221C73.79 45.5813 74.0291 45.2899 74.3359 45.0849C74.6427 44.88 75.0033 44.7706 75.3723 44.7706C75.6174 44.7699 75.8603 44.8176 76.087 44.9111C76.3136 45.0046 76.5195 45.142 76.6929 45.3154C76.8662 45.4888 77.0036 45.6947 77.0971 45.9213C77.1906 46.1479 77.2384 46.3908 77.2377 46.636Z" fill="white"/>
<path opacity="0.5" d="M71.9399 46.636C71.9399 47.0052 71.8303 47.366 71.6251 47.6729C71.4199 47.9798 71.1283 48.2189 70.7871 48.3599C70.4459 48.501 70.0706 48.5376 69.7086 48.4652C69.3466 48.3928 69.0142 48.2146 68.7535 47.9532C68.4928 47.6918 68.3156 47.3589 68.2442 46.9967C68.1728 46.6345 68.2105 46.2593 68.3525 45.9185C68.4945 45.5777 68.7344 45.2867 69.0419 45.0824C69.3493 44.878 69.7105 44.7695 70.0797 44.7706C70.3244 44.7706 70.5667 44.8188 70.7928 44.9127C71.0188 45.0065 71.2241 45.144 71.3969 45.3173C71.5697 45.4905 71.7066 45.6962 71.7998 45.9225C71.8929 46.1488 71.9406 46.3913 71.9399 46.636Z" fill="white"/>
<path d="M75.0578 69.0213C73.1295 66.4327 69.1733 65.1699 66.5376 67.0406C66.1339 64.1464 64.597 61.5312 62.2651 59.7702C59.9331 58.0093 56.9972 57.2468 54.1031 57.6505C51.2089 58.0542 48.5937 59.5911 46.8327 61.923C45.0718 64.2549 44.3093 67.1909 44.713 70.085C42.1663 69.5034 39.3682 70.1164 37.7176 72.7469C35.5692 76.1529 38.3516 79.5327 38.3516 79.5327L53.2856 79.6218V74.146H51.3783C51.3027 74.1468 51.2285 74.1252 51.1652 74.0839C51.1018 74.0425 51.0522 73.9834 51.0225 73.9138C50.9928 73.8443 50.9843 73.7675 50.9982 73.6932C51.0121 73.6189 51.0477 73.5503 51.1005 73.4962L53.2961 71.2011L55.8427 68.5444C55.8789 68.5074 55.9221 68.4779 55.9698 68.4578C56.0174 68.4376 56.0687 68.4273 56.1205 68.4273C56.1722 68.4273 56.2235 68.4376 56.2712 68.4578C56.3189 68.4779 56.3621 68.5074 56.3982 68.5444L58.9396 71.2011L61.1404 73.4962C61.1908 73.5512 61.2243 73.6195 61.2368 73.6931C61.2494 73.7666 61.2405 73.8421 61.2112 73.9107C61.1818 73.9793 61.1334 74.038 61.0716 74.0797C61.0098 74.1214 60.9372 74.1444 60.8627 74.146H58.9501V79.648L74.8482 79.7371C77.1119 77.138 76.9914 71.6098 75.0578 69.0213Z" fill="white"/>
<path d="M52.6724 216.208C52.6724 216.208 98.3233 205.513 100.493 215.018C103.595 228.595 70.6561 237.723 53.1126 237.168C35.5691 236.612 52.6724 216.208 52.6724 216.208Z" fill="#263238"/>
<path opacity="0.2" d="M52.6724 216.208C52.6724 216.208 98.3233 205.513 100.493 215.018C103.595 228.595 70.6561 237.723 53.1126 237.168C35.5691 236.612 52.6724 216.208 52.6724 216.208Z" fill="black"/>
<path opacity="0.7" d="M85.517 217.953L64.0749 231.577L66.9359 235.643C66.9359 235.643 65.4321 237.88 62.5605 231.016L75.823 222.249C75.823 222.249 71.6729 221.835 71.7777 221.201C71.9559 220.153 81.0735 218.105 85.234 217.193C85.3345 217.165 85.4419 217.175 85.5348 217.223C85.6276 217.27 85.6991 217.351 85.7349 217.449C85.7706 217.547 85.7681 217.655 85.7277 217.752C85.6873 217.848 85.612 217.925 85.517 217.968V217.953Z" fill="black"/>
<path opacity="0.7" d="M63.2992 230.036L67.0196 236.062C62.428 236.859 57.7722 237.225 53.1126 237.157C51.5836 237.146 50.0679 236.871 48.6324 236.345L47.3276 233.956L50.1363 228.296L63.2992 230.036Z" fill="black"/>
<path d="M70.3944 227.647L60.8628 233.694L62.571 238.32L73.7637 233.29L70.3944 227.647Z" fill="#B97964"/>
<path d="M55.6123 235.245L56.5503 238.572C56.7623 238.626 56.9576 238.732 57.1185 238.88C57.2795 239.028 57.4011 239.214 57.4725 239.421C57.5016 239.919 57.4448 240.419 57.3048 240.899L59.8095 250.074C60.1139 249.994 60.4077 249.878 60.6846 249.728C60.9529 249.538 61.1974 249.316 61.413 249.068C62.0942 248.287 62.1675 247.15 62.1937 246.311C62.2357 244.907 63.0426 240.794 63.0426 240.794C63.3289 240.003 63.8275 239.307 64.4836 238.782C64.7391 238.597 64.9495 238.356 65.0992 238.079C65.2489 237.801 65.334 237.493 65.3482 237.178C65.3313 237.004 65.2767 236.836 65.1883 236.685C65.0999 236.534 64.9797 236.405 64.8361 236.305C64.6926 236.205 64.529 236.138 64.3569 236.108C64.1847 236.078 64.008 236.085 63.8391 236.13L62.9273 236.24C62.6035 236.01 62.3787 235.666 62.298 235.278C62.2173 234.889 62.2868 234.484 62.4924 234.144C62.4924 234.144 63.0164 232.148 62.1937 232.483C61.7117 232.672 59.6104 233.615 57.9231 234.307L56.8332 234.752L55.6123 235.245Z" fill="#263238"/>
<path d="M62.6914 242.984C62.7031 242.959 62.7063 242.93 62.7006 242.903C62.695 242.876 62.6807 242.851 62.66 242.832C62.4612 242.645 62.2146 242.516 61.9474 242.46C61.8006 242.46 61.7378 242.664 61.8792 242.696C62.1153 242.744 62.3342 242.854 62.5133 243.015C62.5235 243.03 62.5369 243.041 62.5524 243.049C62.5678 243.057 62.585 243.061 62.6024 243.061C62.6197 243.061 62.6369 243.057 62.6524 243.049C62.6678 243.041 62.6812 243.03 62.6914 243.015V242.984Z" fill="#56B5E6"/>
<path d="M62.8802 242.172C62.8919 242.146 62.8951 242.118 62.8894 242.091C62.8838 242.063 62.8695 242.039 62.8488 242.02C62.6502 241.833 62.4033 241.706 62.1362 241.653C61.9894 241.622 61.9213 241.852 62.068 241.884C62.3041 241.932 62.523 242.042 62.7021 242.203C62.7142 242.216 62.7293 242.226 62.746 242.232C62.7627 242.237 62.7805 242.239 62.798 242.236C62.8154 242.234 62.832 242.227 62.8464 242.217C62.8607 242.206 62.8723 242.193 62.8802 242.177V242.172Z" fill="#56B5E6"/>
<path d="M63.0373 241.349C63.0479 241.323 63.0505 241.294 63.0449 241.266C63.0394 241.238 63.0258 241.212 63.0059 241.192C62.8034 241.008 62.5556 240.882 62.288 240.825C62.1465 240.794 62.0784 241.024 62.2251 241.056C62.46 241.106 62.6772 241.218 62.8539 241.381C62.8664 241.393 62.8818 241.403 62.8987 241.408C62.9157 241.413 62.9337 241.415 62.9512 241.412C62.9687 241.408 62.9852 241.401 62.9993 241.39C63.0134 241.379 63.0246 241.365 63.0321 241.349H63.0373Z" fill="#56B5E6"/>
<path opacity="0.2" d="M56.8332 234.752L55.6123 235.276L56.5503 238.603C56.7623 238.657 56.9576 238.763 57.1185 238.911C57.2795 239.06 57.4011 239.245 57.4725 239.452C57.5016 239.951 57.4448 240.451 57.3048 240.93L59.8095 250.105C60.1139 250.025 60.4077 249.909 60.6846 249.759C60.8209 249.66 60.9414 249.56 61.0567 249.461L57.0166 234.7L56.8332 234.752Z" fill="white"/>
<path d="M64.3105 242.02C64.2208 242.019 64.1314 242.01 64.0432 241.994C63.6208 241.839 63.2249 241.62 62.8695 241.344L62.7646 241.276L62.8799 241.229C63.1925 241.105 63.515 241.009 63.8441 240.94C64.1802 240.868 64.5297 240.888 64.8554 240.998C64.9487 241.009 65.0359 241.049 65.1038 241.114C65.1717 241.179 65.2165 241.264 65.2314 241.357C65.2462 241.45 65.2303 241.545 65.1861 241.628C65.1418 241.71 65.0717 241.776 64.9864 241.816C64.7882 241.953 64.5517 242.024 64.3105 242.02ZM63.0424 241.312C63.36 241.551 63.7138 241.737 64.0904 241.863C64.2331 241.895 64.381 241.899 64.5251 241.872C64.6692 241.846 64.8065 241.791 64.9288 241.711C64.9878 241.676 65.0365 241.626 65.0697 241.566C65.1028 241.506 65.1193 241.439 65.1174 241.37C65.086 241.234 64.9288 241.155 64.8345 241.119C64.5284 241.018 64.2013 241 63.886 241.066C63.5981 241.123 63.3157 241.206 63.0424 241.312Z" fill="#56B5E6"/>
<path d="M62.8381 241.381V241.26C62.7909 240.811 62.8103 240.357 62.8957 239.913C62.9504 239.758 63.0356 239.615 63.1463 239.492C63.2569 239.37 63.3908 239.271 63.5402 239.201C63.6171 239.152 63.7075 239.129 63.7984 239.135C63.8893 239.14 63.9759 239.175 64.0459 239.233C64.1159 239.292 64.1655 239.371 64.1876 239.459C64.2098 239.547 64.2032 239.64 64.169 239.725C64.0942 240.061 63.9294 240.371 63.6922 240.621C63.4645 240.864 63.2155 241.087 62.9481 241.286L62.8381 241.381ZM63.7865 239.285C63.7163 239.285 63.6468 239.299 63.5821 239.327C63.449 239.389 63.3299 239.478 63.2318 239.588C63.1336 239.698 63.0586 239.826 63.011 239.966C62.9304 240.348 62.9109 240.741 62.9533 241.129C63.1806 240.955 63.3927 240.762 63.5874 240.553C63.8051 240.318 63.9585 240.031 64.0328 239.72C64.0527 239.657 64.0569 239.59 64.045 239.525C64.0331 239.46 64.0056 239.399 63.9647 239.347C63.9412 239.325 63.9132 239.307 63.8826 239.295C63.852 239.283 63.8193 239.278 63.7865 239.279V239.285Z" fill="#56B5E6"/>
<path d="M71.5314 187.162C71.5314 187.162 73.1977 202.002 73.6274 202.798C75.1365 205.492 85.1187 210.134 85.1187 210.134L90.2068 209.086L93.8748 212.131L91.4696 214.012L88.6505 212.964C87.1112 213.239 85.5505 213.376 83.9869 213.373C81.3669 213.373 68.6809 210.161 66.5639 206.624C64.4469 203.087 63.4775 186.712 63.4775 186.712L71.5314 187.162Z" fill="#B97964"/>
<path d="M63.252 192.994C63.252 192.994 59.3429 179.963 64.2161 176.342C69.0893 172.721 72.9617 190.647 72.9617 190.647L63.252 192.994Z" fill="#56B5E6"/>
<path opacity="0.3" d="M63.252 192.994C63.252 192.994 59.3429 179.963 64.2161 176.342C69.0893 172.721 72.9617 190.647 72.9617 190.647L63.252 192.994Z" fill="white"/>
<path d="M66.3382 216.836L66.3015 199.544L65.8195 175.755L55.722 173.659L46.814 173.266L36.7322 177.924L36.4964 183.73C36.4964 183.73 37.6492 210.381 37.5864 211.188C37.5078 212.173 34.6362 218.351 34.6362 218.351C47.4113 221.264 66.5478 217.717 66.3382 216.836Z" fill="#56B5E6"/>
<path opacity="0.3" d="M66.3382 216.836L66.3015 199.544L65.8195 175.755L55.722 173.659L46.814 173.266L36.7322 177.924L36.4964 183.73C36.4964 183.73 37.6492 210.381 37.5864 211.188C37.5078 212.173 34.6362 218.351 34.6362 218.351C47.4113 221.264 66.5478 217.717 66.3382 216.836Z" fill="white"/>
<path d="M51.8762 177.112C51.8762 177.112 54.3548 179.318 55.6228 176.467L56.2831 176.991C56.2831 176.991 56.2202 179.114 55.015 179.821C55.3084 181 60.3388 198.135 61.2401 206.77L59.8672 210.276L56.1992 207.389C56.1992 207.389 54.4281 192.575 53.8203 179.984C53.1092 179.745 52.4591 179.354 51.9159 178.837C51.3726 178.32 50.9495 177.69 50.6763 176.991L51.8762 177.112Z" fill="#56B5E6"/>
<path opacity="0.2" d="M55.0723 177.416L57.2207 179.087L57.5717 174.073L56.8905 173.926L56.3194 177.306L55.3028 176.714L55.0723 177.416Z" fill="black"/>
<path opacity="0.2" d="M44.7233 174.267C44.6867 174.267 49.7799 180.497 49.7799 180.497L51.5091 179.177L52.6986 178.17L53.0078 177.793L46.2639 173.109C45.9543 173.439 45.6216 173.747 45.2683 174.031C45.0795 174.092 44.8971 174.171 44.7233 174.267Z" fill="black"/>
<path d="M45.085 174.162L47.5478 171.961L54.2916 178.275L52.531 177.652L49.9582 179.627L45.085 174.162Z" fill="#56B5E6"/>
<path d="M54.2915 178.275C54.1448 177.987 54.8155 172.255 54.8155 172.255L57.2049 173.889C57.0792 173.863 56.9953 178.605 56.9167 178.605C56.8381 178.605 55.3447 176.981 55.3447 176.981L54.2915 178.275Z" fill="#56B5E6"/>
<path opacity="0.2" d="M66.1602 192.292L65.6362 181.152L68.1305 191.815L66.1602 192.292Z" fill="black"/>
<path opacity="0.2" d="M44.5399 193.917C44.8543 193.854 46.442 193.33 46.442 193.33L42.9155 183.489L47.773 194.404L44.8543 195.567L44.5399 193.917Z" fill="black"/>
<path opacity="0.3" d="M45.085 174.162L47.5478 171.961L54.2916 178.275L52.531 177.652L49.9582 179.627L45.085 174.162Z" fill="white"/>
<path opacity="0.3" d="M54.2915 178.275C54.1448 177.987 54.8155 172.255 54.8155 172.255L57.2049 173.889C57.0792 173.863 56.9953 178.605 56.9167 178.605C56.8381 178.605 55.3447 176.981 55.3447 176.981L54.2915 178.275Z" fill="white"/>
<path opacity="0.3" d="M58.1167 187.487L59.2485 193.047L62.5445 194.242L64.7715 192.298L64.3628 187.047L58.1167 187.487Z" fill="white"/>
<path d="M54.6953 177.793L53.6473 178.045C53.6473 178.045 53.6106 178.113 53.6473 178.071C53.684 178.029 53.0762 180.046 53.0762 180.046C53.2439 180.198 53.8045 181.168 53.8674 181.152C53.9303 181.136 55.3189 181.005 55.3189 181.005L55.8429 179.538L54.6953 177.793Z" fill="#56B5E6"/>
<path opacity="0.2" d="M54.6953 177.793L53.6473 178.045C53.6473 178.045 53.6106 178.113 53.6473 178.071C53.684 178.029 53.0762 180.046 53.0762 180.046C53.2439 180.198 53.8045 181.168 53.8674 181.152C53.9303 181.136 55.3189 181.005 55.3189 181.005L55.8429 179.538L54.6953 177.793Z" fill="black"/>
<path d="M43.1827 185.753C43.1827 185.753 45.656 202.227 47.0865 203.768C49.5021 206.388 61.4755 213.278 61.4755 213.278L67.4543 211.182C67.6588 211.114 67.8767 211.097 68.0894 211.132C68.302 211.166 68.5031 211.252 68.6753 211.382L72.7625 214.526L72.3747 214.856C72.2906 214.926 72.1879 214.97 72.0791 214.983C71.9702 214.996 71.8599 214.978 71.7616 214.929L71.1276 214.615L71.835 215.306L71.6149 215.5C71.5022 215.594 71.3686 215.659 71.2254 215.69C71.0822 215.721 70.9336 215.717 70.7922 215.678L68.9635 215.186L70.6508 216.312C70.4605 216.469 70.2354 216.576 69.9945 216.626C69.7536 216.677 69.5041 216.668 69.2674 216.601L66.595 215.841C64.7701 216.256 62.9141 216.521 61.0458 216.632C57.9018 216.826 43.0359 211.633 40.264 207.834C37.492 204.035 34.6362 188.216 34.6362 188.216L43.1827 185.753Z" fill="#B97964"/>
<path d="M35.2705 196.715C35.2705 196.715 31.5658 181.781 36.439 178.16C41.3122 174.539 46.1383 193.435 46.1383 193.435L35.2705 196.715Z" fill="#56B5E6"/>
<path opacity="0.3" d="M35.2705 196.715C35.2705 196.715 31.5658 181.781 36.439 178.16C41.3122 174.539 46.1383 193.435 46.1383 193.435L35.2705 196.715Z" fill="white"/>
<path d="M67.1664 158.086C67.477 158.052 67.7653 157.909 67.979 157.681C68.1927 157.453 68.3175 157.156 68.3308 156.844C68.3442 156.532 68.2451 156.225 68.0516 155.98C67.8581 155.735 67.583 155.567 67.2764 155.507L64.3892 155.219C64.5254 157.074 64.6634 158.927 64.8031 160.779C65.3584 160.947 65.9508 160.947 66.5061 160.779C66.7828 160.691 67.035 160.54 67.2425 160.337C67.45 160.134 67.607 159.885 67.7008 159.61C67.7878 159.333 67.7828 159.034 67.6865 158.759C67.5902 158.485 67.4078 158.248 67.1664 158.086Z" fill="#263238"/>
<path d="M56.1255 168.78L49.9161 160.968C49.9161 160.968 49.9161 160.968 49.9161 160.994C49.9161 161.733 49.9161 162.566 49.8323 163.478C49.8323 163.478 49.1616 163.158 49.1616 163.168C48.8943 167.224 47.2909 174.172 47.3643 174.749L53.8881 177.992L55.0775 176.803L55.3081 174.183C54.6426 172.506 55.2609 170.578 56.1255 168.78Z" fill="#B97964"/>
<path opacity="0.2" d="M55.1928 171.416L51.2681 168.314C51.1685 169.886 51.9964 172.375 55.1457 173.664C54.975 172.922 54.9912 172.15 55.1928 171.416Z" fill="black"/>
<path d="M51.2421 157.095C49.9583 162.335 49.471 164.877 51.2421 168.314C53.9407 173.481 60.5379 173.523 63.378 168.738C65.9299 164.436 67.6067 156.566 63.1684 152.987C62.1852 152.201 61.0194 151.677 59.7794 151.463C58.5393 151.248 57.2651 151.351 56.0752 151.761C54.8854 152.17 53.8184 152.874 52.9734 153.807C52.1285 154.74 51.5329 155.871 51.2421 157.095Z" fill="#B97964"/>
<path d="M52.3477 149.958C53.9197 147.338 58.1117 146.914 59.647 148.984C59.8723 149.293 57.3886 149.366 57.6715 149.35L56.2148 153.495C55.9266 153.333 55.214 153.495 54.6114 154.355C54.6114 154.355 53.6734 160.056 50.718 161.649C47.8203 157.645 48.1504 149.969 52.3477 149.958Z" fill="#263238"/>
<path d="M47.8677 160.763C47.874 161.435 48.0134 162.099 48.2778 162.717C48.5422 163.335 48.9264 163.895 49.4082 164.363C50.713 165.605 52.2221 164.641 52.5837 162.974C52.9033 161.471 52.6151 159.008 50.9645 158.4C49.3139 157.792 47.8677 159.097 47.8677 160.763Z" fill="#B97964"/>
<path d="M58.3581 161.502C58.1956 162.026 58.3581 162.55 58.6882 162.644C59.0183 162.739 59.448 162.403 59.6157 161.879C59.7833 161.355 59.6157 160.831 59.2855 160.732C58.9554 160.632 58.5257 160.973 58.3581 161.502Z" fill="#263238"/>
<path d="M63.5353 163.184C63.3729 163.708 63.5353 164.232 63.8654 164.326C64.1955 164.421 64.6305 164.085 64.7929 163.561C64.9553 163.037 64.7929 162.513 64.4628 162.414C64.1327 162.314 63.703 162.655 63.5353 163.184Z" fill="#263238"/>
<path d="M61.7113 161.775C61.7113 161.775 62.3716 164.18 62.6703 165.605C62.6879 165.685 62.6878 165.768 62.67 165.849C62.6522 165.929 62.6172 166.004 62.5673 166.07C62.5175 166.135 62.454 166.189 62.3812 166.227C62.3085 166.265 62.2283 166.287 62.1463 166.291C61.6298 166.28 61.124 166.141 60.6738 165.888L61.7113 161.775Z" fill="#A24E3F"/>
<path d="M57.8075 158.332C57.8427 158.361 57.8848 158.381 57.9297 158.389C57.9747 158.397 58.021 158.394 58.0643 158.379C58.3656 158.256 58.6916 158.204 59.0163 158.229C59.341 158.253 59.6556 158.353 59.935 158.52C59.991 158.561 60.0605 158.578 60.1289 158.568C60.1973 158.558 60.2592 158.523 60.3018 158.468C60.3413 158.412 60.3573 158.343 60.3466 158.276C60.3358 158.208 60.299 158.147 60.2441 158.107C59.8954 157.886 59.499 157.751 59.0879 157.715C58.6768 157.679 58.263 157.741 57.8809 157.897C57.8178 157.922 57.7667 157.97 57.7384 158.031C57.71 158.093 57.7066 158.163 57.7289 158.227C57.7458 158.268 57.7729 158.304 57.8075 158.332Z" fill="#263238"/>
<path d="M66.2862 160.784C66.3366 160.773 66.3835 160.75 66.4224 160.716C66.4701 160.668 66.4968 160.603 66.4968 160.535C66.4968 160.468 66.4701 160.403 66.4224 160.354C66.1576 160.043 65.8219 159.799 65.4435 159.644C65.0651 159.489 64.6551 159.427 64.2478 159.464C64.1796 159.475 64.1185 159.513 64.0775 159.569C64.0364 159.624 64.0186 159.694 64.0277 159.762C64.0328 159.796 64.0445 159.828 64.062 159.857C64.0795 159.886 64.1026 159.911 64.1298 159.931C64.1571 159.951 64.188 159.965 64.2209 159.973C64.2537 159.981 64.2878 159.982 64.3212 159.977C64.6441 159.948 64.9693 159.999 65.268 160.125C65.5668 160.251 65.83 160.449 66.0346 160.7C66.066 160.735 66.1055 160.76 66.1495 160.775C66.1935 160.79 66.2406 160.793 66.2862 160.784Z" fill="#263238"/>
<path d="M57.9231 166.962C58.1042 167.109 58.297 167.24 58.4995 167.355C58.5317 167.371 58.5685 167.376 58.6039 167.369C58.6392 167.361 58.6708 167.341 58.6933 167.313C58.7088 167.279 58.7109 167.24 58.6992 167.204C58.6876 167.168 58.6631 167.138 58.6305 167.119C58.1106 166.84 57.664 166.442 57.3271 165.958C56.9902 165.473 56.7725 164.916 56.6917 164.332C56.6877 164.296 56.6704 164.263 56.6431 164.24C56.6159 164.216 56.5808 164.204 56.5449 164.206C56.5124 164.204 56.4806 164.216 56.4562 164.237C56.4318 164.259 56.4166 164.289 56.4139 164.321C56.4115 164.331 56.4115 164.342 56.4139 164.353C56.475 164.867 56.6403 165.364 56.8998 165.813C57.1593 166.261 57.5074 166.652 57.9231 166.962Z" fill="#263238"/>
<path d="M69.7704 154.161C69.4141 153.113 68.167 152.673 67.0613 152.589C67.4059 152.549 67.7234 152.383 67.9527 152.122C68.182 151.862 68.3069 151.526 68.3032 151.179C68.2818 150.832 68.1832 150.493 68.0146 150.189C67.846 149.884 67.6117 149.621 67.3286 149.419C66.8368 149.037 66.255 148.788 65.6392 148.696C65.0234 148.604 64.3943 148.673 63.8125 148.895C63.9162 148.833 63.9953 148.737 64.0364 148.623C64.0774 148.509 64.078 148.385 64.0379 148.271C63.9522 148.043 63.7985 147.848 63.5977 147.71C62.9978 147.279 62.2693 147.064 61.5314 147.102C60.7936 147.139 60.0902 147.425 59.5367 147.915C59.3267 147.281 58.8883 146.749 58.307 146.422C57.7256 146.094 57.0432 145.995 56.3927 146.144C55.1403 146.468 52.7823 146.72 52.4208 149.922C52.1511 149.665 51.8297 149.468 51.478 149.345C51.1263 149.222 50.7524 149.175 50.3813 149.208C50.0102 149.241 49.6504 149.353 49.3259 149.536C49.0014 149.719 48.7197 149.969 48.4995 150.27C48.2793 150.57 48.1258 150.915 48.0492 151.279C47.9725 151.644 47.9745 152.021 48.055 152.384C48.1355 152.748 48.2927 153.09 48.516 153.389C48.7393 153.687 49.0237 153.934 49.3501 154.114C49.0544 154.017 48.7328 154.036 48.4506 154.167C48.1684 154.299 47.9467 154.532 47.8305 154.821C47.7285 155.116 47.7068 155.432 47.7676 155.738C47.8284 156.044 47.9695 156.328 48.1764 156.561C48.5996 157.017 49.1455 157.341 49.7484 157.493C50.308 157.675 50.908 157.694 51.4776 157.546C51.7596 157.466 52.0158 157.313 52.2207 157.104C52.4257 156.894 52.5723 156.635 52.6461 156.351C52.709 156.65 52.8792 156.915 53.1245 157.096C53.3698 157.278 53.6731 157.363 53.9771 157.336C54.2798 157.291 54.5604 157.151 54.7787 156.936C54.9971 156.722 55.142 156.443 55.1927 156.142C55.2324 155.839 55.1913 155.531 55.0735 155.249C54.9557 154.968 54.7654 154.722 54.522 154.538C54.7019 154.69 54.9134 154.799 55.1411 154.858C55.3688 154.917 55.6068 154.924 55.8376 154.879C56.0684 154.833 56.2862 154.737 56.4747 154.596C56.6633 154.456 56.8179 154.275 56.9272 154.066C57.3913 155.08 58.1857 155.906 59.1804 156.409C59.6826 156.646 60.2488 156.712 60.7922 156.597C61.3356 156.481 61.826 156.191 62.1881 155.769C62.4994 156.169 62.8665 156.522 63.2781 156.817C63.4871 156.963 63.7249 157.061 63.9753 157.106C64.2258 157.151 64.483 157.142 64.7295 157.079C64.9729 157.006 65.1825 156.849 65.3215 156.636C65.4605 156.424 65.5199 156.169 65.4893 155.916C65.8776 156.264 66.347 156.508 66.8543 156.626C67.3617 156.744 67.8906 156.732 68.3923 156.592C68.8808 156.427 69.2915 156.088 69.5457 155.64C69.8 155.191 69.88 154.665 69.7704 154.161Z" fill="#263238"/>
<path d="M75.1573 215.694H56.2095C56.2095 216.417 57.0217 216.999 58.0173 216.994H88.8756C89.8608 216.994 90.652 216.402 90.6468 215.684L75.1573 215.694Z" fill="#263238"/>
<path d="M89.1588 216.936H71.8668C71.7402 216.945 71.6151 216.905 71.5175 216.824C71.4199 216.743 71.3573 216.627 71.3428 216.501C71.3439 216.455 71.3527 216.408 71.369 216.365L79.0718 198.717C79.2 198.449 79.4041 198.226 79.6585 198.074C79.9129 197.922 80.2063 197.849 80.5023 197.862H97.7943C97.9203 197.852 98.0454 197.891 98.1432 197.971C98.241 198.051 98.3038 198.166 98.3183 198.292C98.3179 198.341 98.3072 198.389 98.2869 198.434L90.5893 216.087C90.4592 216.352 90.2546 216.574 90.0005 216.725C89.7464 216.875 89.4539 216.949 89.1588 216.936Z" fill="#263238"/>
<path opacity="0.7" d="M97.7941 197.857H80.5021C80.2062 197.843 79.9127 197.917 79.6583 198.069C79.4039 198.221 79.1999 198.444 79.0716 198.711L71.6622 215.694H56.2095C56.2095 216.417 57.0217 216.999 58.0173 216.994H88.8756C89.169 216.993 89.4593 216.934 89.7298 216.821C89.9194 216.766 90.0949 216.67 90.2442 216.541C90.3934 216.411 90.5129 216.251 90.5944 216.071L98.2919 198.418C98.3123 198.373 98.323 198.325 98.3234 198.276C98.3063 198.152 98.2417 198.038 98.1431 197.96C98.0444 197.882 97.9194 197.845 97.7941 197.857Z" fill="white"/>
<path d="M87.3928 207.258C87.0155 208.101 86.2609 208.683 85.695 208.568C85.1291 208.452 84.9771 207.677 85.3439 206.828C85.7107 205.979 86.4706 205.408 87.0365 205.529C87.6024 205.649 87.7701 206.388 87.3928 207.258Z" fill="white"/>
<g opacity="0.3">
<path d="M79.0456 198.711L71.6362 215.694H72.4379L80.4761 197.878C80.1824 197.863 79.8906 197.933 79.6364 198.081C79.3823 198.229 79.1769 198.448 79.0456 198.711Z" fill="black"/>
</g>
<path d="M79.936 235.276L91.0868 237.068L92.8736 232.473L81.157 228.815L79.936 235.276Z" fill="#B97964"/>
<path d="M96.044 239.389L97.5478 236.277C97.4239 236.096 97.3474 235.887 97.3254 235.669C97.3034 235.451 97.3367 235.231 97.4221 235.03C97.5898 234.652 98.5277 234.034 98.5277 234.034L102.72 225.503C102.439 225.36 102.142 225.253 101.834 225.184C101.507 225.147 101.176 225.147 100.849 225.184C99.8272 225.325 99.0203 226.122 98.4439 226.756C97.4797 227.804 94.1471 230.324 94.1471 230.324C93.408 230.727 92.572 230.917 91.7314 230.874C91.4176 230.842 91.1004 230.881 90.8043 230.99C90.5081 231.099 90.2409 231.275 90.0232 231.503C89.918 231.644 89.845 231.806 89.8092 231.978C89.7735 232.15 89.776 232.328 89.8164 232.498C89.8569 232.669 89.9344 232.829 90.0435 232.967C90.1526 233.105 90.2905 233.217 90.4476 233.295L91.2074 233.819C91.299 234.204 91.242 234.61 91.0477 234.955C90.8534 235.299 90.5362 235.558 90.1594 235.679C90.1594 235.679 88.4302 236.822 89.2844 237.12C89.7664 237.299 91.9672 237.99 93.686 238.588L94.8021 238.975L96.044 239.389Z" fill="#263238"/>
<path d="M95.8922 228.899C95.8651 228.909 95.8422 228.928 95.8271 228.953C95.8119 228.977 95.8053 229.006 95.8083 229.035C95.8395 229.306 95.9406 229.564 96.1018 229.784C96.1909 229.905 96.3952 229.784 96.3061 229.653C96.1599 229.462 96.0693 229.233 96.0441 228.993C96.0443 228.975 96.0398 228.958 96.0311 228.942C96.0224 228.926 96.0099 228.913 95.9946 228.903C95.9794 228.894 95.9619 228.889 95.944 228.888C95.9261 228.887 95.9082 228.891 95.8922 228.899Z" fill="#56B5E6"/>
<path d="M95.1953 229.381C95.1692 229.392 95.1474 229.411 95.1333 229.436C95.1191 229.461 95.1133 229.489 95.1167 229.517C95.1423 229.789 95.242 230.048 95.4049 230.267C95.494 230.387 95.6983 230.267 95.6092 230.136C95.4644 229.943 95.3755 229.715 95.3525 229.475C95.3503 229.458 95.3444 229.442 95.3351 229.428C95.3258 229.413 95.3135 229.401 95.2989 229.392C95.2844 229.383 95.268 229.377 95.251 229.375C95.2339 229.374 95.2167 229.375 95.2005 229.381H95.1953Z" fill="#56B5E6"/>
<path d="M94.5297 229.9C94.5037 229.911 94.4819 229.93 94.4677 229.955C94.4535 229.979 94.4477 230.008 94.4511 230.036C94.4786 230.308 94.5801 230.567 94.7446 230.785C94.8284 230.901 95.0328 230.785 94.9437 230.654C94.8018 230.46 94.7133 230.233 94.6869 229.994C94.6858 229.977 94.6805 229.96 94.6715 229.945C94.6625 229.93 94.65 229.917 94.6352 229.908C94.6203 229.899 94.6035 229.893 94.5861 229.892C94.5686 229.89 94.5511 229.893 94.535 229.9H94.5297Z" fill="#56B5E6"/>
<path opacity="0.2" d="M97.422 235.03C97.5897 234.652 98.5277 234.034 98.5277 234.034L102.72 225.503C102.439 225.36 102.142 225.253 101.834 225.184C101.666 225.184 101.509 225.184 101.357 225.184L94.5977 238.913L94.7863 238.975L96.0334 239.41L97.5373 236.298C97.4114 236.114 97.3346 235.901 97.3145 235.679C97.2943 235.457 97.3313 235.233 97.422 235.03Z" fill="white"/>
<path d="M94.6815 230.13L94.5662 230.088L94.5924 230.026L94.5662 230.083C94.2503 229.973 93.9451 229.835 93.6544 229.669C93.354 229.5 93.1057 229.252 92.9365 228.951C92.8832 228.876 92.8507 228.788 92.8424 228.696C92.8342 228.604 92.8504 228.511 92.8894 228.427C92.9441 228.351 93.0197 228.292 93.107 228.258C93.1944 228.223 93.2899 228.215 93.382 228.233C93.5452 228.256 93.7023 228.311 93.8437 228.396C93.9851 228.48 94.1078 228.593 94.2046 228.726C94.4165 229.122 94.5683 229.548 94.6553 229.989L94.6815 230.13ZM93.3086 228.38C93.2498 228.376 93.1908 228.386 93.1368 228.409C93.0829 228.433 93.0357 228.47 92.9994 228.516C92.9773 228.578 92.9706 228.644 92.9797 228.709C92.9888 228.774 93.0136 228.835 93.0518 228.888C93.2109 229.168 93.4426 229.4 93.7225 229.559C93.9702 229.702 94.2297 229.823 94.4981 229.921C94.423 229.537 94.2886 229.168 94.0998 228.826C94.0138 228.706 93.9044 228.606 93.7783 228.53C93.6521 228.454 93.512 228.405 93.3662 228.385L93.3086 228.38Z" fill="#56B5E6"/>
<path d="M93.0728 231.231C92.9591 231.229 92.8462 231.211 92.7374 231.178C92.6478 231.153 92.5666 231.104 92.5021 231.037C92.4376 230.97 92.3922 230.886 92.3706 230.796C92.3719 230.707 92.3956 230.62 92.4396 230.543C92.4836 230.466 92.5464 230.402 92.6221 230.356C92.9012 230.155 93.2285 230.032 93.5706 229.999C93.9053 229.971 94.2419 229.971 94.5766 229.999H94.7024L94.6238 230.094C94.3667 230.471 94.052 230.805 93.6911 231.084C93.4996 231.182 93.2876 231.232 93.0728 231.231ZM94.0212 230.109C93.8763 230.102 93.7312 230.102 93.5863 230.109C93.2671 230.139 92.9615 230.253 92.7007 230.439C92.6452 230.474 92.5983 230.521 92.5638 230.576C92.5292 230.631 92.508 230.694 92.5016 230.759C92.5188 230.826 92.5537 230.886 92.6026 230.934C92.6516 230.982 92.7126 231.016 92.7793 231.032C93.066 231.113 93.3731 231.077 93.6334 230.932C93.9461 230.699 94.2202 230.417 94.4456 230.099L94.0212 230.109Z" fill="#56B5E6"/>
<path d="M38.0477 230.193C35.6426 226.363 30.1877 215.982 41.2337 213.949C52.2796 211.916 89.1063 229.433 89.1063 229.433L86.7745 236.481L52.4787 231.084C52.4787 231.084 57.1947 237.346 51.4779 237.063C43.1987 236.235 41.2127 234.254 38.0477 230.193Z" fill="#263238"/>
<path opacity="0.7" d="M53.2909 231.267L43.8589 228.307C43.8589 228.307 51.7503 233.133 54.648 233.709L53.2909 231.267Z" fill="black"/>
<path d="M18.3398 141.92H37.5182C38.352 141.92 39.1517 142.251 39.7413 142.841C40.331 143.431 40.6622 144.23 40.6622 145.064V155.418C40.6622 156.252 40.331 157.052 39.7413 157.642C39.1517 158.231 38.352 158.562 37.5182 158.562H32.928L32.8965 161.706L29.4434 158.562H18.3398C17.506 158.562 16.7063 158.231 16.1167 157.642C15.527 157.052 15.1958 156.252 15.1958 155.418V145.059C15.1972 144.226 15.529 143.428 16.1185 142.839C16.708 142.251 17.5069 141.92 18.3398 141.92Z" fill="#56B5E6"/>
<path d="M25.5657 148.601L22.5317 150.011L25.5552 151.426V152.563L21.5151 150.603V149.424L25.5552 147.464L25.5657 148.601Z" fill="white"/>
<path d="M34.7671 149.424V150.603L30.7271 152.563V151.436L33.7505 150.021L30.7271 148.612V147.475L34.7671 149.424Z" fill="white"/>
<path d="M28.8565 146.668L26.8862 153.48H27.8713L29.8416 146.668H28.8565Z" fill="white"/>
<path d="M33.0902 141.213H23.2443C23.2095 141.213 23.1762 141.199 23.1517 141.174C23.1271 141.15 23.1133 141.116 23.1133 141.082C23.1133 141.047 23.1271 141.014 23.1517 140.989C23.1762 140.965 23.2095 140.951 23.2443 140.951H33.0902C33.125 140.951 33.1583 140.965 33.1829 140.989C33.2074 141.014 33.2212 141.047 33.2212 141.082C33.2212 141.116 33.2074 141.15 33.1829 141.174C33.1583 141.199 33.125 141.213 33.0902 141.213Z" fill="#56B5E6"/>
<path d="M35.8099 141.218H34.2379C34.2032 141.218 34.1699 141.204 34.1453 141.18C34.1207 141.155 34.1069 141.122 34.1069 141.087C34.1069 141.052 34.1207 141.019 34.1453 140.994C34.1699 140.97 34.2032 140.956 34.2379 140.956H35.8099C35.8447 140.956 35.878 140.97 35.9026 140.994C35.9271 141.019 35.9409 141.052 35.9409 141.087C35.9409 141.122 35.9271 141.155 35.9026 141.18C35.878 141.204 35.8447 141.218 35.8099 141.218Z" fill="#56B5E6"/>
</svg>
