<svg width="25" height="22" viewBox="0 0 25 22" fill="none" xmlns="http://www.w3.org/2000/svg">
<path d="M0 21.2246V20.1163C0.0180855 20.0361 0.0317718 19.9549 0.0410091 19.8732C0.144159 18.1797 0.499472 16.5128 1.09443 14.931C2.18733 12.0158 4.04025 9.46922 6.44841 7.57264C8.85656 5.67606 11.7262 4.50337 14.74 4.18419C15.0512 4.15128 15.363 4.12508 15.6866 4.09486C15.6866 3.65357 15.682 3.24318 15.6866 2.83279C15.6918 2.44724 15.6866 2.05969 15.7231 1.67683C15.8533 0.314678 17.0161 -0.221317 18.0916 0.579318C18.254 0.704147 18.4065 0.842288 18.5474 0.992397C20.3899 2.8892 22.231 4.78735 24.0709 6.68685C24.4427 7.05426 24.7177 7.51335 24.8698 8.02079C24.9173 8.18737 24.9544 8.35663 25 8.52656V9.2822C24.9876 9.30302 24.9668 9.3225 24.9635 9.34466C24.8665 10.0553 24.5332 10.6336 24.0468 11.134C22.2148 13.0187 20.3842 14.905 18.5552 16.7929C18.3621 16.9973 18.1464 17.1776 17.9126 17.3302C16.9816 17.9125 16.0063 17.4927 15.7797 16.3899C15.6912 15.96 15.7029 15.5066 15.6886 15.064C15.6742 14.6213 15.6886 14.1794 15.6886 13.732C15.5232 13.732 15.3858 13.7193 15.251 13.732C14.613 13.8032 13.9717 13.8583 13.3382 13.9624C10.2353 14.4716 7.4403 15.7276 4.94609 17.6976C3.59694 18.7694 2.39268 20.0224 1.36527 21.4234C0.957705 21.9755 0.328128 21.9016 0.0436158 21.279C0.0308521 21.2594 0.0162456 21.2412 0 21.2246Z" fill="white"/>
</svg>
