<svg width="24" height="24" viewBox="0 0 24 24" fill="none" xmlns="http://www.w3.org/2000/svg">
<rect width="24" height="24" />
<path d="M8.80005 12.15H15.2" stroke="#2C2C2C" stroke-linecap="round" stroke-linejoin="round"/>
<path d="M8.80005 15.35H15.2" stroke="#2C2C2C" stroke-linecap="round" stroke-linejoin="round"/>
<path d="M4.8 3.35007H19.2C19.4122 3.35007 19.6157 3.43435 19.7657 3.58438C19.9157 3.73441 20 3.93789 20 4.15007V19.3501C20 19.9866 19.7471 20.597 19.2971 21.0471C18.847 21.4972 18.2365 21.7501 17.6 21.7501H6.4C5.76348 21.7501 5.15303 21.4972 4.70294 21.0471C4.25286 20.597 4 19.9866 4 19.3501V4.15007C4 3.93789 4.08429 3.73441 4.23431 3.58438C4.38434 3.43435 4.58783 3.35007 4.8 3.35007V3.35007Z" stroke="#2C2C2C" stroke-linecap="round" stroke-linejoin="round"/>
<path d="M7.19971 1.75V4.95" stroke="#2C2C2C" stroke-linecap="round" stroke-linejoin="round"/>
<path d="M12 1.75V4.95" stroke="#2C2C2C" stroke-linecap="round" stroke-linejoin="round"/>
<path d="M16.8 1.75V4.95" stroke="#2C2C2C" stroke-linecap="round" stroke-linejoin="round"/>
</svg>
